<?xml version="1.0" encoding="utf-8"?>
<!-- Generator: Adobe Illustrator 17.1.0, SVG Export Plug-In . SVG Version: 6.00 Build 0)  -->
<!DOCTYPE svg PUBLIC "-//W3C//DTD SVG 1.1//EN" "http://www.w3.org/Graphics/SVG/1.1/DTD/svg11.dtd">
<svg version="1.1" xmlns="http://www.w3.org/2000/svg" xmlns:xlink="http://www.w3.org/1999/xlink" x="0px" y="0px"
	 viewBox="0 0 300 140" enable-background="new 0 0 300 140" xml:space="preserve">
<g id="bg">
</g>
<g id="Layer_1" display="none">
	<g display="inline">
		<g>
			<path fill="#404041" d="M86.4,29.1c4.3,7.3,7.4,23.9,7.7,30.9c-10.9,0-21.7,0-32.5,0c0.5-6,4.2-26.1-9.3-29.6
				c-6.1-1.6-10,1.9-11.5,4.5c-1.4,2.4-1.8,5.9,0,8.1c1.2,1.5,3.3,1.8,4.5,0.5c0.7-0.8,0.9-1.7,0.5-2.6c-0.9-2-3.1-1.4-3.6-1.4
				c-0.2-2.2,1.7-4.5,4.1-5c4.9-1,9,1.8,9.9,6.9c1,5.1-1.4,10.6-5.8,13.4c-4.1,2.6-8.3,2.2-12.9,1.1c-4.5-1-8.3-4.7-9.6-6.7
				c-3.3,6.3-5.2,13.4-5.2,20.9c0,19.7,12.7,36.4,30.3,42.5c0.2-1.3,4.3-27.5,4.3-27.5h39.4c0,0,2.4,12.6,3.1,16.5
				c8-8.1,12.9-19.2,12.9-31.5C112.8,51.8,102,36.2,86.4,29.1z M58.6,61h37.5c1.6,0,2.9,1.4,2.9,3c0,1.6-1.3,3-2.9,3H58.6
				c-1.6,0-2.9-1.4-2.9-3C55.7,62.4,57,61,58.6,61z M97.3,84H57.4c-1.6,0-2.9-1.4-2.9-3s1.3-3,2.9-3h39.9c1.6,0,2.9,1.4,2.9,3
				S98.9,84,97.3,84z M106.1,72.5c0,2.4-2,4.5-4.4,4.5H53c-2.4,0-4.4-2.1-4.4-4.5c0-2.4,2-4.5,4.4-4.5h48.7
				C104.1,68,106.1,70.1,106.1,72.5z"/>
			<path fill="#404041" d="M67.7,20.4c-27.3,0-49.6,22.2-49.6,49.6c0,27.3,22.2,49.6,49.6,49.6s49.6-22.2,49.6-49.6
				C117.3,42.7,95.1,20.4,67.7,20.4z M67.7,118.4c-26.7,0-48.4-21.7-48.4-48.4c0-26.7,21.7-48.4,48.4-48.4s48.4,21.7,48.4,48.4
				C116.1,96.7,94.4,118.4,67.7,118.4z"/>
		</g>
		<g>
			<path fill="#404041" d="M202.2,40.3c0.4,0,0.7-0.1,1-0.2c0.3-0.1,0.5-0.3,0.7-0.5c0.2-0.2,0.3-0.4,0.4-0.7
				c0.1-0.3,0.1-0.5,0.1-0.8c0-0.3-0.1-0.5-0.2-0.8c-0.1-0.2-0.2-0.4-0.4-0.5c-0.2-0.1-0.4-0.2-0.6-0.3c-0.2-0.1-0.5-0.1-0.8-0.1
				c-0.4,0-0.8,0.1-1.1,0.2c-0.3,0.1-0.5,0.3-0.7,0.5c-0.2,0.2-0.3,0.4-0.4,0.6c-0.1,0.2-0.1,0.4-0.1,0.6c0,0.5,0.2,1,0.5,1.3
				C201,40.1,201.5,40.3,202.2,40.3z"/>
			<polygon fill="#404041" points="274,98 274,57 261,57 261,108 282,108 282,98 			"/>
			<path fill="#404041" d="M215.5,75.9c-2.1-1.2-3.3-2.3-3.7-3.1c-0.5-0.9-0.7-2.1-0.7-3.8c0-1.3,0.2-2.3,0.6-3c0.4-0.7,1-1,1.8-1
				c0.7,0,1.5,0.2,1.8,0.7c0.3,0.5,0.7,1.6,0.7,3.4V72h12v-1.2c0-4.1-0.5-6.9-1.2-8.6c-0.8-1.7-2.4-3.1-4.9-4.2
				c-2.4-1.1-5.4-1.7-8.8-1.7c-3.2,0-5.8,0.5-8.1,1.5c-2.2,1-3.8,2.4-4.8,4.2c-1,1.8-1.5,4.7-1.5,8.6c0,2.7,0.3,4.9,1.1,6.7
				c0.7,1.7,1.6,3.1,2.7,4.1c1.1,1,3.3,2.6,6.6,4.8c3.3,2.2,5.4,3.7,6.2,4.6c0.8,0.9,1.2,2.9,1.2,5.9c0,1.4-0.2,2.4-0.6,3.1
				c-0.4,0.7-1.1,1-2,1s-1.2-0.3-1.5-0.8c-0.3-0.5-0.2-1.8-0.2-3.7V90h-12v3.5c0,3.8-0.1,6.8,0.7,8.9c0.8,2.1,2.2,3.8,4.7,5.1
				c2.5,1.3,5.4,2,9,2c3.2,0,6-0.6,8.5-1.7c2.4-1.2,4.1-2.6,4.9-4.3c0.9-1.7,1.3-4.4,1.3-8c0-5-0.8-8.6-2.3-10.9
				C225.1,82.2,221.4,79.4,215.5,75.9z"/>
			<polygon fill="#404041" points="247,87 255,87 255,77 247,77 247,67 256,67 256,57 234,57 234,108 257,108 257,98 247,98 			"/>
			<path fill="#404041" d="M165,51.2c0.3,0.6,0.5,1.1,0.9,1.5c0.3,0.3,0.8,0.5,1.3,0.5c0.4,0,0.9-0.1,1.3-0.3
				c0.4-0.2,0.8-0.5,1.2-0.8c0.1-0.1,0.1-0.1,0.2-0.2c0,0,0,0,0,0c0.2,0.4,0.6,0.7,0.9,0.9c0.4,0.2,0.8,0.3,1.3,0.3
				c0.4,0,0.7-0.1,1.1-0.2c0.4-0.1,0.7-0.3,1.1-0.5c0.3-0.2,0.7-0.4,1-0.7c0.3-0.3,0.6-0.5,0.9-0.8c0.2,0.5,0.4,0.8,0.7,1.1
				c0.3,0.3,0.5,0.5,0.8,0.6c0.3,0.1,0.5,0.2,0.7,0.3c0.2,0,0.4,0.1,0.5,0.1c0.2,0,0.4,0,0.6-0.1c0.2-0.1,0.5-0.2,0.7-0.3
				c0.2-0.1,0.5-0.2,0.7-0.4c0.3-0.1,0.5-0.3,0.7-0.4c0.4-0.3,0.8-0.6,1.3-0.9c0.1,0.2,0.2,0.4,0.4,0.6c0.4,0.5,0.8,0.8,1.4,1.1
				c0.6,0.3,1.2,0.4,1.9,0.4c0.5,0,0.9-0.1,1.4-0.2c0.5-0.1,0.9-0.2,1.3-0.4c0.4-0.2,0.8-0.4,1.2-0.6c0.4-0.2,0.8-0.5,1.1-0.7
				c0.8-0.5,1.5-1.2,2.2-1.9l-1.5-1.6c-0.3,0.3-0.7,0.6-1.1,0.9c-0.4,0.3-0.9,0.6-1.4,0.9c-0.5,0.3-1,0.5-1.5,0.7
				c-0.5,0.2-1,0.3-1.5,0.3c-0.1,0-0.3,0-0.4,0c-0.1,0-0.3-0.1-0.4-0.2c-0.1-0.1-0.2-0.2-0.3-0.3c-0.1-0.1-0.2-0.3-0.3-0.5
				c0.7-0.2,1.3-0.5,1.9-0.8c0.6-0.3,1.1-0.7,1.5-1.2c0.4-0.4,0.8-0.9,1-1.4s0.4-1,0.4-1.5c0-0.4-0.1-0.9-0.2-1.2
				c-0.2-0.4-0.4-0.7-0.7-0.9c-0.3-0.3-0.6-0.5-1-0.6s-0.8-0.2-1.2-0.2c-0.5,0-1,0.1-1.5,0.3c-0.4,0.2-0.8,0.5-1.2,0.8
				c-0.4,0.3-0.7,0.7-0.9,1.1c-0.3,0.4-0.5,0.9-0.7,1.3c-0.2,0.5-0.3,1-0.4,1.4c-0.1,0.5-0.1,1-0.1,1.4c0,0.2,0,0.3,0,0.5
				c-0.2,0.2-0.4,0.3-0.6,0.5c-0.2,0.1-0.4,0.3-0.6,0.4c-0.2,0.1-0.4,0.2-0.6,0.3c-0.2,0.1-0.4,0.2-0.6,0.2
				c-0.2,0.1-0.3,0.1-0.5,0.1c-0.2,0-0.3,0-0.4-0.1c-0.1-0.1-0.2-0.2-0.3-0.4c-0.1-0.2-0.1-0.3-0.1-0.5c0-0.2,0-0.4,0-0.6
				c0-0.2,0-0.4,0-0.6c0-0.2,0.1-0.4,0.1-0.6c0-0.2,0.1-0.4,0.1-0.5c0-0.2,0.1-0.3,0.1-0.4c0.4-1,0.8-1.9,1.3-2.9
				c0.4-0.9,0.8-1.8,1.2-2.8c0.4-0.9,0.7-1.9,1-2.9c0.3-1,0.5-2,0.6-3.1c0-0.3,0-0.6,0-0.8c0-0.4,0-0.9-0.1-1.3
				c-0.1-0.4-0.2-0.8-0.3-1.1c-0.2-0.3-0.4-0.6-0.6-0.8c-0.3-0.2-0.6-0.3-0.9-0.3c-0.5,0-1,0.2-1.5,0.5c-0.5,0.3-0.9,0.7-1.3,1.3
				c-0.4,0.5-0.8,1.2-1.1,2c-0.3,0.8-0.7,1.6-0.9,2.5c-0.3,0.9-0.5,1.8-0.6,2.8c-0.2,1-0.2,2-0.3,3c-0.6,0.1-1.2,0.2-1.7,0.4
				c-0.5,0.2-1,0.5-1.5,0.8c-0.4,0.3-0.8,0.7-1.2,1.1c-0.4,0.4-0.7,0.9-0.9,1.4c-0.2,0.5-0.4,1-0.6,1.5c-0.1,0.5-0.2,1-0.2,1.5
				c0,0.1,0,0.2,0,0.3c0,0,0,0,0,0c-0.2,0.2-0.4,0.3-0.6,0.5c-0.2,0.1-0.4,0.2-0.5,0.3c-0.2,0.1-0.4,0.1-0.5,0.1
				c-0.2,0-0.4-0.1-0.4-0.3s-0.1-0.5-0.1-0.9c0-0.4,0-0.9,0.1-1.4c0.1-0.5,0.2-1,0.3-1.4c0.1-0.5,0.2-1,0.3-1.4
				c0.1-0.5,0.1-0.9,0.1-1.3c0-0.2,0-0.4-0.1-0.6s-0.1-0.3-0.2-0.3c-0.1-0.1-0.2-0.1-0.3-0.2c-0.1,0-0.2,0-0.3,0c-0.1,0-0.2,0-0.3,0
				c-0.1,0-0.2,0-0.3,0c-0.1,0-0.2,0-0.3,0c-0.1,0-0.2,0-0.3-0.1c-0.1,0-0.2-0.1-0.2-0.2c-0.1-0.1-0.1-0.2-0.2-0.3
				c-0.1-0.1-0.2-0.2-0.3-0.2c-0.1-0.1-0.2-0.1-0.4-0.1c-0.5,0-1.1,0.1-1.6,0.3c-0.5,0.2-1,0.5-1.5,0.9c-0.5,0.4-0.9,0.9-1.3,1.4
				c-0.4,0.5-0.7,1.1-1,1.7c-0.3,0.6-0.5,1.2-0.7,1.8c0,0.1,0,0.2-0.1,0.3c-0.1,0.2-0.2,0.3-0.4,0.5c-0.2,0.2-0.4,0.4-0.6,0.6
				s-0.4,0.4-0.6,0.6c-0.2,0.2-0.4,0.3-0.6,0.4c-0.2,0.1-0.4,0.1-0.6,0.1c-0.3,0-0.6-0.1-0.7-0.3c-0.2-0.2-0.3-0.5-0.3-1
				c0-0.4,0-0.8,0.1-1.3c0.1-0.5,0.2-1.1,0.3-1.7c0.1-0.6,0.3-1.2,0.4-1.9c0.2-0.7,0.3-1.3,0.4-2c0.1-0.7,0.2-1.4,0.3-2.1
				c0.1-0.7,0.1-1.4,0.1-2.1c0-0.7-0.1-1.4-0.2-2.1c-0.1-0.6-0.3-1.2-0.6-1.7c-0.3-0.5-0.6-0.9-0.9-1.1c-0.4-0.3-0.8-0.4-1.3-0.4
				c-0.7,0-1.4,0.2-2,0.5c-0.6,0.3-1.2,0.8-1.8,1.5c-0.6,0.6-1.1,1.4-1.5,2.4c-0.4,0.9-0.8,2-1.1,3.1l-0.2,0
				c0.1-0.5,0.1-1.1,0.2-1.5c0-0.2,0-0.4,0.1-0.6c0-0.2,0.1-0.4,0.1-0.6c0-0.2,0-0.3,0-0.5c0-0.1,0-0.2,0-0.3c0-0.7-0.1-1.3-0.2-1.8
				c-0.1-0.5-0.3-0.9-0.5-1.2c-0.2-0.3-0.5-0.6-0.8-0.7c-0.3-0.2-0.6-0.2-1-0.2c-0.5,0-1,0.1-1.5,0.4c-0.5,0.3-1,0.6-1.5,1.1
				c-0.5,0.5-1,1.1-1.4,1.7c-0.5,0.7-0.9,1.4-1.3,2.3c-0.4,0.8-0.8,1.7-1.1,2.7c-0.3,1-0.6,2-0.9,3c0.1-0.6,0.2-1.2,0.4-1.8
				c0.1-0.7,0.2-1.3,0.3-1.9c0.1-0.6,0.2-1.3,0.3-1.9c0.1-0.6,0.1-1.1,0.1-1.5c0-0.6,0-1.1-0.1-1.6c-0.1-0.5-0.2-0.9-0.4-1.2
				c-0.2-0.3-0.4-0.6-0.8-0.8c-0.3-0.2-0.7-0.3-1.2-0.3c-0.4,0-0.8,0.1-1.2,0.2c-0.4,0.2-0.8,0.4-1.2,0.8c-0.4,0.4-0.8,0.9-1.1,1.5
				c-0.4,0.6-0.7,1.4-1,2.3c0,0,0,0.1,0,0.1c0,0.1,0,0.2,0,0.3c0,0.1,0.1,0.2,0.1,0.3c0,0.1,0.1,0.2,0.1,0.2c0,0.1,0.1,0.1,0.1,0.1
				c0.1,0,0.2,0,0.3-0.1c0.1-0.1,0.2-0.1,0.2-0.3c0.3-0.3,0.5-0.7,0.8-0.9c0.3-0.3,0.6-0.6,0.9-0.8c0.3-0.2,0.6-0.4,0.9-0.5
				c0.3-0.1,0.5-0.2,0.7-0.2c0.1,0,0.2,0,0.3,0.1c0.1,0.1,0.6,0.2,0.6,0.3c0,0.1,0.6,0.2,0.6,0.3c0,0.1,0,0.2,0,0.3
				c-1,0.8-0.6,1.6-0.7,2.3c-0.1,0.7-0.4,1.4-0.4,2.1c-0.1,0.7-0.3,1.3-0.4,2c-0.1,0.7-0.3,1.3-0.4,2.1c-0.1,0.7-0.3,1.5-0.5,2.2
				c-0.2,0.8-0.4,1.6-0.6,2.6c-0.1,0.3-0.1,0.5-0.1,0.8c0,0.3-0.1,0.6-0.1,0.9c0,0.2,0,0.3,0.1,0.4c0.1,0.1,0.2,0.2,0.4,0.3
				c0.1,0.1,0.3,0.2,0.5,0.2c0.2,0,0.4,0.1,0.6,0.1c0.2,0,0.4,0,0.5-0.1c0.2,0,0.4-0.1,0.5-0.2c0.2-0.1,0.3-0.2,0.4-0.4
				c0.1-0.1,0.2-0.3,0.2-0.6c0.1-0.8,0.3-1.6,0.5-2.4c0.2-0.9,0.4-1.7,0.7-2.6c0.3-0.9,0.6-1.8,0.9-2.7c0.3-0.9,0.6-1.8,1-2.6
				c0.3-0.8,0.7-1.6,1-2.3c0.3-0.7,0.7-1.3,1-1.9c0.3-0.5,0.6-0.9,0.9-1.2c0.3-0.3,0.5-0.4,0.8-0.4c0.3,0,0.5,0.1,0.6,0.2
				c0.2,0.1,0.3,0.3,0.4,0.6c0.1,0.3,0.1,0.6,0.2,1c0,0.4,0,0.8,0,1.3c0,0.7,0,1.5-0.1,2.3c-0.1,0.8-0.2,1.7-0.4,2.5
				c-0.1,0.9-0.3,1.7-0.5,2.5c-0.2,0.8-0.3,1.6-0.5,2.3c-0.1,0.7-0.3,1.3-0.4,1.8c-0.1,0.5-0.1,0.8-0.1,1.1c0,0.3,0,0.6,0.1,0.8
				c0.1,0.2,0.2,0.4,0.3,0.5c0.1,0.1,0.3,0.2,0.4,0.3c0.2,0.1,0.3,0.1,0.5,0.1c0.2,0,0.4,0,0.6-0.1c0.2,0,0.4-0.1,0.5-0.2
				c0.2-0.1,0.3-0.2,0.4-0.4c0.1-0.2,0.2-0.3,0.3-0.6c0.1-0.8,0.3-1.6,0.5-2.5c0.2-0.9,0.3-1.8,0.5-2.7c0.2-0.9,0.4-1.8,0.6-2.7
				c0.2-0.9,0.5-1.7,0.7-2.6c0.3-0.8,0.5-1.6,0.8-2.3c0.3-0.7,0.6-1.3,0.9-1.8c0.3-0.5,0.7-0.9,1-1.2c0.4-0.3,0.8-0.4,1.2-0.4
				c0.2,0,0.4,0.1,0.5,0.2c0.1,0.1,0.2,0.3,0.3,0.5c0.1,0.2,0.1,0.4,0.1,0.7c0,0.3,0,0.6,0,1c0,0.6,0,1.2-0.1,1.8
				c-0.1,0.6-0.2,1.3-0.3,1.9c-0.1,0.6-0.2,1.3-0.4,1.9c-0.1,0.7-0.3,1.3-0.4,1.9c-0.1,0.6-0.2,1.2-0.3,1.8
				c-0.1,0.6-0.2,1.2-0.2,1.7c0,0.1,0,0.1,0,0.2c0,0.1,0,0.1,0,0.2c0,0.6,0.1,1.1,0.3,1.5c0.2,0.4,0.4,0.8,0.8,1.1
				c0.3,0.3,0.7,0.5,1.1,0.7c0.4,0.1,0.8,0.2,1.2,0.2c0.4,0,0.9-0.1,1.3-0.2c0.4-0.1,0.9-0.4,1.3-0.7c0.3-0.2,0.6-0.5,0.9-0.8
				c0.1,0.3,0.3,0.6,0.5,0.8c0.3,0.3,0.6,0.5,0.9,0.7c0.4,0.2,0.7,0.2,1.1,0.2c0.4,0,0.7-0.1,1.1-0.2c0.4-0.1,0.7-0.3,1-0.5
				c0.3-0.2,0.6-0.4,0.9-0.6C164.5,51.6,164.8,51.4,165,51.2z M185,46.9c0-0.2,0-0.5,0.1-0.8c0.1-0.3,0.1-0.5,0.2-0.8
				s0.2-0.5,0.4-0.7c0.2-0.2,0.4-0.4,0.6-0.5c0.2-0.1,0.5-0.2,0.9-0.2c0.2,0,0.3,0.1,0.5,0.3c0.1,0.2,0.2,0.5,0.2,0.9
				c0,0.3-0.1,0.5-0.3,0.8c-0.2,0.3-0.4,0.5-0.7,0.7c-0.3,0.2-0.6,0.4-0.9,0.6c-0.3,0.1-0.6,0.2-0.9,0.2C185,47.4,185,47.2,185,46.9
				z M179,44.1c0-0.1,0-0.3,0-0.5c0-0.2-0.5-0.5-0.5-0.8c0-0.3-0.2-0.6-0.2-1c0-0.4-0.1-0.7,0-1.1c0-0.2,0-0.5,0-1
				c0-0.4,0.1-0.9,0.2-1.5c0.1-0.6,0.2-1.1,0.3-1.7c0.1-0.6,0.2-1.1,0.4-1.6c0.2-0.5,0.3-0.9,0.5-1.2c0.2-0.3,0.4-0.5,0.7-0.5
				c0.1,0,0.2,0.1,0.3,0.2c0.1,0.2,0.1,0.5,0.1,0.9c0,0.3,0,0.8-0.1,1.3c0,0.4-0.1,0.9-0.2,1.3s-0.2,0.9-0.3,1.4
				c-0.1,0.5-0.3,1-0.4,1.4c-0.2,0.5,0.2,0.9,0,1.4c-0.4,1-0.7,2-0.7,3V44.1z M172.2,48c0.1-0.5,0.3-1,0.6-1.4
				c0.3-0.5,0.6-0.9,1-1.3c0.4-0.4,0.9-0.7,1.4-1c0,0,0,0.1,0,0.2c0,0.2,0,0.4,0,0.6c0,0.3,0,0.5,0,0.9c0,0.3,0,0.6,0,0.9
				c0,0.3,0,0.6,0,0.8c0,0.2,0,0.4,0.1,0.5c-0.2,0.5-0.4,0.9-0.6,1.2c-0.1,0.2-0.2,0.3-0.3,0.5c-0.1,0.1-0.2,0.3-0.4,0.4
				c-0.1,0.1-0.3,0.2-0.4,0.3c-0.1,0.1-0.3,0.1-0.4,0.1c-0.3,0-0.5,0-0.7-0.1c-0.2-0.1-0.3-0.2-0.4-0.3c-0.1-0.1-0.2-0.3-0.2-0.4
				c0-0.2-0.1-0.3-0.1-0.5C171.9,48.9,172,48.5,172.2,48z M163.7,49.6c-0.2,0.4-0.4,0.7-0.6,0.9c-0.2,0.3-0.5,0.4-0.8,0.4
				c-0.2,0-0.3,0-0.4-0.1c-0.1-0.1-0.2-0.2-0.3-0.4c-0.1-0.1-0.1-0.3-0.1-0.5c0-0.2,0-0.4,0-0.6c0-0.3,0-0.7,0.1-1.1
				c0.1-0.4,0.2-0.8,0.4-1.2c0.2-0.4,0.4-0.8,0.6-1.1c0.2-0.4,0.5-0.7,0.7-0.9c0.3-0.3,0.6-0.5,0.9-0.7c0.3-0.2,0.6-0.2,0.9-0.2
				l-0.7,3.5c0,0.3-0.1,0.6-0.2,0.9C164,48.8,163.8,49.2,163.7,49.6z"/>
			<path fill="#404041" d="M154.3,80.9c2.8-0.6,4.6-1.5,5.5-2.7c0.9-1.2,1.4-3.3,1.4-6.2c0-4.4-0.7-7.6-2-9.6
				c-1.3-2-3.1-3.5-5.2-4.1c-2.2-0.7-5.3-1.2-9.5-1.2H132v51h14.7c5.3,0,8.9-0.1,10.6-0.7c1.7-0.6,3.4-1.6,4.2-3.3
				c0.8-1.7,1.6-4.1,1.6-7.6v-4.7c0-3.3-0.9-5.8-2-7.4C159.9,82.7,157.4,81.5,154.3,80.9z M150,94.9c0,2.1-0.6,3.4-1.1,3.9
				c-0.5,0.5-1.9,0.8-3.9,0.9V85.4c2,0.1,3.5,0.3,4,0.8c0.5,0.5,1,1.8,1,4V94.9z M148.4,76.5c-0.4,0.6-1,1-2.3,1c-0.3,0-0.1,0-1.1,0
				V66.1c2,0,2.1,0.1,2.6,0.3c0.5,0.2,0.8,0.6,1.1,1.2c0.3,0.6,0.4,1.8,0.4,3.4C149,74,148.8,75.8,148.4,76.5z"/>
			<path fill="#404041" d="M170.7,57l-6.8,51h13.7l0.8-9h4.7l0.7,9h13.6l-7.6-51H170.7z M178.3,90c0.3-5,1.2-11.7,2.5-21.4
				c0.7,8.5,1.3,15.4,2,21.4H178.3z"/>
			<path fill="#404041" d="M200.1,53.1c0.5,0,0.9-0.1,1.4-0.2c0.5-0.2,1-0.4,1.5-0.6c0.5-0.2,0.9-0.5,1.4-0.8
				c0.1-0.1,0.2-0.1,0.3-0.2c0,0.1,0,0.2,0,0.3c0,0.3,0.1,0.6,0.2,0.8c0.1,0.2,0.3,0.4,0.5,0.6c0.2,0.1,0.5,0.2,0.8,0.2
				c0.3,0,0.5-0.1,0.7-0.2c0.2-0.1,0.4-0.4,0.5-0.7l3.1-6.2h0.2c-0.1,0-0.2,1.3-0.2,1.8c-0.1,0.5-0.1,1.1-0.1,1.6
				c0,1.2,0.1,2.1,0.4,2.8c0.3,0.6,0.7,0.9,1.1,0.9s0.8-0.1,1.2-0.2c0.4-0.1,0.8-0.3,1.1-0.5c0.4-0.2,0.7-0.4,1-0.7
				c0.3-0.2,0.7-0.5,1-0.7l0.6-0.4l-0.2-2.6c-0.5,0.5-0.9,0.9-1.3,1.2c-0.2,0.2-0.4,0.3-0.5,0.5c-0.2,0.1-0.4,0.3-0.5,0.4
				c-0.2,0.1-0.3,0.2-0.5,0.3c-0.2,0.1-0.3,0.1-0.4,0.1c-0.3,0-0.4-0.2-0.6-0.5c-0.1-0.3-0.2-0.7-0.2-1.2c0-0.3,0-0.6,0.1-1
				c0-0.3,0.1-0.7,0.1-1c0.1-0.4,0.1-0.7,0.2-1c0.1-0.3,0.1-0.6,0.2-0.9c0.1-0.3,0.1-0.5,0.1-0.7c0-0.2,0.1-0.3,0.1-0.4
				c0-0.6-0.1-1-0.3-1.4c-0.2-0.3-0.5-0.5-0.9-0.5s-0.7,0.1-1.1,0.2c-0.3,0.2-0.6,0.4-0.9,0.9c-0.1,0.1-0.1,0.2-0.2,0.4
				c-0.1,0.2-0.2,0.4-0.4,0.7c-0.1,0.3-0.3,0.5-0.4,0.8c-0.2,0.3-0.3,0.5-0.4,0.8c-0.1,0.3-0.3,0.1-0.4,0.3
				c-0.1,0.2-0.2,0.1-0.2,0.1h-0.2c0,0,0,0.2,0,0c0-0.2,0.1-0.2,0.1-0.4c0-0.2,0.1-0.4,0.1-0.6c0-0.3,0.1-0.5,0.1-0.7
				c0-0.2,0.1-0.4,0.1-0.6c0-0.2,0-0.3,0-0.5c0-0.4-0.1-0.8-0.2-1c-0.2-0.3-0.5-0.4-0.9-0.4s-0.8,0.1-1,0.4
				c-0.2,0.2-0.4,0.5-0.5,0.9c-0.1,0.5-0.2,1-0.3,1.7c-0.1,0.7-0.2,1.3-0.3,2c-0.1,0.7-0.2,1.4-0.2,2.1c-0.1,0-0.1,0.1-0.2,0.1
				c-0.3,0.3-0.7,0.6-1,0.9c-0.4,0.3-0.7,0.5-1,0.7c-0.3,0.2-0.7,0.3-0.9,0.3c-0.2,0-0.4-0.1-0.5-0.3c-0.1-0.2-0.1-0.5-0.1-0.8
				c0-0.4,0-0.8,0.1-1.2c0.1-0.5,0.2-0.9,0.3-1.4c0.1-0.5,0.2-0.9,0.4-1.4c0.1-0.5,0.3-0.9,0.4-1.3c0.1-0.4,0.2-0.8,0.3-1.1
				c0.1-0.3,0.1-0.6,0.1-0.7c0-0.2-0.1-0.4-0.2-0.5c-0.1-0.1-0.3-0.2-0.7-0.2c-0.2,0-0.4,0-0.6,0.1c-0.2,0-0.4,0.1-0.6,0.2
				c-0.2,0.1-0.4,0.2-0.6,0.4c-0.2,0.1-0.3,0.3-0.3,0.5c-0.1,0.6-0.3,1.2-0.5,1.9s-0.4,1.4-0.5,2.1c-0.2,0.7-0.3,1.4-0.4,2
				c-0.1,0.7-0.2,1.2-0.2,1.7c0,0.4,0,0.7,0.1,1c0.1,0.3,0.2,0.5,0.4,0.7c0.2,0.2,0.4,0.4,0.7,0.5S199.7,53.1,200.1,53.1z"/>
		</g>
	</g>
	<g display="inline">
		<g>
			<path fill="#404041" d="M86.4,29.1c4.3,7.3,7.4,23.9,7.7,30.9c-10.9,0-21.7,0-32.5,0c0.5-6,4.2-26.1-9.3-29.6
				c-6.1-1.6-10,1.9-11.5,4.5c-1.4,2.4-1.8,5.9,0,8.1c1.2,1.5,3.3,1.8,4.5,0.5c0.7-0.8,0.9-1.7,0.5-2.6c-0.9-2-3.1-1.4-3.6-1.4
				c-0.2-2.2,1.7-4.5,4.1-5c4.9-1,9,1.8,9.9,6.9c1,5.1-1.4,10.6-5.8,13.4c-4.1,2.6-8.3,2.2-12.9,1.1c-4.5-1-8.3-4.7-9.6-6.7
				c-3.3,6.3-5.2,13.4-5.2,20.9c0,19.7,12.7,36.4,30.3,42.5c0.2-1.3,4.3-27.5,4.3-27.5h39.4c0,0,2.4,12.6,3.1,16.5
				c8-8.1,12.9-19.2,12.9-31.5C112.8,51.8,102,36.2,86.4,29.1z M58.6,61h37.5c1.6,0,2.9,1.4,2.9,3c0,1.6-1.3,3-2.9,3H58.6
				c-1.6,0-2.9-1.4-2.9-3C55.7,62.4,57,61,58.6,61z M97.3,84H57.4c-1.6,0-2.9-1.4-2.9-3s1.3-3,2.9-3h39.9c1.6,0,2.9,1.4,2.9,3
				S98.9,84,97.3,84z M106.1,72.5c0,2.4-2,4.5-4.4,4.5H53c-2.4,0-4.4-2.1-4.4-4.5c0-2.4,2-4.5,4.4-4.5h48.7
				C104.1,68,106.1,70.1,106.1,72.5z"/>
			<path fill="#404041" d="M67.7,20.4c-27.3,0-49.6,22.2-49.6,49.6c0,27.3,22.2,49.6,49.6,49.6s49.6-22.2,49.6-49.6
				C117.3,42.7,95.1,20.4,67.7,20.4z M67.7,118.4c-26.7,0-48.4-21.7-48.4-48.4c0-26.7,21.7-48.4,48.4-48.4s48.4,21.7,48.4,48.4
				C116.1,96.7,94.4,118.4,67.7,118.4z"/>
		</g>
		<g>
			<path fill="#404041" d="M202.2,40.3c0.4,0,0.7-0.1,1-0.2c0.3-0.1,0.5-0.3,0.7-0.5c0.2-0.2,0.3-0.4,0.4-0.7
				c0.1-0.3,0.1-0.5,0.1-0.8c0-0.3-0.1-0.5-0.2-0.8c-0.1-0.2-0.2-0.4-0.4-0.5c-0.2-0.1-0.4-0.2-0.6-0.3c-0.2-0.1-0.5-0.1-0.8-0.1
				c-0.4,0-0.8,0.1-1.1,0.2c-0.3,0.1-0.5,0.3-0.7,0.5c-0.2,0.2-0.3,0.4-0.4,0.6c-0.1,0.2-0.1,0.4-0.1,0.6c0,0.5,0.2,1,0.5,1.3
				C201,40.1,201.5,40.3,202.2,40.3z"/>
			<polygon fill="#404041" points="274,98 274,57 261,57 261,108 282,108 282,98 			"/>
			<path fill="#404041" d="M215.5,75.9c-2.1-1.2-3.3-2.3-3.7-3.1c-0.5-0.9-0.7-2.1-0.7-3.8c0-1.3,0.2-2.3,0.6-3c0.4-0.7,1-1,1.8-1
				c0.7,0,1.5,0.2,1.8,0.7c0.3,0.5,0.7,1.6,0.7,3.4V72h12v-1.2c0-4.1-0.5-6.9-1.2-8.6c-0.8-1.7-2.4-3.1-4.9-4.2
				c-2.4-1.1-5.4-1.7-8.8-1.7c-3.2,0-5.8,0.5-8.1,1.5c-2.2,1-3.8,2.4-4.8,4.2c-1,1.8-1.5,4.7-1.5,8.6c0,2.7,0.3,4.9,1.1,6.7
				c0.7,1.7,1.6,3.1,2.7,4.1c1.1,1,3.3,2.6,6.6,4.8c3.3,2.2,5.4,3.7,6.2,4.6c0.8,0.9,1.2,2.9,1.2,5.9c0,1.4-0.2,2.4-0.6,3.1
				c-0.4,0.7-1.1,1-2,1s-1.2-0.3-1.5-0.8c-0.3-0.5-0.2-1.8-0.2-3.7V90h-12v3.5c0,3.8-0.1,6.8,0.7,8.9c0.8,2.1,2.2,3.8,4.7,5.1
				c2.5,1.3,5.4,2,9,2c3.2,0,6-0.6,8.5-1.7c2.4-1.2,4.1-2.6,4.9-4.3c0.9-1.7,1.3-4.4,1.3-8c0-5-0.8-8.6-2.3-10.9
				C225.1,82.2,221.4,79.4,215.5,75.9z"/>
			<polygon fill="#404041" points="247,87 255,87 255,77 247,77 247,67 256,67 256,57 234,57 234,108 257,108 257,98 247,98 			"/>
			<path fill="#404041" d="M165,51.2c0.3,0.6,0.5,1.1,0.9,1.5c0.3,0.3,0.8,0.5,1.3,0.5c0.4,0,0.9-0.1,1.3-0.3
				c0.4-0.2,0.8-0.5,1.2-0.8c0.1-0.1,0.1-0.1,0.2-0.2c0,0,0,0,0,0c0.2,0.4,0.6,0.7,0.9,0.9c0.4,0.2,0.8,0.3,1.3,0.3
				c0.4,0,0.7-0.1,1.1-0.2c0.4-0.1,0.7-0.3,1.1-0.5c0.3-0.2,0.7-0.4,1-0.7c0.3-0.3,0.6-0.5,0.9-0.8c0.2,0.5,0.4,0.8,0.7,1.1
				c0.3,0.3,0.5,0.5,0.8,0.6c0.3,0.1,0.5,0.2,0.7,0.3c0.2,0,0.4,0.1,0.5,0.1c0.2,0,0.4,0,0.6-0.1c0.2-0.1,0.5-0.2,0.7-0.3
				c0.2-0.1,0.5-0.2,0.7-0.4c0.3-0.1,0.5-0.3,0.7-0.4c0.4-0.3,0.8-0.6,1.3-0.9c0.1,0.2,0.2,0.4,0.4,0.6c0.4,0.5,0.8,0.8,1.4,1.1
				c0.6,0.3,1.2,0.4,1.9,0.4c0.5,0,0.9-0.1,1.4-0.2c0.5-0.1,0.9-0.2,1.3-0.4c0.4-0.2,0.8-0.4,1.2-0.6c0.4-0.2,0.8-0.5,1.1-0.7
				c0.8-0.5,1.5-1.2,2.2-1.9l-1.5-1.6c-0.3,0.3-0.7,0.6-1.1,0.9c-0.4,0.3-0.9,0.6-1.4,0.9c-0.5,0.3-1,0.5-1.5,0.7
				c-0.5,0.2-1,0.3-1.5,0.3c-0.1,0-0.3,0-0.4,0c-0.1,0-0.3-0.1-0.4-0.2c-0.1-0.1-0.2-0.2-0.3-0.3c-0.1-0.1-0.2-0.3-0.3-0.5
				c0.7-0.2,1.3-0.5,1.9-0.8c0.6-0.3,1.1-0.7,1.5-1.2c0.4-0.4,0.8-0.9,1-1.4s0.4-1,0.4-1.5c0-0.4-0.1-0.9-0.2-1.2
				c-0.2-0.4-0.4-0.7-0.7-0.9c-0.3-0.3-0.6-0.5-1-0.6s-0.8-0.2-1.2-0.2c-0.5,0-1,0.1-1.5,0.3c-0.4,0.2-0.8,0.5-1.2,0.8
				c-0.4,0.3-0.7,0.7-0.9,1.1c-0.3,0.4-0.5,0.9-0.7,1.3c-0.2,0.5-0.3,1-0.4,1.4c-0.1,0.5-0.1,1-0.1,1.4c0,0.2,0,0.3,0,0.5
				c-0.2,0.2-0.4,0.3-0.6,0.5c-0.2,0.1-0.4,0.3-0.6,0.4c-0.2,0.1-0.4,0.2-0.6,0.3c-0.2,0.1-0.4,0.2-0.6,0.2
				c-0.2,0.1-0.3,0.1-0.5,0.1c-0.2,0-0.3,0-0.4-0.1c-0.1-0.1-0.2-0.2-0.3-0.4c-0.1-0.2-0.1-0.3-0.1-0.5c0-0.2,0-0.4,0-0.6
				c0-0.2,0-0.4,0-0.6c0-0.2,0.1-0.4,0.1-0.6c0-0.2,0.1-0.4,0.1-0.5c0-0.2,0.1-0.3,0.1-0.4c0.4-1,0.8-1.9,1.3-2.9
				c0.4-0.9,0.8-1.8,1.2-2.8c0.4-0.9,0.7-1.9,1-2.9c0.3-1,0.5-2,0.6-3.1c0-0.3,0-0.6,0-0.8c0-0.4,0-0.9-0.1-1.3
				c-0.1-0.4-0.2-0.8-0.3-1.1c-0.2-0.3-0.4-0.6-0.6-0.8c-0.3-0.2-0.6-0.3-0.9-0.3c-0.5,0-1,0.2-1.5,0.5c-0.5,0.3-0.9,0.7-1.3,1.3
				c-0.4,0.5-0.8,1.2-1.1,2c-0.3,0.8-0.7,1.6-0.9,2.5c-0.3,0.9-0.5,1.8-0.6,2.8c-0.2,1-0.2,2-0.3,3c-0.6,0.1-1.2,0.2-1.7,0.4
				c-0.5,0.2-1,0.5-1.5,0.8c-0.4,0.3-0.8,0.7-1.2,1.1c-0.4,0.4-0.7,0.9-0.9,1.4c-0.2,0.5-0.4,1-0.6,1.5c-0.1,0.5-0.2,1-0.2,1.5
				c0,0.1,0,0.2,0,0.3c0,0,0,0,0,0c-0.2,0.2-0.4,0.3-0.6,0.5c-0.2,0.1-0.4,0.2-0.5,0.3c-0.2,0.1-0.4,0.1-0.5,0.1
				c-0.2,0-0.4-0.1-0.4-0.3s-0.1-0.5-0.1-0.9c0-0.4,0-0.9,0.1-1.4c0.1-0.5,0.2-1,0.3-1.4c0.1-0.5,0.2-1,0.3-1.4
				c0.1-0.5,0.1-0.9,0.1-1.3c0-0.2,0-0.4-0.1-0.6s-0.1-0.3-0.2-0.3c-0.1-0.1-0.2-0.1-0.3-0.2c-0.1,0-0.2,0-0.3,0c-0.1,0-0.2,0-0.3,0
				c-0.1,0-0.2,0-0.3,0c-0.1,0-0.2,0-0.3,0c-0.1,0-0.2,0-0.3-0.1c-0.1,0-0.2-0.1-0.2-0.2c-0.1-0.1-0.1-0.2-0.2-0.3
				c-0.1-0.1-0.2-0.2-0.3-0.2c-0.1-0.1-0.2-0.1-0.4-0.1c-0.5,0-1.1,0.1-1.6,0.3c-0.5,0.2-1,0.5-1.5,0.9c-0.5,0.4-0.9,0.9-1.3,1.4
				c-0.4,0.5-0.7,1.1-1,1.7c-0.3,0.6-0.5,1.2-0.7,1.8c0,0.1,0,0.2-0.1,0.3c-0.1,0.2-0.2,0.3-0.4,0.5c-0.2,0.2-0.4,0.4-0.6,0.6
				s-0.4,0.4-0.6,0.6c-0.2,0.2-0.4,0.3-0.6,0.4c-0.2,0.1-0.4,0.1-0.6,0.1c-0.3,0-0.6-0.1-0.7-0.3c-0.2-0.2-0.3-0.5-0.3-1
				c0-0.4,0-0.8,0.1-1.3c0.1-0.5,0.2-1.1,0.3-1.7c0.1-0.6,0.3-1.2,0.4-1.9c0.2-0.7,0.3-1.3,0.4-2c0.1-0.7,0.2-1.4,0.3-2.1
				c0.1-0.7,0.1-1.4,0.1-2.1c0-0.7-0.1-1.4-0.2-2.1c-0.1-0.6-0.3-1.2-0.6-1.7c-0.3-0.5-0.6-0.9-0.9-1.1c-0.4-0.3-0.8-0.4-1.3-0.4
				c-0.7,0-1.4,0.2-2,0.5c-0.6,0.3-1.2,0.8-1.8,1.5c-0.6,0.6-1.1,1.4-1.5,2.4c-0.4,0.9-0.8,2-1.1,3.1l-0.2,0
				c0.1-0.5,0.1-1.1,0.2-1.5c0-0.2,0-0.4,0.1-0.6c0-0.2,0.1-0.4,0.1-0.6c0-0.2,0-0.3,0-0.5c0-0.1,0-0.2,0-0.3c0-0.7-0.1-1.3-0.2-1.8
				c-0.1-0.5-0.3-0.9-0.5-1.2c-0.2-0.3-0.5-0.6-0.8-0.7c-0.3-0.2-0.6-0.2-1-0.2c-0.5,0-1,0.1-1.5,0.4c-0.5,0.3-1,0.6-1.5,1.1
				c-0.5,0.5-1,1.1-1.4,1.7c-0.5,0.7-0.9,1.4-1.3,2.3c-0.4,0.8-0.8,1.7-1.1,2.7c-0.3,1-0.6,2-0.9,3c0.1-0.6,0.2-1.2,0.4-1.8
				c0.1-0.7,0.2-1.3,0.3-1.9c0.1-0.6,0.2-1.3,0.3-1.9c0.1-0.6,0.1-1.1,0.1-1.5c0-0.6,0-1.1-0.1-1.6c-0.1-0.5-0.2-0.9-0.4-1.2
				c-0.2-0.3-0.4-0.6-0.8-0.8c-0.3-0.2-0.7-0.3-1.2-0.3c-0.4,0-0.8,0.1-1.2,0.2c-0.4,0.2-0.8,0.4-1.2,0.8c-0.4,0.4-0.8,0.9-1.1,1.5
				c-0.4,0.6-0.7,1.4-1,2.3c0,0,0,0.1,0,0.1c0,0.1,0,0.2,0,0.3c0,0.1,0.1,0.2,0.1,0.3c0,0.1,0.1,0.2,0.1,0.2c0,0.1,0.1,0.1,0.1,0.1
				c0.1,0,0.2,0,0.3-0.1c0.1-0.1,0.2-0.1,0.2-0.3c0.3-0.3,0.5-0.7,0.8-0.9c0.3-0.3,0.6-0.6,0.9-0.8c0.3-0.2,0.6-0.4,0.9-0.5
				c0.3-0.1,0.5-0.2,0.7-0.2c0.1,0,0.2,0,0.3,0.1c0.1,0.1,0.6,0.2,0.6,0.3c0,0.1,0.6,0.2,0.6,0.3c0,0.1,0,0.2,0,0.3
				c-1,0.8-0.6,1.6-0.7,2.3c-0.1,0.7-0.4,1.4-0.4,2.1c-0.1,0.7-0.3,1.3-0.4,2c-0.1,0.7-0.3,1.3-0.4,2.1c-0.1,0.7-0.3,1.5-0.5,2.2
				c-0.2,0.8-0.4,1.6-0.6,2.6c-0.1,0.3-0.1,0.5-0.1,0.8c0,0.3-0.1,0.6-0.1,0.9c0,0.2,0,0.3,0.1,0.4c0.1,0.1,0.2,0.2,0.4,0.3
				c0.1,0.1,0.3,0.2,0.5,0.2c0.2,0,0.4,0.1,0.6,0.1c0.2,0,0.4,0,0.5-0.1c0.2,0,0.4-0.1,0.5-0.2c0.2-0.1,0.3-0.2,0.4-0.4
				c0.1-0.1,0.2-0.3,0.2-0.6c0.1-0.8,0.3-1.6,0.5-2.4c0.2-0.9,0.4-1.7,0.7-2.6c0.3-0.9,0.6-1.8,0.9-2.7c0.3-0.9,0.6-1.8,1-2.6
				c0.3-0.8,0.7-1.6,1-2.3c0.3-0.7,0.7-1.3,1-1.9c0.3-0.5,0.6-0.9,0.9-1.2c0.3-0.3,0.5-0.4,0.8-0.4c0.3,0,0.5,0.1,0.6,0.2
				c0.2,0.1,0.3,0.3,0.4,0.6c0.1,0.3,0.1,0.6,0.2,1c0,0.4,0,0.8,0,1.3c0,0.7,0,1.5-0.1,2.3c-0.1,0.8-0.2,1.7-0.4,2.5
				c-0.1,0.9-0.3,1.7-0.5,2.5c-0.2,0.8-0.3,1.6-0.5,2.3c-0.1,0.7-0.3,1.3-0.4,1.8c-0.1,0.5-0.1,0.8-0.1,1.1c0,0.3,0,0.6,0.1,0.8
				c0.1,0.2,0.2,0.4,0.3,0.5c0.1,0.1,0.3,0.2,0.4,0.3c0.2,0.1,0.3,0.1,0.5,0.1c0.2,0,0.4,0,0.6-0.1c0.2,0,0.4-0.1,0.5-0.2
				c0.2-0.1,0.3-0.2,0.4-0.4c0.1-0.2,0.2-0.3,0.3-0.6c0.1-0.8,0.3-1.6,0.5-2.5c0.2-0.9,0.3-1.8,0.5-2.7c0.2-0.9,0.4-1.8,0.6-2.7
				c0.2-0.9,0.5-1.7,0.7-2.6c0.3-0.8,0.5-1.6,0.8-2.3c0.3-0.7,0.6-1.3,0.9-1.8c0.3-0.5,0.7-0.9,1-1.2c0.4-0.3,0.8-0.4,1.2-0.4
				c0.2,0,0.4,0.1,0.5,0.2c0.1,0.1,0.2,0.3,0.3,0.5c0.1,0.2,0.1,0.4,0.1,0.7c0,0.3,0,0.6,0,1c0,0.6,0,1.2-0.1,1.8
				c-0.1,0.6-0.2,1.3-0.3,1.9c-0.1,0.6-0.2,1.3-0.4,1.9c-0.1,0.7-0.3,1.3-0.4,1.9c-0.1,0.6-0.2,1.2-0.3,1.8
				c-0.1,0.6-0.2,1.2-0.2,1.7c0,0.1,0,0.1,0,0.2c0,0.1,0,0.1,0,0.2c0,0.6,0.1,1.1,0.3,1.5c0.2,0.4,0.4,0.8,0.8,1.1
				c0.3,0.3,0.7,0.5,1.1,0.7c0.4,0.1,0.8,0.2,1.2,0.2c0.4,0,0.9-0.1,1.3-0.2c0.4-0.1,0.9-0.4,1.3-0.7c0.3-0.2,0.6-0.5,0.9-0.8
				c0.1,0.3,0.3,0.6,0.5,0.8c0.3,0.3,0.6,0.5,0.9,0.7c0.4,0.2,0.7,0.2,1.1,0.2c0.4,0,0.7-0.1,1.1-0.2c0.4-0.1,0.7-0.3,1-0.5
				c0.3-0.2,0.6-0.4,0.9-0.6C164.5,51.6,164.8,51.4,165,51.2z M185,46.9c0-0.2,0-0.5,0.1-0.8c0.1-0.3,0.1-0.5,0.2-0.8
				s0.2-0.5,0.4-0.7c0.2-0.2,0.4-0.4,0.6-0.5c0.2-0.1,0.5-0.2,0.9-0.2c0.2,0,0.3,0.1,0.5,0.3c0.1,0.2,0.2,0.5,0.2,0.9
				c0,0.3-0.1,0.5-0.3,0.8c-0.2,0.3-0.4,0.5-0.7,0.7c-0.3,0.2-0.6,0.4-0.9,0.6c-0.3,0.1-0.6,0.2-0.9,0.2C185,47.4,185,47.2,185,46.9
				z M179,44.1c0-0.1,0-0.3,0-0.5c0-0.2-0.5-0.5-0.5-0.8c0-0.3-0.2-0.6-0.2-1c0-0.4-0.1-0.7,0-1.1c0-0.2,0-0.5,0-1
				c0-0.4,0.1-0.9,0.2-1.5c0.1-0.6,0.2-1.1,0.3-1.7c0.1-0.6,0.2-1.1,0.4-1.6c0.2-0.5,0.3-0.9,0.5-1.2c0.2-0.3,0.4-0.5,0.7-0.5
				c0.1,0,0.2,0.1,0.3,0.2c0.1,0.2,0.1,0.5,0.1,0.9c0,0.3,0,0.8-0.1,1.3c0,0.4-0.1,0.9-0.2,1.3s-0.2,0.9-0.3,1.4
				c-0.1,0.5-0.3,1-0.4,1.4c-0.2,0.5,0.2,0.9,0,1.4c-0.4,1-0.7,2-0.7,3V44.1z M172.2,48c0.1-0.5,0.3-1,0.6-1.4
				c0.3-0.5,0.6-0.9,1-1.3c0.4-0.4,0.9-0.7,1.4-1c0,0,0,0.1,0,0.2c0,0.2,0,0.4,0,0.6c0,0.3,0,0.5,0,0.9c0,0.3,0,0.6,0,0.9
				c0,0.3,0,0.6,0,0.8c0,0.2,0,0.4,0.1,0.5c-0.2,0.5-0.4,0.9-0.6,1.2c-0.1,0.2-0.2,0.3-0.3,0.5c-0.1,0.1-0.2,0.3-0.4,0.4
				c-0.1,0.1-0.3,0.2-0.4,0.3c-0.1,0.1-0.3,0.1-0.4,0.1c-0.3,0-0.5,0-0.7-0.1c-0.2-0.1-0.3-0.2-0.4-0.3c-0.1-0.1-0.2-0.3-0.2-0.4
				c0-0.2-0.1-0.3-0.1-0.5C171.9,48.9,172,48.5,172.2,48z M163.7,49.6c-0.2,0.4-0.4,0.7-0.6,0.9c-0.2,0.3-0.5,0.4-0.8,0.4
				c-0.2,0-0.3,0-0.4-0.1c-0.1-0.1-0.2-0.2-0.3-0.4c-0.1-0.1-0.1-0.3-0.1-0.5c0-0.2,0-0.4,0-0.6c0-0.3,0-0.7,0.1-1.1
				c0.1-0.4,0.2-0.8,0.4-1.2c0.2-0.4,0.4-0.8,0.6-1.1c0.2-0.4,0.5-0.7,0.7-0.9c0.3-0.3,0.6-0.5,0.9-0.7c0.3-0.2,0.6-0.2,0.9-0.2
				l-0.7,3.5c0,0.3-0.1,0.6-0.2,0.9C164,48.8,163.8,49.2,163.7,49.6z"/>
			<path fill="#404041" d="M154.3,80.9c2.8-0.6,4.6-1.5,5.5-2.7c0.9-1.2,1.4-3.3,1.4-6.2c0-4.4-0.7-7.6-2-9.6
				c-1.3-2-3.1-3.5-5.2-4.1c-2.2-0.7-5.3-1.2-9.5-1.2H132v51h14.7c5.3,0,8.9-0.1,10.6-0.7c1.7-0.6,3.4-1.6,4.2-3.3
				c0.8-1.7,1.6-4.1,1.6-7.6v-4.7c0-3.3-0.9-5.8-2-7.4C159.9,82.7,157.4,81.5,154.3,80.9z M150,94.9c0,2.1-0.6,3.4-1.1,3.9
				c-0.5,0.5-1.9,0.8-3.9,0.9V85.4c2,0.1,3.5,0.3,4,0.8c0.5,0.5,1,1.8,1,4V94.9z M148.4,76.5c-0.4,0.6-1,1-2.3,1c-0.3,0-0.1,0-1.1,0
				V66.1c2,0,2.1,0.1,2.6,0.3c0.5,0.2,0.8,0.6,1.1,1.2c0.3,0.6,0.4,1.8,0.4,3.4C149,74,148.8,75.8,148.4,76.5z"/>
			<path fill="#404041" d="M170.7,57l-6.8,51h13.7l0.8-9h4.7l0.7,9h13.6l-7.6-51H170.7z M178.3,90c0.3-5,1.2-11.7,2.5-21.4
				c0.7,8.5,1.3,15.4,2,21.4H178.3z"/>
			<path fill="#404041" d="M200.1,53.1c0.5,0,0.9-0.1,1.4-0.2c0.5-0.2,1-0.4,1.5-0.6c0.5-0.2,0.9-0.5,1.4-0.8
				c0.1-0.1,0.2-0.1,0.3-0.2c0,0.1,0,0.2,0,0.3c0,0.3,0.1,0.6,0.2,0.8c0.1,0.2,0.3,0.4,0.5,0.6c0.2,0.1,0.5,0.2,0.8,0.2
				c0.3,0,0.5-0.1,0.7-0.2c0.2-0.1,0.4-0.4,0.5-0.7l3.1-6.2h0.2c-0.1,0-0.2,1.3-0.2,1.8c-0.1,0.5-0.1,1.1-0.1,1.6
				c0,1.2,0.1,2.1,0.4,2.8c0.3,0.6,0.7,0.9,1.1,0.9s0.8-0.1,1.2-0.2c0.4-0.1,0.8-0.3,1.1-0.5c0.4-0.2,0.7-0.4,1-0.7
				c0.3-0.2,0.7-0.5,1-0.7l0.6-0.4l-0.2-2.6c-0.5,0.5-0.9,0.9-1.3,1.2c-0.2,0.2-0.4,0.3-0.5,0.5c-0.2,0.1-0.4,0.3-0.5,0.4
				c-0.2,0.1-0.3,0.2-0.5,0.3c-0.2,0.1-0.3,0.1-0.4,0.1c-0.3,0-0.4-0.2-0.6-0.5c-0.1-0.3-0.2-0.7-0.2-1.2c0-0.3,0-0.6,0.1-1
				c0-0.3,0.1-0.7,0.1-1c0.1-0.4,0.1-0.7,0.2-1c0.1-0.3,0.1-0.6,0.2-0.9c0.1-0.3,0.1-0.5,0.1-0.7c0-0.2,0.1-0.3,0.1-0.4
				c0-0.6-0.1-1-0.3-1.4c-0.2-0.3-0.5-0.5-0.9-0.5s-0.7,0.1-1.1,0.2c-0.3,0.2-0.6,0.4-0.9,0.9c-0.1,0.1-0.1,0.2-0.2,0.4
				c-0.1,0.2-0.2,0.4-0.4,0.7c-0.1,0.3-0.3,0.5-0.4,0.8c-0.2,0.3-0.3,0.5-0.4,0.8c-0.1,0.3-0.3,0.1-0.4,0.3
				c-0.1,0.2-0.2,0.1-0.2,0.1h-0.2c0,0,0,0.2,0,0c0-0.2,0.1-0.2,0.1-0.4c0-0.2,0.1-0.4,0.1-0.6c0-0.3,0.1-0.5,0.1-0.7
				c0-0.2,0.1-0.4,0.1-0.6c0-0.2,0-0.3,0-0.5c0-0.4-0.1-0.8-0.2-1c-0.2-0.3-0.5-0.4-0.9-0.4s-0.8,0.1-1,0.4
				c-0.2,0.2-0.4,0.5-0.5,0.9c-0.1,0.5-0.2,1-0.3,1.7c-0.1,0.7-0.2,1.3-0.3,2c-0.1,0.7-0.2,1.4-0.2,2.1c-0.1,0-0.1,0.1-0.2,0.1
				c-0.3,0.3-0.7,0.6-1,0.9c-0.4,0.3-0.7,0.5-1,0.7c-0.3,0.2-0.7,0.3-0.9,0.3c-0.2,0-0.4-0.1-0.5-0.3c-0.1-0.2-0.1-0.5-0.1-0.8
				c0-0.4,0-0.8,0.1-1.2c0.1-0.5,0.2-0.9,0.3-1.4c0.1-0.5,0.2-0.9,0.4-1.4c0.1-0.5,0.3-0.9,0.4-1.3c0.1-0.4,0.2-0.8,0.3-1.1
				c0.1-0.3,0.1-0.6,0.1-0.7c0-0.2-0.1-0.4-0.2-0.5c-0.1-0.1-0.3-0.2-0.7-0.2c-0.2,0-0.4,0-0.6,0.1c-0.2,0-0.4,0.1-0.6,0.2
				c-0.2,0.1-0.4,0.2-0.6,0.4c-0.2,0.1-0.3,0.3-0.3,0.5c-0.1,0.6-0.3,1.2-0.5,1.9s-0.4,1.4-0.5,2.1c-0.2,0.7-0.3,1.4-0.4,2
				c-0.1,0.7-0.2,1.2-0.2,1.7c0,0.4,0,0.7,0.1,1c0.1,0.3,0.2,0.5,0.4,0.7c0.2,0.2,0.4,0.4,0.7,0.5S199.7,53.1,200.1,53.1z"/>
		</g>
	</g>
</g>
<g id="Layer_3">
	<g>
		<g>
			<path fill="#404041" d="M200.9,40.7c0.4,0,0.7-0.1,1-0.2c0.3-0.1,0.5-0.3,0.7-0.5c0.2-0.2,0.3-0.4,0.4-0.7
				c0.1-0.2,0.1-0.5,0.1-0.8c0-0.3-0.1-0.5-0.2-0.7c-0.1-0.2-0.2-0.4-0.4-0.5c-0.2-0.1-0.4-0.2-0.6-0.3c-0.2-0.1-0.5-0.1-0.8-0.1
				c-0.4,0-0.8,0.1-1.1,0.2c-0.3,0.1-0.5,0.3-0.7,0.5c-0.2,0.2-0.3,0.4-0.4,0.6c-0.1,0.2-0.1,0.4-0.1,0.6c0,0.5,0.2,1,0.5,1.3
				C199.7,40.5,200.2,40.7,200.9,40.7z"/>
			<polygon fill="#404041" points="271,98 271,57 258,57 258,108 279,108 279,98 			"/>
			<path fill="#404041" d="M214.1,75.8c-2-1.2-3.3-2.2-3.7-3.1c-0.5-0.9-0.7-2.1-0.7-3.8c0-1.3,0.2-2.3,0.6-2.9c0.4-0.6,1-1,1.8-1
				c0.7,0,1.2,0.2,1.5,0.7c0.3,0.5,0.4,1.6,0.4,3.3V72h12v-1.2c0-4-0.3-6.8-1-8.5c-0.8-1.7-2.3-3.1-4.7-4.2
				c-2.4-1.1-5.3-1.6-8.7-1.6c-3.1,0-5.8,0.5-7.9,1.5c-2.2,1-3.8,2.4-4.8,4.2c-1,1.8-1.5,4.6-1.5,8.5c0,2.7,0.3,4.9,1,6.6
				c0.7,1.7,1.6,3.1,2.6,4c1.1,1,3.2,2.5,6.5,4.7c3.3,2.1,5.3,3.7,6.1,4.6c0.8,0.9,1.2,2.9,1.2,5.8c0,1.3-0.2,2.4-0.6,3
				c-0.4,0.7-1.1,1-1.9,1s-1.5-0.3-1.8-0.8c-0.3-0.5-0.5-1.8-0.5-3.6v-6h-12v3.2c0,3.8,0.3,6.7,1.1,8.7c0.8,2.1,2.3,3.7,4.8,5.1
				c2.5,1.3,5.4,2,9,2c3.2,0,6-0.6,8.4-1.7c2.4-1.2,4-2.6,4.9-4.3c0.8-1.7,1.3-4.3,1.3-7.9c0-4.9-0.8-8.5-2.3-10.7
				C223.6,82.1,219.9,79.3,214.1,75.8z"/>
			<polygon fill="#404041" points="245,87 252,87 252,78 245,78 245,68 254,68 254,57 232,57 232,108 255,108 255,98 245,98 			"/>
			<path fill="#404041" d="M164.1,51.4c0.2,0.6,0.5,1.1,0.9,1.4c0.3,0.3,0.8,0.5,1.3,0.5c0.4,0,0.9-0.1,1.3-0.3
				c0.4-0.2,0.8-0.5,1.2-0.8c0.1-0.1,0.1-0.1,0.2-0.2c0,0,0,0,0,0c0.2,0.4,0.5,0.6,0.9,0.9c0.4,0.2,0.8,0.3,1.3,0.3
				c0.4,0,0.7-0.1,1.1-0.2c0.4-0.1,0.7-0.3,1-0.4c0.3-0.2,0.7-0.4,1-0.7c0.3-0.3,0.6-0.5,0.9-0.8c0.2,0.4,0.4,0.8,0.7,1.1
				c0.3,0.3,0.5,0.5,0.8,0.6c0.3,0.1,0.5,0.2,0.7,0.3c0.2,0,0.4,0.1,0.5,0.1c0.2,0,0.4,0,0.6-0.1c0.2-0.1,0.5-0.2,0.7-0.3
				c0.2-0.1,0.5-0.2,0.7-0.4c0.2-0.1,0.5-0.3,0.7-0.4c0.4-0.3,0.8-0.6,1.3-0.9c0.1,0.2,0.2,0.4,0.4,0.5c0.4,0.4,0.8,0.8,1.4,1.1
				c0.5,0.3,1.2,0.4,1.9,0.4c0.5,0,0.9-0.1,1.4-0.2c0.5-0.1,0.9-0.2,1.3-0.4c0.4-0.2,0.8-0.4,1.2-0.6c0.4-0.2,0.7-0.5,1.1-0.7
				c0.8-0.5,1.5-1.2,2.2-1.9l-1.5-1.6c-0.3,0.3-0.7,0.6-1.1,0.9c-0.4,0.3-0.9,0.6-1.4,0.9c-0.5,0.3-1,0.5-1.5,0.7
				c-0.5,0.2-1,0.3-1.5,0.3c-0.1,0-0.3,0-0.4,0c-0.1,0-0.2-0.1-0.4-0.2c-0.1-0.1-0.2-0.2-0.3-0.3c-0.1-0.1-0.2-0.3-0.3-0.5
				c0.7-0.2,1.3-0.4,1.9-0.8c0.6-0.3,1.1-0.7,1.5-1.1c0.4-0.4,0.7-0.9,1-1.4c0.2-0.5,0.4-1,0.4-1.4c0-0.4-0.1-0.8-0.2-1.2
				c-0.2-0.4-0.4-0.7-0.6-0.9c-0.3-0.3-0.6-0.4-1-0.6c-0.4-0.1-0.8-0.2-1.2-0.2c-0.5,0-1,0.1-1.5,0.3c-0.4,0.2-0.8,0.4-1.2,0.8
				c-0.4,0.3-0.7,0.7-0.9,1.1c-0.3,0.4-0.5,0.9-0.7,1.3c-0.2,0.5-0.3,0.9-0.4,1.4c-0.1,0.5-0.1,0.9-0.1,1.4c0,0.2,0,0.3,0,0.5
				c-0.2,0.2-0.4,0.3-0.6,0.5c-0.2,0.1-0.4,0.3-0.6,0.4c-0.2,0.1-0.4,0.2-0.6,0.3c-0.2,0.1-0.4,0.2-0.6,0.2
				c-0.2,0.1-0.3,0.1-0.5,0.1c-0.2,0-0.3,0-0.4-0.1c-0.1-0.1-0.2-0.2-0.2-0.4c-0.1-0.2-0.1-0.3-0.1-0.5c0-0.2,0-0.4,0-0.6
				c0-0.2,0-0.4,0-0.6c0-0.2,0.1-0.4,0.1-0.6c0-0.2,0.1-0.4,0.1-0.5c0-0.2,0.1-0.3,0.1-0.4c0.4-1,0.8-1.9,1.2-2.8
				c0.4-0.9,0.8-1.8,1.2-2.7c0.4-0.9,0.7-1.9,1-2.8c0.3-1,0.5-2,0.6-3.1c0-0.3,0-0.6,0-0.8c0-0.4,0-0.9-0.1-1.3
				c-0.1-0.4-0.2-0.8-0.3-1.1c-0.2-0.3-0.4-0.6-0.6-0.8c-0.3-0.2-0.6-0.3-0.9-0.3c-0.5,0-1,0.2-1.4,0.5c-0.5,0.3-0.9,0.7-1.3,1.3
				c-0.4,0.5-0.8,1.2-1.1,1.9c-0.3,0.7-0.6,1.6-0.9,2.4c-0.3,0.9-0.5,1.8-0.6,2.8c-0.2,1-0.2,1.9-0.3,2.9c-0.6,0.1-1.1,0.2-1.7,0.4
				c-0.5,0.2-1,0.5-1.4,0.8c-0.4,0.3-0.8,0.7-1.2,1.1c-0.3,0.4-0.6,0.9-0.9,1.3c-0.2,0.5-0.4,1-0.6,1.5c-0.1,0.5-0.2,1-0.2,1.5
				c0,0.1,0,0.2,0,0.3c0,0,0,0,0,0c-0.2,0.2-0.4,0.3-0.5,0.4c-0.2,0.1-0.4,0.2-0.5,0.3c-0.2,0.1-0.3,0.1-0.5,0.1
				c-0.2,0-0.4-0.1-0.4-0.3s-0.1-0.5-0.1-0.9c0-0.4,0-0.9,0.1-1.4c0.1-0.5,0.2-1,0.3-1.4c0.1-0.5,0.2-0.9,0.3-1.4
				c0.1-0.5,0.1-0.9,0.1-1.2c0-0.2,0-0.4-0.1-0.6c0-0.1-0.1-0.2-0.2-0.3c-0.1-0.1-0.2-0.1-0.3-0.2c-0.1,0-0.2,0-0.3,0
				c-0.1,0-0.2,0-0.3,0c-0.1,0-0.2,0-0.3,0c-0.1,0-0.2,0-0.3,0c-0.1,0-0.2,0-0.3-0.1c-0.1,0-0.2-0.1-0.2-0.2
				c-0.1-0.1-0.1-0.2-0.2-0.3c-0.1-0.1-0.1-0.2-0.2-0.2c-0.1-0.1-0.2-0.1-0.4-0.1c-0.5,0-1.1,0.1-1.6,0.3c-0.5,0.2-1,0.5-1.5,0.9
				c-0.5,0.4-0.9,0.8-1.3,1.4c-0.4,0.5-0.7,1.1-1,1.7c-0.3,0.6-0.5,1.2-0.7,1.8c0,0.1,0,0.2-0.1,0.3c-0.1,0.2-0.2,0.3-0.4,0.5
				c-0.2,0.2-0.4,0.4-0.6,0.6c-0.2,0.2-0.4,0.4-0.6,0.5c-0.2,0.2-0.4,0.3-0.6,0.4c-0.2,0.1-0.4,0.1-0.6,0.1c-0.3,0-0.6-0.1-0.7-0.3
				c-0.2-0.2-0.2-0.5-0.2-1c0-0.4,0-0.8,0.1-1.3c0.1-0.5,0.2-1,0.3-1.6c0.1-0.6,0.3-1.2,0.4-1.9c0.2-0.7,0.3-1.3,0.4-2
				c0.1-0.7,0.2-1.4,0.3-2.1c0.1-0.7,0.1-1.4,0.1-2c0-0.7-0.1-1.4-0.2-2c-0.1-0.6-0.3-1.2-0.6-1.7c-0.2-0.5-0.6-0.9-0.9-1.1
				c-0.4-0.3-0.8-0.4-1.3-0.4c-0.7,0-1.3,0.2-2,0.5c-0.6,0.3-1.2,0.8-1.8,1.5c-0.5,0.6-1,1.4-1.5,2.3c-0.4,0.9-0.8,1.9-1.1,3.1
				l-0.2,0c0.1-0.5,0.1-1,0.2-1.5c0-0.2,0-0.4,0.1-0.6c0-0.2,0.1-0.4,0.1-0.6c0-0.2,0-0.3,0-0.5c0-0.1,0-0.2,0-0.3
				c0-0.7-0.1-1.3-0.2-1.8c-0.1-0.5-0.3-0.9-0.5-1.2c-0.2-0.3-0.5-0.6-0.8-0.7c-0.3-0.2-0.6-0.2-1-0.2c-0.5,0-1,0.1-1.5,0.4
				c-0.5,0.3-1,0.6-1.4,1.1c-0.5,0.5-0.9,1.1-1.4,1.7c-0.4,0.7-0.9,1.4-1.3,2.2c-0.4,0.8-0.8,1.7-1.1,2.7c-0.3,0.9-0.6,1.9-0.9,3
				c0.1-0.6,0.2-1.2,0.4-1.8c0.1-0.6,0.2-1.3,0.3-1.9c0.1-0.6,0.2-1.2,0.3-1.8c0.1-0.6,0.1-1.1,0.1-1.5c0-0.6,0-1.1-0.1-1.5
				c-0.1-0.5-0.2-0.9-0.4-1.2c-0.2-0.3-0.4-0.6-0.8-0.8c-0.3-0.2-0.7-0.3-1.2-0.3c-0.4,0-0.8,0.1-1.2,0.2c-0.4,0.2-0.8,0.4-1.2,0.8
				c-0.4,0.4-0.8,0.9-1.1,1.5c-0.4,0.6-0.7,1.4-0.9,2.3c0,0,0,0.1,0,0.1c0,0.1,0,0.2,0,0.3c0,0.1,0.1,0.2,0.1,0.3
				c0,0.1,0.1,0.2,0.1,0.2c0,0.1,0.1,0.1,0.1,0.1c0.1,0,0.2,0,0.3-0.1c0.1-0.1,0.2-0.1,0.2-0.2c0.2-0.3,0.5-0.6,0.8-0.9
				c0.3-0.3,0.6-0.5,0.9-0.8c0.3-0.2,0.6-0.4,0.8-0.5c0.3-0.1,0.5-0.2,0.7-0.2c0.1,0,0.2,0,0.3,0.1c0.1,0.1,0.3,0.2,0.4,0.2
				c0,0.1,0.3,0.2,0.3,0.3c0,0.1,0,0.2,0,0.3c-1,0.8-0.4,1.6-0.4,2.3c-0.1,0.7-0.2,1.4-0.3,2c-0.1,0.7-0.2,1.3-0.3,2
				c-0.1,0.7-0.2,1.3-0.3,2c-0.1,0.7-0.3,1.4-0.4,2.2c-0.2,0.8-0.4,1.6-0.6,2.5c-0.1,0.3-0.1,0.5-0.1,0.8c0,0.3,0,0.6,0,0.9
				c0,0.2,0,0.3,0.1,0.4c0.1,0.1,0.2,0.2,0.3,0.3c0.1,0.1,0.3,0.2,0.5,0.2c0.2,0,0.4,0.1,0.6,0.1c0.2,0,0.3,0,0.5-0.1
				c0.2,0,0.4-0.1,0.5-0.2c0.2-0.1,0.3-0.2,0.4-0.3c0.1-0.1,0.2-0.3,0.2-0.6c0.1-0.7,0.3-1.5,0.5-2.4c0.2-0.8,0.4-1.7,0.7-2.6
				c0.3-0.9,0.6-1.8,0.9-2.7c0.3-0.9,0.6-1.7,1-2.5c0.3-0.8,0.7-1.6,1-2.3c0.3-0.7,0.7-1.3,1-1.8c0.3-0.5,0.6-0.9,0.9-1.2
				c0.3-0.3,0.5-0.4,0.7-0.4c0.3,0,0.5,0.1,0.6,0.2c0.2,0.1,0.3,0.3,0.4,0.6c0.1,0.3,0.1,0.6,0.2,1c0,0.4,0,0.8,0,1.3
				c0,0.7,0,1.5-0.1,2.3c-0.1,0.8-0.2,1.7-0.4,2.5c-0.1,0.8-0.3,1.7-0.5,2.5c-0.2,0.8-0.3,1.6-0.5,2.3c-0.1,0.7-0.3,1.3-0.4,1.8
				c-0.1,0.5-0.1,0.8-0.1,1c0,0.3,0,0.6,0.1,0.8c0.1,0.2,0.2,0.4,0.3,0.5c0.1,0.1,0.3,0.2,0.4,0.3c0.2,0.1,0.3,0.1,0.5,0.1
				c0.2,0,0.4,0,0.6-0.1c0.2,0,0.4-0.1,0.5-0.2c0.2-0.1,0.3-0.2,0.4-0.4c0.1-0.2,0.2-0.3,0.3-0.6c0.1-0.8,0.3-1.6,0.5-2.5
				c0.2-0.9,0.3-1.7,0.5-2.6c0.2-0.9,0.4-1.8,0.6-2.7c0.2-0.9,0.5-1.7,0.7-2.5c0.3-0.8,0.5-1.5,0.8-2.2c0.3-0.7,0.6-1.3,0.9-1.8
				c0.3-0.5,0.7-0.9,1-1.2c0.4-0.3,0.8-0.4,1.2-0.4c0.2,0,0.4,0.1,0.5,0.2c0.1,0.1,0.2,0.3,0.3,0.5c0.1,0.2,0.1,0.4,0.1,0.7
				c0,0.3,0,0.6,0,0.9c0,0.6,0,1.2-0.1,1.8c-0.1,0.6-0.2,1.3-0.3,1.9c-0.1,0.6-0.2,1.3-0.4,1.9c-0.1,0.6-0.3,1.3-0.4,1.9
				c-0.1,0.6-0.2,1.2-0.3,1.8c-0.1,0.6-0.2,1.1-0.2,1.7c0,0.1,0,0.1,0,0.2c0,0.1,0,0.1,0,0.2c0,0.6,0.1,1.1,0.3,1.5
				c0.2,0.4,0.4,0.8,0.7,1.1c0.3,0.3,0.7,0.5,1.1,0.7c0.4,0.1,0.8,0.2,1.2,0.2c0.4,0,0.9-0.1,1.3-0.2c0.4-0.1,0.9-0.3,1.3-0.6
				c0.3-0.2,0.6-0.5,0.9-0.8c0.1,0.3,0.3,0.6,0.5,0.8c0.3,0.3,0.6,0.5,0.9,0.7c0.4,0.2,0.7,0.2,1.1,0.2c0.3,0,0.7-0.1,1-0.2
				c0.3-0.1,0.7-0.3,1-0.4c0.3-0.2,0.6-0.4,0.9-0.6C163.7,51.9,163.9,51.7,164.1,51.4z M184,47.2c0-0.2,0-0.5,0.1-0.7
				c0.1-0.3,0.1-0.5,0.2-0.8c0.1-0.3,0.2-0.5,0.4-0.7c0.2-0.2,0.4-0.4,0.6-0.5c0.2-0.1,0.5-0.2,0.9-0.2c0.2,0,0.3,0.1,0.5,0.3
				c0.1,0.2,0.2,0.5,0.2,0.9c0,0.2-0.1,0.5-0.3,0.8c-0.2,0.3-0.4,0.5-0.7,0.7c-0.3,0.2-0.6,0.4-0.9,0.6c-0.3,0.1-0.6,0.2-0.9,0.2
				C183.9,47.7,183.9,47.5,184,47.2z M177,44.4c0-0.1,0-0.3,0-0.5c0-0.2,0-0.5,0-0.8c0-0.3,0-0.6,0-1c0-0.4,0-0.7,0.1-1.1
				c0-0.2,0-0.5,0.1-0.9c0-0.4,0.1-0.9,0.2-1.5c0.1-0.5,0.2-1.1,0.3-1.7c0.1-0.6,0.3-1.1,0.4-1.6c0.2-0.5,0.3-0.9,0.5-1.2
				c0.2-0.3,0.4-0.5,0.7-0.5c0.1,0,0.2,0.1,0.3,0.2c0.1,0.2,0.1,0.5,0.1,0.9c0,0.3,0,0.7-0.1,1.3c0,0.4-0.1,0.8-0.2,1.3
				c-0.1,0.5-0.2,0.9-0.3,1.4c-0.1,0.5-0.3,0.9-0.4,1.4c-0.2,0.5-0.3,0.9-0.5,1.3c-0.4,1-1.2,2-1.2,3V44.4z M171.3,48.3
				c0.1-0.5,0.3-1,0.6-1.4c0.3-0.5,0.6-0.9,1-1.3c0.4-0.4,0.9-0.7,1.4-1c0,0,0,0.1,0,0.2c0,0.2,0,0.4,0,0.6c0,0.3,0,0.5,0,0.8
				c0,0.3,0,0.6,0,0.9c0,0.3,0,0.6,0,0.8c0,0.2,0,0.4,0.1,0.5c-0.2,0.4-0.4,0.9-0.6,1.2c-0.1,0.2-0.2,0.3-0.3,0.4
				c-0.1,0.1-0.2,0.3-0.4,0.4c-0.1,0.1-0.3,0.2-0.4,0.3c-0.1,0.1-0.3,0.1-0.4,0.1c-0.3,0-0.5,0-0.7-0.1c-0.2-0.1-0.3-0.2-0.4-0.3
				c-0.1-0.1-0.2-0.3-0.2-0.4c0-0.2-0.1-0.3-0.1-0.5C171,49.2,171.1,48.7,171.3,48.3z M162.9,49.8c-0.2,0.3-0.4,0.6-0.6,0.9
				c-0.2,0.2-0.5,0.4-0.8,0.4c-0.2,0-0.3,0-0.4-0.1c-0.1-0.1-0.2-0.2-0.3-0.3c-0.1-0.1-0.1-0.3-0.1-0.5c0-0.2,0-0.4,0-0.6
				c0-0.3,0-0.7,0.1-1.1c0.1-0.4,0.2-0.8,0.4-1.2c0.2-0.4,0.4-0.7,0.6-1.1c0.2-0.3,0.5-0.7,0.7-0.9c0.3-0.3,0.6-0.5,0.9-0.6
				c0.3-0.2,0.6-0.2,0.9-0.2l-0.7,3.4c0,0.2-0.1,0.6-0.2,0.9C163.2,49.1,163,49.5,162.9,49.8z"/>
			<path fill="#404041" d="M153.7,80.7c2.7-0.6,4.5-1.5,5.5-2.7c0.9-1.2,1.4-3.2,1.4-6.2c0-4.4-0.7-7.5-2-9.5c-1.3-2-3-3.5-5.1-4.2
				c-2.1-0.6-5.3-1.2-9.4-1.2h-12v51h14.1c5.3,0,8.8-0.3,10.5-0.9c1.7-0.6,3.2-1.7,4-3.4c0.8-1.6,1.4-4.2,1.4-7.6v-4.7
				c0-3.3-0.8-5.7-1.9-7.3C159,82.5,156.7,81.4,153.7,80.7z M149,94.6c0,2-0.6,3.3-1.1,3.8c-0.5,0.5-1.9,0.8-3.9,0.9V85.2
				c2,0.1,3.5,0.3,4,0.8c0.5,0.5,1,1.8,1,3.9V94.6z M147.8,76.4c-0.4,0.6-1.2,0.9-2.5,0.9c-0.3,0-0.3,0-1.3,0V66.2
				c2,0,2.3,0.1,2.7,0.3c0.5,0.2,0.9,0.6,1.1,1.2c0.3,0.6,0.4,1.7,0.4,3.3C148.3,74,148.2,75.8,147.8,76.4z"/>
			<path fill="#404041" d="M169.9,57l-6.7,51h13.5l0.8-9h4.7l0.7,9h13.4l-7.5-51H169.9z M177.3,90c0.3-5,1.2-11.5,2.5-21.2
				c0.7,8.4,1.3,15.2,2,21.2H177.3z"/>
			<path fill="#404041" d="M198.8,53.3c0.4,0,0.9-0.1,1.4-0.2c0.5-0.2,1-0.4,1.5-0.6c0.5-0.2,0.9-0.5,1.3-0.8
				c0.1-0.1,0.2-0.1,0.2-0.2c0,0.1,0,0.2,0,0.3c0,0.3,0.1,0.5,0.2,0.8c0.1,0.2,0.3,0.4,0.4,0.5c0.2,0.1,0.4,0.2,0.8,0.2
				c0.3,0,0.5-0.1,0.7-0.2c0.2-0.1,0.4-0.1,0.5-0.4l3-5.8h0.2c-0.1,0-0.2,0.9-0.2,1.5c-0.1,0.5-0.1,0.9-0.1,1.4c0,1.2,0.1,2,0.4,2.6
				c0.3,0.6,0.6,0.9,1.1,0.9c0.4,0,0.8-0.1,1.2-0.2c0.4-0.1,0.8-0.3,1.1-0.5c0.4-0.2,0.7-0.4,1-0.6c0.3-0.2,0.7-0.5,1-0.7l0.6-0.4
				l-0.2-2.6c-0.4,0.5-0.9,0.9-1.3,1.2c-0.2,0.2-0.4,0.3-0.5,0.5c-0.2,0.1-0.4,0.3-0.5,0.4c-0.2,0.1-0.3,0.2-0.5,0.3
				c-0.2,0.1-0.3,0.1-0.4,0.1c-0.3,0-0.4-0.2-0.6-0.5c-0.1-0.3-0.2-0.7-0.2-1.2c0-0.3,0-0.6,0.1-0.9c0-0.3,0.1-0.7,0.1-1
				c0.1-0.3,0.1-0.7,0.2-1c0.1-0.3,0.1-0.6,0.2-0.9c0.1-0.3,0.1-0.5,0.1-0.7c0-0.2,0.1-0.3,0.1-0.4c0-0.6-0.1-1-0.3-1.3
				c-0.2-0.3-0.5-0.5-0.9-0.5c-0.4,0-0.7,0.1-1.1,0.2c-0.3,0.2-0.6,0.4-0.8,0.9c-0.1,0.1-0.1,0.2-0.2,0.4c-0.1,0.2-0.2,0.4-0.4,0.7
				c-0.1,0.3-0.3,0.5-0.4,0.8c-0.2,0.3-0.3,0.5-0.4,0.8c-0.1,0.2-0.2,0.5-0.3,0.7c-0.1,0.2-0.2,0.4-0.2,0.4h-0.2c0,0,0-0.2,0-0.3
				c0-0.2,0.1-0.3,0.1-0.6c0-0.2,0.1-0.4,0.1-0.7c0-0.3,0.1-0.5,0.1-0.7c0-0.2,0.1-0.5,0.1-0.7c0-0.2,0-0.4,0-0.5
				c0-0.4-0.1-0.8-0.2-1c-0.2-0.3-0.5-0.4-0.9-0.4s-0.7,0.1-1,0.4c-0.2,0.2-0.4,0.5-0.5,0.9c-0.1,0.5-0.2,1-0.3,1.6
				c-0.1,0.6-0.2,1.3-0.3,2c-0.1,0.7-0.2,1.4-0.2,2c-0.1,0-0.1,0.1-0.2,0.1c-0.3,0.3-0.7,0.6-1,0.9c-0.3,0.3-0.7,0.5-1,0.7
				c-0.3,0.2-0.7,0.3-0.9,0.3c-0.2,0-0.4-0.1-0.5-0.3c-0.1-0.2-0.1-0.5-0.1-0.8c0-0.4,0-0.8,0.1-1.2c0.1-0.4,0.2-0.9,0.3-1.4
				c0.1-0.5,0.2-0.9,0.4-1.4c0.1-0.5,0.3-0.9,0.4-1.3c0.1-0.4,0.2-0.8,0.3-1.1c0.1-0.3,0.1-0.6,0.1-0.7c0-0.2-0.1-0.4-0.2-0.5
				c-0.1-0.1-0.3-0.2-0.7-0.2c-0.2,0-0.4,0-0.6,0.1c-0.2,0-0.4,0.1-0.6,0.2c-0.2,0.1-0.4,0.2-0.6,0.3c-0.2,0.1-0.3,0.3-0.3,0.5
				c-0.1,0.6-0.3,1.2-0.5,1.9s-0.4,1.4-0.5,2.1c-0.2,0.7-0.3,1.4-0.4,2c-0.1,0.6-0.2,1.2-0.2,1.7c0,0.3,0,0.7,0.1,1
				c0.1,0.3,0.2,0.5,0.4,0.7c0.2,0.2,0.4,0.4,0.7,0.5C198.1,53.2,198.4,53.3,198.8,53.3z"/>
		</g>
		<g>
			<path fill="#404041" d="M75,29.2c-22.9-4-44.8,11.3-48.8,34.2s11.3,44.8,34.2,48.8c22.9,4,44.8-11.3,48.8-34.2S97.8,33.2,75,29.2
				z M90.4,102.6c0-3.5-0.2-14.5-0.2-14.5l-33.8-6c0,0-7.5,21.8-7.8,22.9C34.4,97.1,26,80.8,29,63.9c1.1-6.5,3.8-12.3,7.6-17.2
				c0.8,1.9,3.6,5.6,7.2,7.2c3.8,1.6,7.3,2.6,11.2,1c4.1-1.7,7.1-6.1,7-10.6c-0.1-4.5-3.2-7.5-7.5-7.4c-2.1,0.1-4.1,1.8-4.2,3.7
				c0.5,0.1,2.4-0.1,2.9,1.8c0.2,0.9,0,1.6-0.8,2.2c-1.2,0.9-2.9,0.4-3.8-1.1c-1.2-2.2-0.4-5.1,1.2-6.9c1.7-2,5.6-4.4,10.6-2.1
				c11.1,5.1,4.8,21.9,3.5,26.7c9.3,1.6,18.5,3.3,27.9,4.9c0.6-5,0.6-20.7-1.9-27.6c12.2,8.4,19.1,23.5,16.4,39.1
				C104.4,88,98.5,96.9,90.4,102.6z M111.2,86.7c1.1-2.9,5.7-4.9,6.2-8.1c0.6-3.2-3-6.6-3.1-9.7c-0.1-3.2,3.3-6.8,2.7-9.8
				c-0.7-3.1-5.3-4.9-6.6-7.8c-1.3-2.9,0.5-7.5-1.3-10.1c-1.8-2.6-6.8-2.5-9-4.7c-2.3-2.2-2.4-7.1-5-8.8c-2.6-1.7-7.2,0.3-10.1-0.8
				c-2.9-1.1-4.9-5.7-8.1-6.2c-3.2-0.6-6.6,3-9.7,3.1c-3.2,0.1-6.8-3.3-9.8-2.7c-3.1,0.7-4.9,5.3-7.8,6.6c-2.9,1.3-7.5-0.5-10.1,1.3
				c-2.6,1.8-2.5,6.8-4.7,9c-2.2,2.3-7.1,2.4-8.8,5c-1.7,2.6,0.3,7.2-0.8,10.1c-1.1,2.9-5.7,4.9-6.2,8.1c-0.6,3.2,3,6.6,3.1,9.7
				c0.1,3.2-3.3,6.8-2.7,9.8c0.7,3.1,5.3,4.9,6.6,7.8c1.3,2.9-0.5,7.5,1.3,10.1c1.8,2.6,6.8,2.5,9,4.7c2.3,2.2,2.4,7.1,5,8.8
				c2.6,1.7,7.2-0.3,10.1,0.8c2.9,1.1,4.9,5.7,8.1,6.2c3.2,0.6,6.6-3,9.7-3.1c3.2-0.1,6.8,3.3,9.8,2.7c3.1-0.7,4.9-5.3,7.8-6.6
				c2.9-1.3,7.5,0.5,10.1-1.3c2.6-1.8,2.5-6.8,4.7-9c2.2-2.3,7.1-2.4,8.8-5C112,94.2,110.1,89.7,111.2,86.7z M60.3,112.2
				c-22.9-4-38.2-25.9-34.2-48.8S52.1,25.2,75,29.2s38.2,25.9,34.2,48.8S83.2,116.3,60.3,112.2z M89.9,38.4
				c2.6,6.9,2.6,22.6,1.9,27.6c-9.3-1.6-18.6-3.3-27.9-4.9c1.3-4.8,7.5-21.7-3.5-26.7c-5-2.3-8.9,0.2-10.6,2.1
				c-1.6,1.9-2.4,4.8-1.2,6.9c0.8,1.5,2.5,2,3.8,1.1c0.8-0.6,1-1.3,0.8-2.2c-0.5-1.8-2.4-1.7-2.9-1.8c0.2-1.9,2.1-3.6,4.2-3.7
				c4.3-0.1,7.4,2.9,7.5,7.4c0.1,4.5-2.9,8.9-7,10.6c-3.9,1.6-7.4,0.6-11.2-1c-3.7-1.6-6.4-5.3-7.2-7.2c-3.8,4.9-6.4,10.7-7.6,17.2
				c-3,16.9,5.4,33.2,19.6,41.1c0.4-1.1,7.8-22.9,7.8-22.9l33.8,6c0,0,0.2,11.1,0.2,14.5c8.1-5.8,14-14.6,15.8-25.1
				C109,61.9,102.1,46.9,89.9,38.4z M60.3,112.2c-22.9-4-38.2-25.9-34.2-48.8S52.1,25.2,75,29.2s38.2,25.9,34.2,48.8
				S83.2,116.3,60.3,112.2z M89.9,38.4c2.6,6.9,2.6,22.6,1.9,27.6c-9.3-1.6-18.6-3.3-27.9-4.9c1.3-4.8,7.5-21.7-3.5-26.7
				c-5-2.3-8.9,0.2-10.6,2.1c-1.6,1.9-2.4,4.8-1.2,6.9c0.8,1.5,2.5,2,3.8,1.1c0.8-0.6,1-1.3,0.8-2.2c-0.5-1.8-2.4-1.7-2.9-1.8
				c0.2-1.9,2.1-3.6,4.2-3.7c4.3-0.1,7.4,2.9,7.5,7.4c0.1,4.5-2.9,8.9-7,10.6c-3.9,1.6-7.4,0.6-11.2-1c-3.7-1.6-6.4-5.3-7.2-7.2
				c-3.8,4.9-6.4,10.7-7.6,17.2c-3,16.9,5.4,33.2,19.6,41.1c0.4-1.1,7.8-22.9,7.8-22.9l33.8,6c0,0,0.2,11.1,0.2,14.5
				c8.1-5.8,14-14.6,15.8-25.1C109,61.9,102.1,46.9,89.9,38.4z M61.2,61.7l32.2,5.7c1.4,0.2,2.2,2,2,3.4c-0.2,1.4-1.6,2.8-3,2.5
				l-32.2-5.7c-1.4-0.2-2.2-2-2-3.4C58.4,62.8,59.8,61.4,61.2,61.7z M90.8,87.2l-34.2-6c-1.4-0.2-2.3-1.5-2.1-2.9
				c0.2-1.4,1.6-2.3,2.9-2l34.2,6c1.4,0.2,2.3,1.5,2.1,2.9C93.5,86.6,92.2,87.4,90.8,87.2z M100,79.2c-0.4,2.1-2.3,3.1-4.4,2.8
				l-41.8-7.4c-2.1-0.4-3.5-2-3.2-4.1c0.4-2.1,2.3-3.1,4.4-2.8l41.8,7.4C98.9,75.4,100.4,77.1,100,79.2z"/>
		</g>
	</g>
</g>
</svg>
