<?xml version="1.0" encoding="utf-8"?>
<!-- Generator: Adobe Illustrator 17.1.0, SVG Export Plug-In . SVG Version: 6.00 Build 0)  -->
<!DOCTYPE svg PUBLIC "-//W3C//DTD SVG 1.1//EN" "http://www.w3.org/Graphics/SVG/1.1/DTD/svg11.dtd">
<svg version="1.1" xmlns="http://www.w3.org/2000/svg" xmlns:xlink="http://www.w3.org/1999/xlink" x="0px" y="0px"
	 viewBox="0 0 300 300" enable-background="new 0 0 300 300" xml:space="preserve">
<g id="bg">
	<rect fill-rule="evenodd" clip-rule="evenodd" fill="#404041" width="300" height="300"/>
</g>
<g id="Layer_1" display="none">
	<g display="inline">
		<g>
			<polygon fill="#F2F2F2" points="218,260 218,219 205,219 205,270 226,270 226,260 			"/>
			<path fill="#F2F2F2" d="M160.2,237.5c-2.1-1.2-3.3-2.3-3.7-3.1c-0.5-0.9-0.7-2.1-0.7-3.8c0-1.3,0.2-2.3,0.6-3c0.4-0.7,1-1,1.8-1
				c0.7,0,1.1,0.2,1.5,0.7c0.3,0.5,0.4,1.6,0.4,3.4v3.3h12v-1.5c0-4.1-0.1-6.9-0.9-8.6c-0.8-1.7-2.3-3.1-4.7-4.2
				c-2.4-1.1-5.3-1.7-8.7-1.7c-3.2,0-5.8,0.5-8,1.5c-2.2,1-3.8,2.4-4.8,4.2c-1,1.8-1.5,4.7-1.5,8.6c0,2.7,0.4,4.9,1.1,6.7
				c0.7,1.7,1.6,3.1,2.7,4.1c1.1,1,3.3,2.6,6.6,4.8c3.3,2.2,5.4,3.7,6.2,4.6c0.8,0.9,1.2,2.9,1.2,5.9c0,1.4-0.2,2.4-0.6,3.1
				c-0.4,0.7-1.1,1-2,1s-1.5-0.3-1.9-0.8c-0.3-0.5-0.6-1.8-0.6-3.7v-6h-12v3.1c0,3.8,0.3,6.8,1,8.9c0.8,2.1,2.4,3.8,4.9,5.1
				c2.5,1.3,5.5,2,9.1,2c3.2,0,6.1-0.6,8.5-1.7c2.4-1.2,4.1-2.6,4.9-4.3c0.9-1.7,1.3-4.4,1.3-8c0-5-0.8-8.6-2.3-10.9
				C169.8,243.9,166.1,241,160.2,237.5z"/>
			<polygon fill="#F2F2F2" points="191,249 199,249 199,239 191,239 191,229 200,229 200,219 178,219 178,270 201,270 201,260 
				191,260 			"/>
			<path fill="#F2F2F2" d="M99,242.5c2.8-0.6,4.6-1.5,5.5-2.7c0.9-1.2,1.4-3.3,1.4-6.2c0-4.4-0.7-7.6-2-9.6c-1.3-2-3.1-3.3-5.2-4
				c-2.2-0.7-5.3-1-9.5-1H76v51h15.4c5.3,0,8.9-0.3,10.6-0.9c1.7-0.6,3-1.7,3.8-3.4c0.8-1.7,1.2-4.2,1.2-7.6v-4.7
				c0-3.3-0.6-5.8-1.7-7.4C104.2,244.3,102.1,243.2,99,242.5z M94,256.6c0,2.1-0.6,3.4-1.1,3.9c-0.5,0.5-1.9,0.8-3.9,0.9v-14.3
				c2,0.1,3.5,0.3,4,0.8c0.5,0.5,1,1.8,1,4V256.6z M93.1,238.1c-0.4,0.6-1.3,1-2.6,1c-0.3,0-0.5,0-1.5,0v-11.3c2,0,2.4,0.1,2.9,0.3
				c0.5,0.2,0.9,0.6,1.2,1.2c0.3,0.6,0.5,1.8,0.5,3.4C93.6,235.6,93.5,237.5,93.1,238.1z"/>
			<path fill="#F2F2F2" d="M115.4,219l-6.8,51h13.7l0.8-9h4.7l0.7,9h13.6l-7.6-51H115.4z M123,252c0.3-5,1.2-11.7,2.5-21.4
				c0.7,8.5,1.3,15.4,2,21.4H123z"/>
		</g>
		<g>
			<path fill="#F2F2F2" d="M177.3,198.9c0.4,0,0.7-0.1,1-0.2c0.3-0.1,0.5-0.3,0.7-0.5c0.2-0.2,0.3-0.4,0.4-0.7
				c0.1-0.3,0.1-0.5,0.1-0.8c0-0.3-0.1-0.5-0.2-0.8c-0.1-0.2-0.2-0.4-0.4-0.5c-0.2-0.1-0.4-0.2-0.6-0.3c-0.2-0.1-0.5-0.1-0.8-0.1
				c-0.4,0-0.8,0.1-1.1,0.2c-0.3,0.1-0.5,0.3-0.7,0.5c-0.2,0.2-0.3,0.4-0.4,0.6c-0.1,0.2-0.1,0.4-0.1,0.6c0,0.5,0.2,1,0.5,1.3
				C176.1,198.8,176.6,198.9,177.3,198.9z"/>
			<path fill="#F2F2F2" d="M140,209.8c0.3,0.6,0.5,1.1,0.9,1.5c0.3,0.3,0.8,0.5,1.3,0.5c0.4,0,0.9-0.1,1.3-0.3
				c0.4-0.2,0.8-0.5,1.2-0.8c0.1-0.1,0.1-0.1,0.2-0.2c0,0,0,0,0,0c0.2,0.4,0.6,0.7,0.9,0.9c0.4,0.2,0.8,0.3,1.3,0.3
				c0.4,0,0.7-0.1,1.1-0.2c0.4-0.1,0.7-0.3,1.1-0.5c0.3-0.2,0.7-0.4,1-0.7c0.3-0.3,0.6-0.5,0.9-0.8c0.2,0.5,0.4,0.8,0.7,1.1
				c0.3,0.3,0.5,0.5,0.8,0.6c0.3,0.1,0.5,0.2,0.7,0.3c0.2,0,0.4,0.1,0.5,0.1c0.2,0,0.4,0,0.6-0.1c0.2-0.1,0.5-0.2,0.7-0.3
				c0.2-0.1,0.5-0.2,0.7-0.4c0.3-0.1,0.5-0.3,0.7-0.4c0.4-0.3,0.8-0.6,1.3-0.9c0.1,0.2,0.2,0.4,0.4,0.6c0.4,0.5,0.8,0.8,1.4,1.1
				c0.6,0.3,1.2,0.4,1.9,0.4c0.5,0,0.9-0.1,1.4-0.2c0.5-0.1,0.9-0.2,1.3-0.4c0.4-0.2,0.8-0.4,1.2-0.6c0.4-0.2,0.8-0.5,1.1-0.7
				c0.8-0.5,1.5-1.2,2.2-1.9l-1.5-1.6c-0.3,0.3-0.7,0.6-1.1,0.9c-0.4,0.3-0.9,0.6-1.4,0.9c-0.5,0.3-1,0.5-1.5,0.7
				c-0.5,0.2-1,0.3-1.5,0.3c-0.1,0-0.3,0-0.4,0c-0.1,0-0.3-0.1-0.4-0.2c-0.1-0.1-0.2-0.2-0.3-0.3c-0.1-0.1-0.2-0.3-0.3-0.5
				c0.7-0.2,1.3-0.5,1.9-0.8c0.6-0.3,1.1-0.7,1.5-1.2c0.4-0.4,0.8-0.9,1-1.4s0.4-1,0.4-1.5c0-0.4-0.1-0.9-0.2-1.2
				c-0.2-0.4-0.4-0.7-0.7-0.9c-0.3-0.3-0.6-0.5-1-0.6s-0.8-0.2-1.2-0.2c-0.5,0-1,0.1-1.5,0.3c-0.4,0.2-0.8,0.5-1.2,0.8
				c-0.4,0.3-0.7,0.7-0.9,1.1c-0.3,0.4-0.5,0.9-0.7,1.3c-0.2,0.5-0.3,1-0.4,1.4c-0.1,0.5-0.1,1-0.1,1.4c0,0.2,0,0.3,0,0.5
				c-0.2,0.2-0.4,0.3-0.6,0.5c-0.2,0.1-0.4,0.3-0.6,0.4c-0.2,0.1-0.4,0.2-0.6,0.3c-0.2,0.1-0.4,0.2-0.6,0.2
				c-0.2,0.1-0.3,0.1-0.5,0.1c-0.2,0-0.3,0-0.4-0.1c-0.1-0.1-0.2-0.2-0.3-0.4c-0.1-0.2-0.1-0.3-0.1-0.5c0-0.2,0-0.4,0-0.6
				c0-0.2,0-0.4,0-0.6c0-0.2,0.1-0.4,0.1-0.6c0-0.2,0.1-0.4,0.1-0.5c0-0.2,0.1-0.3,0.1-0.4c0.4-1,0.8-1.9,1.3-2.9
				c0.4-0.9,0.8-1.8,1.2-2.8c0.4-0.9,0.7-1.9,1-2.9c0.3-1,0.5-2,0.6-3.1c0-0.3,0-0.6,0-0.8c0-0.4,0-0.9-0.1-1.3
				c-0.1-0.4-0.2-0.8-0.3-1.1c-0.2-0.3-0.4-0.6-0.6-0.8c-0.3-0.2-0.6-0.3-0.9-0.3c-0.5,0-1,0.2-1.5,0.5c-0.5,0.3-0.9,0.7-1.3,1.3
				c-0.4,0.5-0.8,1.2-1.1,2c-0.3,0.8-0.7,1.6-0.9,2.5c-0.3,0.9-0.5,1.8-0.6,2.8c-0.2,1-0.2,2-0.3,3c-0.6,0.1-1.2,0.2-1.7,0.4
				c-0.5,0.2-1,0.5-1.5,0.8c-0.4,0.3-0.8,0.7-1.2,1.1c-0.4,0.4-0.7,0.9-0.9,1.4c-0.2,0.5-0.4,1-0.6,1.5c-0.1,0.5-0.2,1-0.2,1.5
				c0,0.1,0,0.2,0,0.3c0,0,0,0,0,0c-0.2,0.2-0.4,0.3-0.6,0.5c-0.2,0.1-0.4,0.2-0.5,0.3c-0.2,0.1-0.4,0.1-0.5,0.1
				c-0.2,0-0.4-0.1-0.4-0.3s-0.1-0.5-0.1-0.9c0-0.4,0-0.9,0.1-1.4c0.1-0.5,0.2-1,0.3-1.4c0.1-0.5,0.2-1,0.3-1.4
				c0.1-0.5,0.1-0.9,0.1-1.3c0-0.2,0-0.4-0.1-0.6s-0.1-0.3-0.2-0.3c-0.1-0.1-0.2-0.1-0.3-0.2c-0.1,0-0.2,0-0.3,0c-0.1,0-0.2,0-0.3,0
				c-0.1,0-0.2,0-0.3,0c-0.1,0-0.2,0-0.3,0c-0.1,0-0.2,0-0.3-0.1c-0.1,0-0.2-0.1-0.2-0.2c-0.1-0.1-0.1-0.2-0.2-0.3
				c-0.1-0.1-0.2-0.2-0.3-0.2c-0.1-0.1-0.2-0.1-0.4-0.1c-0.5,0-1.1,0.1-1.6,0.3c-0.5,0.2-1,0.5-1.5,0.9c-0.5,0.4-0.9,0.9-1.3,1.4
				c-0.4,0.5-0.7,1.1-1,1.7c-0.3,0.6-0.5,1.2-0.7,1.8c0,0.1,0,0.2-0.1,0.3c-0.1,0.2-0.2,0.3-0.4,0.5c-0.2,0.2-0.4,0.4-0.6,0.6
				s-0.4,0.4-0.6,0.6c-0.2,0.2-0.4,0.3-0.6,0.4c-0.2,0.1-0.4,0.1-0.6,0.1c-0.3,0-0.6-0.1-0.7-0.3c-0.2-0.2-0.3-0.5-0.3-1
				c0-0.4,0-0.8,0.1-1.3c0.1-0.5,0.2-1.1,0.3-1.7c0.1-0.6,0.3-1.2,0.4-1.9c0.2-0.7,0.3-1.3,0.4-2c0.1-0.7,0.2-1.4,0.3-2.1
				c0.1-0.7,0.1-1.4,0.1-2.1c0-0.7-0.1-1.4-0.2-2.1c-0.1-0.6-0.3-1.2-0.6-1.7c-0.3-0.5-0.6-0.9-0.9-1.1c-0.4-0.3-0.8-0.4-1.3-0.4
				c-0.7,0-1.4,0.2-2,0.5c-0.6,0.3-1.2,0.8-1.8,1.5c-0.6,0.6-1.1,1.4-1.5,2.4c-0.4,0.9-0.8,2-1.1,3.1l-0.2,0
				c0.1-0.5,0.1-1.1,0.2-1.5c0-0.2,0-0.4,0.1-0.6c0-0.2,0.1-0.4,0.1-0.6c0-0.2,0-0.3,0-0.5c0-0.1,0-0.2,0-0.3c0-0.7-0.1-1.3-0.2-1.8
				c-0.1-0.5-0.3-0.9-0.5-1.2c-0.2-0.3-0.5-0.6-0.8-0.7c-0.3-0.2-0.6-0.2-1-0.2c-0.5,0-1,0.1-1.5,0.4c-0.5,0.3-1,0.6-1.5,1.1
				c-0.5,0.5-1,1.1-1.4,1.7c-0.5,0.7-0.9,1.4-1.3,2.3c-0.4,0.8-0.8,1.7-1.1,2.7c-0.3,1-0.6,2-0.9,3c0.1-0.6,0.2-1.2,0.4-1.8
				c0.1-0.7,0.2-1.3,0.3-1.9c0.1-0.6,0.2-1.3,0.3-1.9c0.1-0.6,0.1-1.1,0.1-1.5c0-0.6,0-1.1-0.1-1.6c-0.1-0.5-0.2-0.9-0.4-1.2
				c-0.2-0.3-0.4-0.6-0.8-0.8c-0.3-0.2-0.7-0.3-1.2-0.3c-0.4,0-0.8,0.1-1.2,0.2c-0.4,0.2-0.8,0.4-1.2,0.8c-0.4,0.4-0.8,0.9-1.1,1.5
				c-0.4,0.6-0.7,1.4-1,2.3c0,0,0,0.1,0,0.1c0,0.1,0,0.2,0,0.3c0,0.1,0.1,0.2,0.1,0.3c0,0.1,0.1,0.2,0.1,0.2c0,0.1,0.1,0.1,0.1,0.1
				c0.1,0,0.2,0,0.3-0.1c0.1-0.1,0.2-0.1,0.2-0.3c0.3-0.3,0.5-0.7,0.8-0.9c0.3-0.3,0.6-0.6,0.9-0.8c0.3-0.2,0.6-0.4,0.9-0.5
				c0.3-0.1,0.5-0.2,0.7-0.2c0.1,0,0.2,0,0.3,0.1c0.1,0.1,0.1,0.2,0.1,0.3c0,0.1,0,0.2,0,0.3c0,0.1,0,0.2,0,0.3
				c-1,0.8-0.1,1.6-0.2,2.3c-0.1,0.7-0.1,1.4-0.2,2.1c-0.1,0.7-0.1,1.3-0.2,2c-0.1,0.7-0.2,1.3-0.3,2.1c-0.1,0.7-0.3,1.5-0.4,2.2
				c-0.2,0.8-0.4,1.6-0.6,2.6c-0.1,0.3-0.1,0.5-0.1,0.8c0,0.3,0,0.6,0,0.9c0,0.2,0,0.3,0.1,0.4c0.1,0.1,0.2,0.2,0.4,0.3
				c0.1,0.1,0.3,0.2,0.5,0.2c0.2,0,0.4,0.1,0.6,0.1c0.2,0,0.4,0,0.5-0.1c0.2,0,0.4-0.1,0.5-0.2c0.2-0.1,0.3-0.2,0.4-0.4
				c0.1-0.1,0.2-0.3,0.2-0.6c0.1-0.8,0.3-1.6,0.5-2.4c0.2-0.9,0.4-1.7,0.7-2.6c0.3-0.9,0.6-1.8,0.9-2.7c0.3-0.9,0.6-1.8,1-2.6
				c0.3-0.8,0.7-1.6,1-2.3c0.3-0.7,0.7-1.3,1-1.9c0.3-0.5,0.6-0.9,0.9-1.2c0.3-0.3,0.5-0.4,0.8-0.4c0.3,0,0.5,0.1,0.6,0.2
				c0.2,0.1,0.3,0.3,0.4,0.6c0.1,0.3,0.1,0.6,0.2,1c0,0.4,0,0.8,0,1.3c0,0.7,0,1.5-0.1,2.3c-0.1,0.8-0.2,1.7-0.4,2.5
				c-0.1,0.9-0.3,1.7-0.5,2.5c-0.2,0.8-0.3,1.6-0.5,2.3c-0.1,0.7-0.3,1.3-0.4,1.8c-0.1,0.5-0.1,0.8-0.1,1.1c0,0.3,0,0.6,0.1,0.8
				c0.1,0.2,0.2,0.4,0.3,0.5c0.1,0.1,0.3,0.2,0.4,0.3c0.2,0.1,0.3,0.1,0.5,0.1c0.2,0,0.4,0,0.6-0.1c0.2,0,0.4-0.1,0.5-0.2
				c0.2-0.1,0.3-0.2,0.4-0.4c0.1-0.2,0.2-0.3,0.3-0.6c0.1-0.8,0.3-1.6,0.5-2.5c0.2-0.9,0.3-1.8,0.5-2.7c0.2-0.9,0.4-1.8,0.6-2.7
				c0.2-0.9,0.5-1.7,0.7-2.6c0.3-0.8,0.5-1.6,0.8-2.3c0.3-0.7,0.6-1.3,0.9-1.8c0.3-0.5,0.7-0.9,1-1.2c0.4-0.3,0.8-0.4,1.2-0.4
				c0.2,0,0.4,0.1,0.5,0.2c0.1,0.1,0.2,0.3,0.3,0.5c0.1,0.2,0.1,0.4,0.1,0.7c0,0.3,0,0.6,0,1c0,0.6,0,1.2-0.1,1.8
				c-0.1,0.6-0.2,1.3-0.3,1.9c-0.1,0.6-0.2,1.3-0.4,1.9c-0.1,0.7-0.3,1.3-0.4,1.9c-0.1,0.6-0.2,1.2-0.3,1.8
				c-0.1,0.6-0.2,1.2-0.2,1.7c0,0.1,0,0.1,0,0.2c0,0.1,0,0.1,0,0.2c0,0.6,0.1,1.1,0.3,1.5c0.2,0.4,0.4,0.8,0.8,1.1
				c0.3,0.3,0.7,0.5,1.1,0.7c0.4,0.1,0.8,0.2,1.2,0.2c0.4,0,0.9-0.1,1.3-0.2c0.4-0.1,0.9-0.4,1.3-0.7c0.3-0.2,0.6-0.5,0.9-0.8
				c0.1,0.3,0.3,0.6,0.5,0.8c0.3,0.3,0.6,0.5,0.9,0.7c0.4,0.2,0.7,0.2,1.1,0.2c0.4,0,0.7-0.1,1.1-0.2c0.4-0.1,0.7-0.3,1-0.5
				c0.3-0.2,0.6-0.4,0.9-0.6C139.6,210.3,139.8,210.1,140,209.8z M160.1,205.6c0-0.2,0-0.5,0.1-0.8c0.1-0.3,0.1-0.5,0.2-0.8
				s0.2-0.5,0.4-0.7c0.2-0.2,0.4-0.4,0.6-0.5c0.2-0.1,0.5-0.2,0.9-0.2c0.2,0,0.3,0.1,0.5,0.3c0.1,0.2,0.2,0.5,0.2,0.9
				c0,0.3-0.1,0.5-0.3,0.8c-0.2,0.3-0.4,0.5-0.7,0.7c-0.3,0.2-0.6,0.4-0.9,0.6c-0.3,0.1-0.6,0.2-0.9,0.2
				C160.1,206,160.1,205.8,160.1,205.6z M153,202.8c0-0.1,0-0.3,0-0.5c0-0.2,0-0.5,0-0.8c0-0.3,0-0.6,0.1-1c0-0.4,0.1-0.7,0.1-1.1
				c0-0.2,0.1-0.5,0.1-1c0-0.4,0.1-0.9,0.2-1.5c0.1-0.6,0.2-1.1,0.3-1.7c0.1-0.6,0.3-1.1,0.4-1.6c0.2-0.5,0.3-0.9,0.5-1.2
				c0.2-0.3,0.4-0.5,0.7-0.5c0.1,0,0.2,0.1,0.3,0.2c0.1,0.2,0.1,0.5,0.1,0.9c0,0.3,0,0.8-0.1,1.3c0,0.4-0.1,0.9-0.2,1.3
				s-0.2,0.9-0.3,1.4c-0.1,0.5-0.3,1-0.4,1.4c-0.2,0.5-0.4,0.9-0.5,1.4c-0.4,1-1.3,2-1.3,3V202.8z M147.2,206.6
				c0.1-0.5,0.3-1,0.6-1.4c0.3-0.5,0.6-0.9,1-1.3c0.4-0.4,0.9-0.7,1.4-1c0,0,0,0.1,0,0.2c0,0.2,0,0.4,0,0.6c0,0.3,0,0.5,0,0.9
				c0,0.3,0,0.6,0,0.9c0,0.3,0,0.6,0,0.8c0,0.2,0,0.4,0.1,0.5c-0.2,0.5-0.4,0.9-0.6,1.2c-0.1,0.2-0.2,0.3-0.3,0.5
				c-0.1,0.1-0.2,0.3-0.4,0.4c-0.1,0.1-0.3,0.2-0.4,0.3c-0.1,0.1-0.3,0.1-0.4,0.1c-0.3,0-0.5,0-0.7-0.1c-0.2-0.1-0.3-0.2-0.4-0.3
				c-0.1-0.1-0.2-0.3-0.2-0.4c0-0.2-0.1-0.3-0.1-0.5C147,207.5,147.1,207.1,147.2,206.6z M138.7,208.2c-0.2,0.4-0.4,0.7-0.6,0.9
				c-0.2,0.3-0.5,0.4-0.8,0.4c-0.2,0-0.3,0-0.4-0.1c-0.1-0.1-0.2-0.2-0.3-0.4c-0.1-0.1-0.1-0.3-0.1-0.5c0-0.2,0-0.4,0-0.6
				c0-0.3,0-0.7,0.1-1.1c0.1-0.4,0.2-0.8,0.4-1.2c0.2-0.4,0.4-0.8,0.6-1.1c0.2-0.4,0.5-0.7,0.7-0.9c0.3-0.3,0.6-0.5,0.9-0.7
				c0.3-0.2,0.6-0.2,0.9-0.2l-0.7,3.5c0,0.3-0.1,0.6-0.2,0.9C139,207.5,138.9,207.8,138.7,208.2z"/>
			<path fill="#F2F2F2" d="M175.1,211.7c0.5,0,0.9-0.1,1.4-0.2c0.5-0.2,1-0.4,1.5-0.6c0.5-0.2,0.9-0.5,1.4-0.8
				c0.1-0.1,0.2-0.1,0.3-0.2c0,0.1,0,0.2,0,0.3c0,0.3,0.1,0.6,0.2,0.8c0.1,0.2,0.3,0.4,0.5,0.6c0.2,0.1,0.5,0.2,0.8,0.2
				c0.3,0,0.5-0.1,0.7-0.2c0.2-0.1,0.4-0.2,0.5-0.6l3.1-6h0.2c-0.1,0-0.2,1.1-0.2,1.7c-0.1,0.5-0.1,1-0.1,1.5c0,1.2,0.1,2.1,0.4,2.7
				c0.3,0.6,0.7,0.9,1.1,0.9s0.8-0.1,1.2-0.2c0.4-0.1,0.8-0.3,1.1-0.5c0.4-0.2,0.7-0.4,1-0.7c0.3-0.2,0.7-0.5,1-0.7l0.6-0.4
				l-0.2-2.6c-0.5,0.5-0.9,0.9-1.3,1.2c-0.2,0.2-0.4,0.3-0.5,0.5c-0.2,0.1-0.4,0.3-0.5,0.4c-0.2,0.1-0.3,0.2-0.5,0.3
				c-0.2,0.1-0.3,0.1-0.4,0.1c-0.3,0-0.4-0.2-0.6-0.5c-0.1-0.3-0.2-0.7-0.2-1.2c0-0.3,0-0.6,0.1-1c0-0.3,0.1-0.7,0.1-1
				c0.1-0.4,0.1-0.7,0.2-1c0.1-0.3,0.1-0.6,0.2-0.9c0.1-0.3,0.1-0.5,0.1-0.7c0-0.2,0.1-0.3,0.1-0.4c0-0.6-0.1-1-0.3-1.4
				c-0.2-0.3-0.5-0.5-0.9-0.5s-0.7,0.1-1.1,0.2c-0.3,0.2-0.6,0.4-0.9,0.9c-0.1,0.1-0.1,0.2-0.2,0.4c-0.1,0.2-0.2,0.4-0.4,0.7
				c-0.1,0.3-0.3,0.5-0.4,0.8c-0.2,0.3-0.3,0.5-0.4,0.8c-0.1,0.3-0.3,0.3-0.4,0.5c-0.1,0.2-0.2,0.2-0.2,0.2h-0.2c0,0,0,0,0-0.2
				c0-0.2,0.1-0.3,0.1-0.5c0-0.2,0.1-0.4,0.1-0.7c0-0.3,0.1-0.5,0.1-0.7c0-0.2,0.1-0.4,0.1-0.6c0-0.2,0-0.4,0-0.5
				c0-0.4-0.1-0.8-0.2-1c-0.2-0.3-0.5-0.4-0.9-0.4s-0.8,0.1-1,0.4c-0.2,0.2-0.4,0.5-0.5,0.9c-0.1,0.5-0.2,1-0.3,1.7
				c-0.1,0.7-0.2,1.3-0.3,2c-0.1,0.7-0.2,1.4-0.2,2.1c-0.1,0-0.1,0.1-0.2,0.1c-0.3,0.3-0.7,0.6-1,0.9c-0.4,0.3-0.7,0.5-1,0.7
				c-0.3,0.2-0.7,0.3-0.9,0.3c-0.2,0-0.4-0.1-0.5-0.3c-0.1-0.2-0.1-0.5-0.1-0.8c0-0.4,0-0.8,0.1-1.2c0.1-0.5,0.2-0.9,0.3-1.4
				c0.1-0.5,0.2-0.9,0.4-1.4c0.1-0.5,0.3-0.9,0.4-1.3c0.1-0.4,0.2-0.8,0.3-1.1c0.1-0.3,0.1-0.6,0.1-0.7c0-0.2-0.1-0.4-0.2-0.5
				c-0.1-0.1-0.3-0.2-0.7-0.2c-0.2,0-0.4,0-0.6,0.1c-0.2,0-0.4,0.1-0.6,0.2c-0.2,0.1-0.4,0.2-0.6,0.4c-0.2,0.1-0.3,0.3-0.3,0.5
				c-0.1,0.6-0.3,1.2-0.5,1.9s-0.4,1.4-0.5,2.1c-0.2,0.7-0.3,1.4-0.4,2c-0.1,0.7-0.2,1.2-0.2,1.7c0,0.4,0,0.7,0.1,1
				c0.1,0.3,0.2,0.5,0.4,0.7c0.2,0.2,0.4,0.4,0.7,0.5S174.7,211.7,175.1,211.7z"/>
		</g>
		<g>
			<path fill="#F2F2F2" d="M149.1,28.9C107.7,28.9,74,62.6,74,104c0,41.4,33.7,75.1,75.1,75.1s75.1-33.7,75.1-75.1
				C224.3,62.6,190.5,28.9,149.1,28.9z M149.1,177.4c-40.5,0-73.4-32.9-73.4-73.4c0-40.5,32.9-73.4,73.4-73.4s73.4,32.9,73.4,73.4
				C222.5,144.5,189.6,177.4,149.1,177.4z"/>
			<path fill="#F2F2F2" d="M177.5,42.1c6.5,11,11.2,35.9,11.7,46.9c-16.5,0-32.9,0-49.3,0c0.8-9,6.4-39.6-14.2-44.9
				c-9.2-2.4-15.2,2.9-17.4,6.7c-2.2,3.7-2.7,8.9,0.1,12.2c1.9,2.3,4.9,2.6,6.8,0.8c1.1-1.2,1.3-2.6,0.7-4c-1.3-3-4.6-2.2-5.5-2.2
				c-0.3-3.3,2.5-6.9,6.2-7.6c7.4-1.5,13.6,2.8,15.1,10.4c1.5,7.7-2.2,16.1-8.8,20.3c-6.3,4-12.5,3.3-19.5,1.7
				c-6.8-1.6-12.6-7.1-14.6-10.1c-5,9.5-7.8,20.3-7.8,31.7c0,29.9,19.2,55.9,46,65.1c0.3-2,6.5-41.1,6.5-41.1h59.7
				c0,0,3.7,18.4,4.8,24.4c12.1-12.3,19.5-29.4,19.5-48C217.4,76.7,201,52.9,177.5,42.1z M135.3,90h56.9c2.5,0,4.4,3,4.4,5.5
				c0,2.5-2,5.5-4.4,5.5h-56.9c-2.5,0-4.4-3-4.4-5.5C130.9,93,132.9,90,135.3,90z M193.9,127h-60.5c-2.5,0-4.4-3-4.4-5.5
				s2-5.5,4.4-5.5h60.5c2.5,0,4.4,3,4.4,5.5S196.3,127,193.9,127z M200.5,115h-73.8c-3.7,0-6.7-2.8-6.7-6.5c0-3.7,3-6.5,6.7-6.5
				h73.8c3.7,0,6.7,2.8,6.7,6.5C207.2,112.2,204.2,115,200.5,115z"/>
		</g>
	</g>
	<g display="inline">
		<g>
			<polygon fill="#F2F2F2" points="218,260 218,219 205,219 205,270 226,270 226,260 			"/>
			<path fill="#F2F2F2" d="M160.2,237.5c-2.1-1.2-3.3-2.3-3.7-3.1c-0.5-0.9-0.7-2.1-0.7-3.8c0-1.3,0.2-2.3,0.6-3c0.4-0.7,1-1,1.8-1
				c0.7,0,1.1,0.2,1.5,0.7c0.3,0.5,0.4,1.6,0.4,3.4v3.3h12v-1.5c0-4.1-0.1-6.9-0.9-8.6c-0.8-1.7-2.3-3.1-4.7-4.2
				c-2.4-1.1-5.3-1.7-8.7-1.7c-3.2,0-5.8,0.5-8,1.5c-2.2,1-3.8,2.4-4.8,4.2c-1,1.8-1.5,4.7-1.5,8.6c0,2.7,0.4,4.9,1.1,6.7
				c0.7,1.7,1.6,3.1,2.7,4.1c1.1,1,3.3,2.6,6.6,4.8c3.3,2.2,5.4,3.7,6.2,4.6c0.8,0.9,1.2,2.9,1.2,5.9c0,1.4-0.2,2.4-0.6,3.1
				c-0.4,0.7-1.1,1-2,1s-1.5-0.3-1.9-0.8c-0.3-0.5-0.6-1.8-0.6-3.7v-6h-12v3.1c0,3.8,0.3,6.8,1,8.9c0.8,2.1,2.4,3.8,4.9,5.1
				c2.5,1.3,5.5,2,9.1,2c3.2,0,6.1-0.6,8.5-1.7c2.4-1.2,4.1-2.6,4.9-4.3c0.9-1.7,1.3-4.4,1.3-8c0-5-0.8-8.6-2.3-10.9
				C169.8,243.9,166.1,241,160.2,237.5z"/>
			<polygon fill="#F2F2F2" points="191,249 199,249 199,239 191,239 191,229 200,229 200,219 178,219 178,270 201,270 201,260 
				191,260 			"/>
			<path fill="#F2F2F2" d="M99,242.5c2.8-0.6,4.6-1.5,5.5-2.7c0.9-1.2,1.4-3.3,1.4-6.2c0-4.4-0.7-7.6-2-9.6c-1.3-2-3.1-3.3-5.2-4
				c-2.2-0.7-5.3-1-9.5-1H76v51h15.4c5.3,0,8.9-0.3,10.6-0.9c1.7-0.6,3-1.7,3.8-3.4c0.8-1.7,1.2-4.2,1.2-7.6v-4.7
				c0-3.3-0.6-5.8-1.7-7.4C104.2,244.3,102.1,243.2,99,242.5z M94,256.6c0,2.1-0.6,3.4-1.1,3.9c-0.5,0.5-1.9,0.8-3.9,0.9v-14.3
				c2,0.1,3.5,0.3,4,0.8c0.5,0.5,1,1.8,1,4V256.6z M93.1,238.1c-0.4,0.6-1.3,1-2.6,1c-0.3,0-0.5,0-1.5,0v-11.3c2,0,2.4,0.1,2.9,0.3
				c0.5,0.2,0.9,0.6,1.2,1.2c0.3,0.6,0.5,1.8,0.5,3.4C93.6,235.6,93.5,237.5,93.1,238.1z"/>
			<path fill="#F2F2F2" d="M115.4,219l-6.8,51h13.7l0.8-9h4.7l0.7,9h13.6l-7.6-51H115.4z M123,252c0.3-5,1.2-11.7,2.5-21.4
				c0.7,8.5,1.3,15.4,2,21.4H123z"/>
		</g>
		<g>
			<path fill="#F2F2F2" d="M177.3,198.9c0.4,0,0.7-0.1,1-0.2c0.3-0.1,0.5-0.3,0.7-0.5c0.2-0.2,0.3-0.4,0.4-0.7
				c0.1-0.3,0.1-0.5,0.1-0.8c0-0.3-0.1-0.5-0.2-0.8c-0.1-0.2-0.2-0.4-0.4-0.5c-0.2-0.1-0.4-0.2-0.6-0.3c-0.2-0.1-0.5-0.1-0.8-0.1
				c-0.4,0-0.8,0.1-1.1,0.2c-0.3,0.1-0.5,0.3-0.7,0.5c-0.2,0.2-0.3,0.4-0.4,0.6c-0.1,0.2-0.1,0.4-0.1,0.6c0,0.5,0.2,1,0.5,1.3
				C176.1,198.8,176.6,198.9,177.3,198.9z"/>
			<path fill="#F2F2F2" d="M140,209.8c0.3,0.6,0.5,1.1,0.9,1.5c0.3,0.3,0.8,0.5,1.3,0.5c0.4,0,0.9-0.1,1.3-0.3
				c0.4-0.2,0.8-0.5,1.2-0.8c0.1-0.1,0.1-0.1,0.2-0.2c0,0,0,0,0,0c0.2,0.4,0.6,0.7,0.9,0.9c0.4,0.2,0.8,0.3,1.3,0.3
				c0.4,0,0.7-0.1,1.1-0.2c0.4-0.1,0.7-0.3,1.1-0.5c0.3-0.2,0.7-0.4,1-0.7c0.3-0.3,0.6-0.5,0.9-0.8c0.2,0.5,0.4,0.8,0.7,1.1
				c0.3,0.3,0.5,0.5,0.8,0.6c0.3,0.1,0.5,0.2,0.7,0.3c0.2,0,0.4,0.1,0.5,0.1c0.2,0,0.4,0,0.6-0.1c0.2-0.1,0.5-0.2,0.7-0.3
				c0.2-0.1,0.5-0.2,0.7-0.4c0.3-0.1,0.5-0.3,0.7-0.4c0.4-0.3,0.8-0.6,1.3-0.9c0.1,0.2,0.2,0.4,0.4,0.6c0.4,0.5,0.8,0.8,1.4,1.1
				c0.6,0.3,1.2,0.4,1.9,0.4c0.5,0,0.9-0.1,1.4-0.2c0.5-0.1,0.9-0.2,1.3-0.4c0.4-0.2,0.8-0.4,1.2-0.6c0.4-0.2,0.8-0.5,1.1-0.7
				c0.8-0.5,1.5-1.2,2.2-1.9l-1.5-1.6c-0.3,0.3-0.7,0.6-1.1,0.9c-0.4,0.3-0.9,0.6-1.4,0.9c-0.5,0.3-1,0.5-1.5,0.7
				c-0.5,0.2-1,0.3-1.5,0.3c-0.1,0-0.3,0-0.4,0c-0.1,0-0.3-0.1-0.4-0.2c-0.1-0.1-0.2-0.2-0.3-0.3c-0.1-0.1-0.2-0.3-0.3-0.5
				c0.7-0.2,1.3-0.5,1.9-0.8c0.6-0.3,1.1-0.7,1.5-1.2c0.4-0.4,0.8-0.9,1-1.4s0.4-1,0.4-1.5c0-0.4-0.1-0.9-0.2-1.2
				c-0.2-0.4-0.4-0.7-0.7-0.9c-0.3-0.3-0.6-0.5-1-0.6s-0.8-0.2-1.2-0.2c-0.5,0-1,0.1-1.5,0.3c-0.4,0.2-0.8,0.5-1.2,0.8
				c-0.4,0.3-0.7,0.7-0.9,1.1c-0.3,0.4-0.5,0.9-0.7,1.3c-0.2,0.5-0.3,1-0.4,1.4c-0.1,0.5-0.1,1-0.1,1.4c0,0.2,0,0.3,0,0.5
				c-0.2,0.2-0.4,0.3-0.6,0.5c-0.2,0.1-0.4,0.3-0.6,0.4c-0.2,0.1-0.4,0.2-0.6,0.3c-0.2,0.1-0.4,0.2-0.6,0.2
				c-0.2,0.1-0.3,0.1-0.5,0.1c-0.2,0-0.3,0-0.4-0.1c-0.1-0.1-0.2-0.2-0.3-0.4c-0.1-0.2-0.1-0.3-0.1-0.5c0-0.2,0-0.4,0-0.6
				c0-0.2,0-0.4,0-0.6c0-0.2,0.1-0.4,0.1-0.6c0-0.2,0.1-0.4,0.1-0.5c0-0.2,0.1-0.3,0.1-0.4c0.4-1,0.8-1.9,1.3-2.9
				c0.4-0.9,0.8-1.8,1.2-2.8c0.4-0.9,0.7-1.9,1-2.9c0.3-1,0.5-2,0.6-3.1c0-0.3,0-0.6,0-0.8c0-0.4,0-0.9-0.1-1.3
				c-0.1-0.4-0.2-0.8-0.3-1.1c-0.2-0.3-0.4-0.6-0.6-0.8c-0.3-0.2-0.6-0.3-0.9-0.3c-0.5,0-1,0.2-1.5,0.5c-0.5,0.3-0.9,0.7-1.3,1.3
				c-0.4,0.5-0.8,1.2-1.1,2c-0.3,0.8-0.7,1.6-0.9,2.5c-0.3,0.9-0.5,1.8-0.6,2.8c-0.2,1-0.2,2-0.3,3c-0.6,0.1-1.2,0.2-1.7,0.4
				c-0.5,0.2-1,0.5-1.5,0.8c-0.4,0.3-0.8,0.7-1.2,1.1c-0.4,0.4-0.7,0.9-0.9,1.4c-0.2,0.5-0.4,1-0.6,1.5c-0.1,0.5-0.2,1-0.2,1.5
				c0,0.1,0,0.2,0,0.3c0,0,0,0,0,0c-0.2,0.2-0.4,0.3-0.6,0.5c-0.2,0.1-0.4,0.2-0.5,0.3c-0.2,0.1-0.4,0.1-0.5,0.1
				c-0.2,0-0.4-0.1-0.4-0.3s-0.1-0.5-0.1-0.9c0-0.4,0-0.9,0.1-1.4c0.1-0.5,0.2-1,0.3-1.4c0.1-0.5,0.2-1,0.3-1.4
				c0.1-0.5,0.1-0.9,0.1-1.3c0-0.2,0-0.4-0.1-0.6s-0.1-0.3-0.2-0.3c-0.1-0.1-0.2-0.1-0.3-0.2c-0.1,0-0.2,0-0.3,0c-0.1,0-0.2,0-0.3,0
				c-0.1,0-0.2,0-0.3,0c-0.1,0-0.2,0-0.3,0c-0.1,0-0.2,0-0.3-0.1c-0.1,0-0.2-0.1-0.2-0.2c-0.1-0.1-0.1-0.2-0.2-0.3
				c-0.1-0.1-0.2-0.2-0.3-0.2c-0.1-0.1-0.2-0.1-0.4-0.1c-0.5,0-1.1,0.1-1.6,0.3c-0.5,0.2-1,0.5-1.5,0.9c-0.5,0.4-0.9,0.9-1.3,1.4
				c-0.4,0.5-0.7,1.1-1,1.7c-0.3,0.6-0.5,1.2-0.7,1.8c0,0.1,0,0.2-0.1,0.3c-0.1,0.2-0.2,0.3-0.4,0.5c-0.2,0.2-0.4,0.4-0.6,0.6
				s-0.4,0.4-0.6,0.6c-0.2,0.2-0.4,0.3-0.6,0.4c-0.2,0.1-0.4,0.1-0.6,0.1c-0.3,0-0.6-0.1-0.7-0.3c-0.2-0.2-0.3-0.5-0.3-1
				c0-0.4,0-0.8,0.1-1.3c0.1-0.5,0.2-1.1,0.3-1.7c0.1-0.6,0.3-1.2,0.4-1.9c0.2-0.7,0.3-1.3,0.4-2c0.1-0.7,0.2-1.4,0.3-2.1
				c0.1-0.7,0.1-1.4,0.1-2.1c0-0.7-0.1-1.4-0.2-2.1c-0.1-0.6-0.3-1.2-0.6-1.7c-0.3-0.5-0.6-0.9-0.9-1.1c-0.4-0.3-0.8-0.4-1.3-0.4
				c-0.7,0-1.4,0.2-2,0.5c-0.6,0.3-1.2,0.8-1.8,1.5c-0.6,0.6-1.1,1.4-1.5,2.4c-0.4,0.9-0.8,2-1.1,3.1l-0.2,0
				c0.1-0.5,0.1-1.1,0.2-1.5c0-0.2,0-0.4,0.1-0.6c0-0.2,0.1-0.4,0.1-0.6c0-0.2,0-0.3,0-0.5c0-0.1,0-0.2,0-0.3c0-0.7-0.1-1.3-0.2-1.8
				c-0.1-0.5-0.3-0.9-0.5-1.2c-0.2-0.3-0.5-0.6-0.8-0.7c-0.3-0.2-0.6-0.2-1-0.2c-0.5,0-1,0.1-1.5,0.4c-0.5,0.3-1,0.6-1.5,1.1
				c-0.5,0.5-1,1.1-1.4,1.7c-0.5,0.7-0.9,1.4-1.3,2.3c-0.4,0.8-0.8,1.7-1.1,2.7c-0.3,1-0.6,2-0.9,3c0.1-0.6,0.2-1.2,0.4-1.8
				c0.1-0.7,0.2-1.3,0.3-1.9c0.1-0.6,0.2-1.3,0.3-1.9c0.1-0.6,0.1-1.1,0.1-1.5c0-0.6,0-1.1-0.1-1.6c-0.1-0.5-0.2-0.9-0.4-1.2
				c-0.2-0.3-0.4-0.6-0.8-0.8c-0.3-0.2-0.7-0.3-1.2-0.3c-0.4,0-0.8,0.1-1.2,0.2c-0.4,0.2-0.8,0.4-1.2,0.8c-0.4,0.4-0.8,0.9-1.1,1.5
				c-0.4,0.6-0.7,1.4-1,2.3c0,0,0,0.1,0,0.1c0,0.1,0,0.2,0,0.3c0,0.1,0.1,0.2,0.1,0.3c0,0.1,0.1,0.2,0.1,0.2c0,0.1,0.1,0.1,0.1,0.1
				c0.1,0,0.2,0,0.3-0.1c0.1-0.1,0.2-0.1,0.2-0.3c0.3-0.3,0.5-0.7,0.8-0.9c0.3-0.3,0.6-0.6,0.9-0.8c0.3-0.2,0.6-0.4,0.9-0.5
				c0.3-0.1,0.5-0.2,0.7-0.2c0.1,0,0.2,0,0.3,0.1c0.1,0.1,0.1,0.2,0.1,0.3c0,0.1,0,0.2,0,0.3c0,0.1,0,0.2,0,0.3
				c-1,0.8-0.1,1.6-0.2,2.3c-0.1,0.7-0.1,1.4-0.2,2.1c-0.1,0.7-0.1,1.3-0.2,2c-0.1,0.7-0.2,1.3-0.3,2.1c-0.1,0.7-0.3,1.5-0.4,2.2
				c-0.2,0.8-0.4,1.6-0.6,2.6c-0.1,0.3-0.1,0.5-0.1,0.8c0,0.3,0,0.6,0,0.9c0,0.2,0,0.3,0.1,0.4c0.1,0.1,0.2,0.2,0.4,0.3
				c0.1,0.1,0.3,0.2,0.5,0.2c0.2,0,0.4,0.1,0.6,0.1c0.2,0,0.4,0,0.5-0.1c0.2,0,0.4-0.1,0.5-0.2c0.2-0.1,0.3-0.2,0.4-0.4
				c0.1-0.1,0.2-0.3,0.2-0.6c0.1-0.8,0.3-1.6,0.5-2.4c0.2-0.9,0.4-1.7,0.7-2.6c0.3-0.9,0.6-1.8,0.9-2.7c0.3-0.9,0.6-1.8,1-2.6
				c0.3-0.8,0.7-1.6,1-2.3c0.3-0.7,0.7-1.3,1-1.9c0.3-0.5,0.6-0.9,0.9-1.2c0.3-0.3,0.5-0.4,0.8-0.4c0.3,0,0.5,0.1,0.6,0.2
				c0.2,0.1,0.3,0.3,0.4,0.6c0.1,0.3,0.1,0.6,0.2,1c0,0.4,0,0.8,0,1.3c0,0.7,0,1.5-0.1,2.3c-0.1,0.8-0.2,1.7-0.4,2.5
				c-0.1,0.9-0.3,1.7-0.5,2.5c-0.2,0.8-0.3,1.6-0.5,2.3c-0.1,0.7-0.3,1.3-0.4,1.8c-0.1,0.5-0.1,0.8-0.1,1.1c0,0.3,0,0.6,0.1,0.8
				c0.1,0.2,0.2,0.4,0.3,0.5c0.1,0.1,0.3,0.2,0.4,0.3c0.2,0.1,0.3,0.1,0.5,0.1c0.2,0,0.4,0,0.6-0.1c0.2,0,0.4-0.1,0.5-0.2
				c0.2-0.1,0.3-0.2,0.4-0.4c0.1-0.2,0.2-0.3,0.3-0.6c0.1-0.8,0.3-1.6,0.5-2.5c0.2-0.9,0.3-1.8,0.5-2.7c0.2-0.9,0.4-1.8,0.6-2.7
				c0.2-0.9,0.5-1.7,0.7-2.6c0.3-0.8,0.5-1.6,0.8-2.3c0.3-0.7,0.6-1.3,0.9-1.8c0.3-0.5,0.7-0.9,1-1.2c0.4-0.3,0.8-0.4,1.2-0.4
				c0.2,0,0.4,0.1,0.5,0.2c0.1,0.1,0.2,0.3,0.3,0.5c0.1,0.2,0.1,0.4,0.1,0.7c0,0.3,0,0.6,0,1c0,0.6,0,1.2-0.1,1.8
				c-0.1,0.6-0.2,1.3-0.3,1.9c-0.1,0.6-0.2,1.3-0.4,1.9c-0.1,0.7-0.3,1.3-0.4,1.9c-0.1,0.6-0.2,1.2-0.3,1.8
				c-0.1,0.6-0.2,1.2-0.2,1.7c0,0.1,0,0.1,0,0.2c0,0.1,0,0.1,0,0.2c0,0.6,0.1,1.1,0.3,1.5c0.2,0.4,0.4,0.8,0.8,1.1
				c0.3,0.3,0.7,0.5,1.1,0.7c0.4,0.1,0.8,0.2,1.2,0.2c0.4,0,0.9-0.1,1.3-0.2c0.4-0.1,0.9-0.4,1.3-0.7c0.3-0.2,0.6-0.5,0.9-0.8
				c0.1,0.3,0.3,0.6,0.5,0.8c0.3,0.3,0.6,0.5,0.9,0.7c0.4,0.2,0.7,0.2,1.1,0.2c0.4,0,0.7-0.1,1.1-0.2c0.4-0.1,0.7-0.3,1-0.5
				c0.3-0.2,0.6-0.4,0.9-0.6C139.6,210.3,139.8,210.1,140,209.8z M160.1,205.6c0-0.2,0-0.5,0.1-0.8c0.1-0.3,0.1-0.5,0.2-0.8
				s0.2-0.5,0.4-0.7c0.2-0.2,0.4-0.4,0.6-0.5c0.2-0.1,0.5-0.2,0.9-0.2c0.2,0,0.3,0.1,0.5,0.3c0.1,0.2,0.2,0.5,0.2,0.9
				c0,0.3-0.1,0.5-0.3,0.8c-0.2,0.3-0.4,0.5-0.7,0.7c-0.3,0.2-0.6,0.4-0.9,0.6c-0.3,0.1-0.6,0.2-0.9,0.2
				C160.1,206,160.1,205.8,160.1,205.6z M153,202.8c0-0.1,0-0.3,0-0.5c0-0.2,0-0.5,0-0.8c0-0.3,0-0.6,0.1-1c0-0.4,0.1-0.7,0.1-1.1
				c0-0.2,0.1-0.5,0.1-1c0-0.4,0.1-0.9,0.2-1.5c0.1-0.6,0.2-1.1,0.3-1.7c0.1-0.6,0.3-1.1,0.4-1.6c0.2-0.5,0.3-0.9,0.5-1.2
				c0.2-0.3,0.4-0.5,0.7-0.5c0.1,0,0.2,0.1,0.3,0.2c0.1,0.2,0.1,0.5,0.1,0.9c0,0.3,0,0.8-0.1,1.3c0,0.4-0.1,0.9-0.2,1.3
				s-0.2,0.9-0.3,1.4c-0.1,0.5-0.3,1-0.4,1.4c-0.2,0.5-0.4,0.9-0.5,1.4c-0.4,1-1.3,2-1.3,3V202.8z M147.2,206.6
				c0.1-0.5,0.3-1,0.6-1.4c0.3-0.5,0.6-0.9,1-1.3c0.4-0.4,0.9-0.7,1.4-1c0,0,0,0.1,0,0.2c0,0.2,0,0.4,0,0.6c0,0.3,0,0.5,0,0.9
				c0,0.3,0,0.6,0,0.9c0,0.3,0,0.6,0,0.8c0,0.2,0,0.4,0.1,0.5c-0.2,0.5-0.4,0.9-0.6,1.2c-0.1,0.2-0.2,0.3-0.3,0.5
				c-0.1,0.1-0.2,0.3-0.4,0.4c-0.1,0.1-0.3,0.2-0.4,0.3c-0.1,0.1-0.3,0.1-0.4,0.1c-0.3,0-0.5,0-0.7-0.1c-0.2-0.1-0.3-0.2-0.4-0.3
				c-0.1-0.1-0.2-0.3-0.2-0.4c0-0.2-0.1-0.3-0.1-0.5C147,207.5,147.1,207.1,147.2,206.6z M138.7,208.2c-0.2,0.4-0.4,0.7-0.6,0.9
				c-0.2,0.3-0.5,0.4-0.8,0.4c-0.2,0-0.3,0-0.4-0.1c-0.1-0.1-0.2-0.2-0.3-0.4c-0.1-0.1-0.1-0.3-0.1-0.5c0-0.2,0-0.4,0-0.6
				c0-0.3,0-0.7,0.1-1.1c0.1-0.4,0.2-0.8,0.4-1.2c0.2-0.4,0.4-0.8,0.6-1.1c0.2-0.4,0.5-0.7,0.7-0.9c0.3-0.3,0.6-0.5,0.9-0.7
				c0.3-0.2,0.6-0.2,0.9-0.2l-0.7,3.5c0,0.3-0.1,0.6-0.2,0.9C139,207.5,138.9,207.8,138.7,208.2z"/>
			<path fill="#F2F2F2" d="M175.1,211.7c0.5,0,0.9-0.1,1.4-0.2c0.5-0.2,1-0.4,1.5-0.6c0.5-0.2,0.9-0.5,1.4-0.8
				c0.1-0.1,0.2-0.1,0.3-0.2c0,0.1,0,0.2,0,0.3c0,0.3,0.1,0.6,0.2,0.8c0.1,0.2,0.3,0.4,0.5,0.6c0.2,0.1,0.5,0.2,0.8,0.2
				c0.3,0,0.5-0.1,0.7-0.2c0.2-0.1,0.4-0.2,0.5-0.6l3.1-6h0.2c-0.1,0-0.2,1.1-0.2,1.7c-0.1,0.5-0.1,1-0.1,1.5c0,1.2,0.1,2.1,0.4,2.7
				c0.3,0.6,0.7,0.9,1.1,0.9s0.8-0.1,1.2-0.2c0.4-0.1,0.8-0.3,1.1-0.5c0.4-0.2,0.7-0.4,1-0.7c0.3-0.2,0.7-0.5,1-0.7l0.6-0.4
				l-0.2-2.6c-0.5,0.5-0.9,0.9-1.3,1.2c-0.2,0.2-0.4,0.3-0.5,0.5c-0.2,0.1-0.4,0.3-0.5,0.4c-0.2,0.1-0.3,0.2-0.5,0.3
				c-0.2,0.1-0.3,0.1-0.4,0.1c-0.3,0-0.4-0.2-0.6-0.5c-0.1-0.3-0.2-0.7-0.2-1.2c0-0.3,0-0.6,0.1-1c0-0.3,0.1-0.7,0.1-1
				c0.1-0.4,0.1-0.7,0.2-1c0.1-0.3,0.1-0.6,0.2-0.9c0.1-0.3,0.1-0.5,0.1-0.7c0-0.2,0.1-0.3,0.1-0.4c0-0.6-0.1-1-0.3-1.4
				c-0.2-0.3-0.5-0.5-0.9-0.5s-0.7,0.1-1.1,0.2c-0.3,0.2-0.6,0.4-0.9,0.9c-0.1,0.1-0.1,0.2-0.2,0.4c-0.1,0.2-0.2,0.4-0.4,0.7
				c-0.1,0.3-0.3,0.5-0.4,0.8c-0.2,0.3-0.3,0.5-0.4,0.8c-0.1,0.3-0.3,0.3-0.4,0.5c-0.1,0.2-0.2,0.2-0.2,0.2h-0.2c0,0,0,0,0-0.2
				c0-0.2,0.1-0.3,0.1-0.5c0-0.2,0.1-0.4,0.1-0.7c0-0.3,0.1-0.5,0.1-0.7c0-0.2,0.1-0.4,0.1-0.6c0-0.2,0-0.4,0-0.5
				c0-0.4-0.1-0.8-0.2-1c-0.2-0.3-0.5-0.4-0.9-0.4s-0.8,0.1-1,0.4c-0.2,0.2-0.4,0.5-0.5,0.9c-0.1,0.5-0.2,1-0.3,1.7
				c-0.1,0.7-0.2,1.3-0.3,2c-0.1,0.7-0.2,1.4-0.2,2.1c-0.1,0-0.1,0.1-0.2,0.1c-0.3,0.3-0.7,0.6-1,0.9c-0.4,0.3-0.7,0.5-1,0.7
				c-0.3,0.2-0.7,0.3-0.9,0.3c-0.2,0-0.4-0.1-0.5-0.3c-0.1-0.2-0.1-0.5-0.1-0.8c0-0.4,0-0.8,0.1-1.2c0.1-0.5,0.2-0.9,0.3-1.4
				c0.1-0.5,0.2-0.9,0.4-1.4c0.1-0.5,0.3-0.9,0.4-1.3c0.1-0.4,0.2-0.8,0.3-1.1c0.1-0.3,0.1-0.6,0.1-0.7c0-0.2-0.1-0.4-0.2-0.5
				c-0.1-0.1-0.3-0.2-0.7-0.2c-0.2,0-0.4,0-0.6,0.1c-0.2,0-0.4,0.1-0.6,0.2c-0.2,0.1-0.4,0.2-0.6,0.4c-0.2,0.1-0.3,0.3-0.3,0.5
				c-0.1,0.6-0.3,1.2-0.5,1.9s-0.4,1.4-0.5,2.1c-0.2,0.7-0.3,1.4-0.4,2c-0.1,0.7-0.2,1.2-0.2,1.7c0,0.4,0,0.7,0.1,1
				c0.1,0.3,0.2,0.5,0.4,0.7c0.2,0.2,0.4,0.4,0.7,0.5S174.7,211.7,175.1,211.7z"/>
		</g>
		<g>
			<path fill="#F2F2F2" d="M149.1,28.9C107.7,28.9,74,62.6,74,104c0,41.4,33.7,75.1,75.1,75.1s75.1-33.7,75.1-75.1
				C224.3,62.6,190.5,28.9,149.1,28.9z M149.1,177.4c-40.5,0-73.4-32.9-73.4-73.4c0-40.5,32.9-73.4,73.4-73.4s73.4,32.9,73.4,73.4
				C222.5,144.5,189.6,177.4,149.1,177.4z"/>
			<path fill="#F2F2F2" d="M177.5,42.1c6.5,11,11.2,35.9,11.7,46.9c-16.5,0-32.9,0-49.3,0c0.8-9,6.4-39.6-14.2-44.9
				c-9.2-2.4-15.2,2.9-17.4,6.7c-2.2,3.7-2.7,8.9,0.1,12.2c1.9,2.3,4.9,2.6,6.8,0.8c1.1-1.2,1.3-2.6,0.7-4c-1.3-3-4.6-2.2-5.5-2.2
				c-0.3-3.3,2.5-6.9,6.2-7.6c7.4-1.5,13.6,2.8,15.1,10.4c1.5,7.7-2.2,16.1-8.8,20.3c-6.3,4-12.5,3.3-19.5,1.7
				c-6.8-1.6-12.6-7.1-14.6-10.1c-5,9.5-7.8,20.3-7.8,31.7c0,29.9,19.2,55.9,46,65.1c0.3-2,6.5-41.1,6.5-41.1h59.7
				c0,0,3.7,18.4,4.8,24.4c12.1-12.3,19.5-29.4,19.5-48C217.4,76.7,201,52.9,177.5,42.1z M135.3,90h56.9c2.5,0,4.4,3,4.4,5.5
				c0,2.5-2,5.5-4.4,5.5h-56.9c-2.5,0-4.4-3-4.4-5.5C130.9,93,132.9,90,135.3,90z M193.9,127h-60.5c-2.5,0-4.4-3-4.4-5.5
				s2-5.5,4.4-5.5h60.5c2.5,0,4.4,3,4.4,5.5S196.3,127,193.9,127z M200.5,115h-73.8c-3.7,0-6.7-2.8-6.7-6.5c0-3.7,3-6.5,6.7-6.5
				h73.8c3.7,0,6.7,2.8,6.7,6.5C207.2,112.2,204.2,115,200.5,115z"/>
		</g>
	</g>
</g>
<g id="Layer_3">
	<g>
		<g>
			<g>
				<polygon fill="#FFFFFF" points="218,263 218,222 205,222 205,273 226,273 226,263 				"/>
				<path fill="#FFFFFF" d="M160.2,240.3c-2.1-1.2-3.3-2.3-3.7-3.1c-0.5-0.9-0.7-2.1-0.7-3.8c0-1.3,0.2-2.3,0.6-3c0.4-0.7,1-1,1.8-1
					c0.7,0,1.2,0.2,1.5,0.7c0.3,0.5,0.4,1.6,0.4,3.4v3.5h12v-1.7c0-4.1-0.1-6.9-0.9-8.6c-0.8-1.7-2.3-3.1-4.7-4.2
					c-2.4-1.1-5.3-1.7-8.7-1.7c-3.2,0-5.8,0.5-8,1.5c-2.2,1-3.8,2.4-4.8,4.2c-1,1.8-1.5,4.7-1.5,8.6c0,2.7,0.4,4.9,1.1,6.7
					c0.7,1.7,1.6,3.1,2.7,4.1c1.1,1,3.3,2.6,6.6,4.8c3.3,2.2,5.4,3.7,6.2,4.6c0.8,0.9,1.2,2.9,1.2,5.9c0,1.4-0.2,2.4-0.6,3.1
					c-0.4,0.7-1.1,1-2,1s-1.5-0.3-1.9-0.8c-0.3-0.5-0.5-1.8-0.5-3.7V255h-12v2.9c0,3.8,0.2,6.8,1,8.9c0.8,2.1,2.3,3.8,4.9,5.1
					c2.5,1.3,5.5,2,9.1,2c3.2,0,6.1-0.6,8.5-1.7c2.4-1.2,4.1-2.6,4.9-4.3c0.9-1.7,1.3-4.4,1.3-8c0-5-0.8-8.6-2.3-10.9
					C169.8,246.7,166.1,243.8,160.2,240.3z"/>
				<polygon fill="#FFFFFF" points="191,252 199,252 199,242 191,242 191,232 200,232 200,222 178,222 178,273 201,273 201,263 
					191,263 				"/>
				<path fill="#FFFFFF" d="M99,245.3c2.8-0.6,4.6-1.5,5.5-2.7c0.9-1.2,1.4-3.3,1.4-6.2c0-4.4-0.7-7.6-2-9.6c-1.3-2-3.1-3.2-5.2-3.9
					c-2.2-0.7-5.3-0.9-9.5-0.9H76v51h15.3c5.3,0,8.9-0.4,10.6-1c1.7-0.6,3-1.8,3.8-3.4c0.8-1.7,1.2-4.2,1.2-7.7v-4.7
					c0-3.3-0.6-5.8-1.7-7.4C104.2,247.2,102.1,246,99,245.3z M94,259.4c0,2.1-0.6,3.4-1.1,3.9c-0.5,0.5-1.9,0.8-3.9,0.9v-14.3
					c2,0.1,3.5,0.3,4,0.8c0.5,0.5,1,1.8,1,4V259.4z M93.1,240.9c-0.4,0.6-1.3,1-2.6,1c-0.3,0-0.5,0-1.5,0v-11.3c2,0,2.4,0.1,2.9,0.3
					c0.5,0.2,0.9,0.6,1.2,1.2c0.3,0.6,0.5,1.8,0.5,3.4C93.6,238.5,93.4,240.3,93.1,240.9z"/>
				<path fill="#FFFFFF" d="M115.4,222l-6.8,51h13.7l0.8-9h4.7l0.7,9h13.6l-7.6-51H115.4z M123,255c0.3-5,1.2-11.7,2.5-21.4
					c0.7,8.5,1.3,15.4,2,21.4H123z"/>
			</g>
			<g>
				<path fill="#FFFFFF" d="M177.2,201.7c0.4,0,0.7-0.1,1-0.2c0.3-0.1,0.5-0.3,0.7-0.5c0.2-0.2,0.3-0.4,0.4-0.7
					c0.1-0.3,0.1-0.5,0.1-0.8c0-0.3-0.1-0.5-0.2-0.8c-0.1-0.2-0.2-0.4-0.4-0.5c-0.2-0.1-0.4-0.2-0.6-0.3c-0.2-0.1-0.5-0.1-0.8-0.1
					c-0.4,0-0.8,0.1-1.1,0.2c-0.3,0.1-0.5,0.3-0.7,0.5c-0.2,0.2-0.3,0.4-0.4,0.6c-0.1,0.2-0.1,0.4-0.1,0.6c0,0.5,0.2,1,0.5,1.3
					C176,201.6,176.5,201.7,177.2,201.7z"/>
				<path fill="#FFFFFF" d="M140,212.7c0.3,0.6,0.5,1.1,0.9,1.5c0.3,0.3,0.8,0.5,1.3,0.5c0.4,0,0.9-0.1,1.3-0.3
					c0.4-0.2,0.8-0.5,1.2-0.8c0.1-0.1,0.1-0.1,0.2-0.2c0,0,0,0,0,0c0.2,0.4,0.6,0.7,0.9,0.9c0.4,0.2,0.8,0.3,1.3,0.3
					c0.4,0,0.7-0.1,1.1-0.2c0.4-0.1,0.7-0.3,1.1-0.5c0.3-0.2,0.7-0.4,1-0.7c0.3-0.3,0.6-0.5,0.9-0.8c0.2,0.5,0.4,0.8,0.7,1.1
					c0.3,0.3,0.5,0.5,0.8,0.6c0.3,0.1,0.5,0.2,0.7,0.3c0.2,0,0.4,0.1,0.5,0.1c0.2,0,0.4,0,0.6-0.1c0.2-0.1,0.5-0.2,0.7-0.3
					c0.2-0.1,0.5-0.2,0.7-0.4c0.3-0.1,0.5-0.3,0.7-0.4c0.4-0.3,0.8-0.6,1.3-0.9c0.1,0.2,0.2,0.4,0.4,0.6c0.4,0.5,0.8,0.8,1.4,1.1
					c0.6,0.3,1.2,0.4,1.9,0.4c0.5,0,0.9-0.1,1.4-0.2c0.5-0.1,0.9-0.2,1.3-0.4c0.4-0.2,0.8-0.4,1.2-0.6c0.4-0.2,0.8-0.5,1.1-0.7
					c0.8-0.5,1.5-1.2,2.2-1.9l-1.5-1.6c-0.3,0.3-0.7,0.6-1.1,0.9c-0.4,0.3-0.9,0.6-1.4,0.9c-0.5,0.3-1,0.5-1.5,0.7
					c-0.5,0.2-1,0.3-1.5,0.3c-0.1,0-0.3,0-0.4,0c-0.1,0-0.3-0.1-0.4-0.2c-0.1-0.1-0.2-0.2-0.3-0.3c-0.1-0.1-0.2-0.3-0.3-0.5
					c0.7-0.2,1.3-0.5,1.9-0.8c0.6-0.3,1.1-0.7,1.5-1.2c0.4-0.4,0.8-0.9,1-1.4s0.4-1,0.4-1.5c0-0.4-0.1-0.9-0.2-1.2
					c-0.2-0.4-0.4-0.7-0.7-0.9c-0.3-0.3-0.6-0.5-1-0.6s-0.8-0.2-1.2-0.2c-0.5,0-1,0.1-1.5,0.3c-0.4,0.2-0.8,0.5-1.2,0.8
					c-0.4,0.3-0.7,0.7-0.9,1.1c-0.3,0.4-0.5,0.9-0.7,1.3c-0.2,0.5-0.3,1-0.4,1.4c-0.1,0.5-0.1,1-0.1,1.4c0,0.2,0,0.3,0,0.5
					c-0.2,0.2-0.4,0.3-0.6,0.5c-0.2,0.1-0.4,0.3-0.6,0.4c-0.2,0.1-0.4,0.2-0.6,0.3c-0.2,0.1-0.4,0.2-0.6,0.2
					c-0.2,0.1-0.3,0.1-0.5,0.1c-0.2,0-0.3,0-0.4-0.1c-0.1-0.1-0.2-0.2-0.3-0.4c-0.1-0.2-0.1-0.3-0.1-0.5c0-0.2,0-0.4,0-0.6
					c0-0.2,0-0.4,0-0.6c0-0.2,0.1-0.4,0.1-0.6c0-0.2,0.1-0.4,0.1-0.5c0-0.2,0.1-0.3,0.1-0.4c0.4-1,0.8-1.9,1.3-2.9
					c0.4-0.9,0.8-1.8,1.2-2.8c0.4-0.9,0.7-1.9,1-2.9c0.3-1,0.5-2,0.6-3.1c0-0.3,0-0.6,0-0.8c0-0.4,0-0.9-0.1-1.3
					c-0.1-0.4-0.2-0.8-0.3-1.1c-0.2-0.3-0.4-0.6-0.6-0.8c-0.3-0.2-0.6-0.3-0.9-0.3c-0.5,0-1,0.2-1.5,0.5c-0.5,0.3-0.9,0.7-1.3,1.3
					c-0.4,0.5-0.8,1.2-1.1,2c-0.3,0.8-0.7,1.6-0.9,2.5c-0.3,0.9-0.5,1.8-0.6,2.8c-0.2,1-0.2,2-0.3,3c-0.6,0.1-1.2,0.2-1.7,0.4
					c-0.5,0.2-1,0.5-1.5,0.8c-0.4,0.3-0.8,0.7-1.2,1.1c-0.4,0.4-0.7,0.9-0.9,1.4c-0.2,0.5-0.4,1-0.6,1.5c-0.1,0.5-0.2,1-0.2,1.5
					c0,0.1,0,0.2,0,0.3c0,0,0,0,0,0c-0.2,0.2-0.4,0.3-0.6,0.5c-0.2,0.1-0.4,0.2-0.5,0.3c-0.2,0.1-0.4,0.1-0.5,0.1
					c-0.2,0-0.4-0.1-0.4-0.3s-0.1-0.5-0.1-0.9c0-0.4,0-0.9,0.1-1.4c0.1-0.5,0.2-1,0.3-1.4c0.1-0.5,0.2-1,0.3-1.4
					c0.1-0.5,0.1-0.9,0.1-1.3c0-0.2,0-0.4-0.1-0.6s-0.1-0.3-0.2-0.3c-0.1-0.1-0.2-0.1-0.3-0.2c-0.1,0-0.2,0-0.3,0
					c-0.1,0-0.2,0-0.3,0c-0.1,0-0.2,0-0.3,0c-0.1,0-0.2,0-0.3,0c-0.1,0-0.2,0-0.3-0.1c-0.1,0-0.2-0.1-0.2-0.2
					c-0.1-0.1-0.1-0.2-0.2-0.3c-0.1-0.1-0.2-0.2-0.3-0.2c-0.1-0.1-0.2-0.1-0.4-0.1c-0.5,0-1.1,0.1-1.6,0.3c-0.5,0.2-1,0.5-1.5,0.9
					c-0.5,0.4-0.9,0.9-1.3,1.4c-0.4,0.5-0.7,1.1-1,1.7c-0.3,0.6-0.5,1.2-0.7,1.8c0,0.1,0,0.2-0.1,0.3c-0.1,0.2-0.2,0.3-0.4,0.5
					c-0.2,0.2-0.4,0.4-0.6,0.6s-0.4,0.4-0.6,0.6c-0.2,0.2-0.4,0.3-0.6,0.4c-0.2,0.1-0.4,0.1-0.6,0.1c-0.3,0-0.6-0.1-0.7-0.3
					c-0.2-0.2-0.3-0.5-0.3-1c0-0.4,0-0.8,0.1-1.3c0.1-0.5,0.2-1.1,0.3-1.7c0.1-0.6,0.3-1.2,0.4-1.9c0.2-0.7,0.3-1.3,0.4-2
					c0.1-0.7,0.2-1.4,0.3-2.1c0.1-0.7,0.1-1.4,0.1-2.1c0-0.7-0.1-1.4-0.2-2.1c-0.1-0.6-0.3-1.2-0.6-1.7c-0.3-0.5-0.6-0.9-0.9-1.1
					c-0.4-0.3-0.8-0.4-1.3-0.4c-0.7,0-1.4,0.2-2,0.5c-0.6,0.3-1.2,0.8-1.8,1.5c-0.6,0.6-1.1,1.4-1.5,2.4c-0.4,0.9-0.8,2-1.1,3.1
					l-0.2,0c0.1-0.5,0.1-1.1,0.2-1.5c0-0.2,0-0.4,0.1-0.6c0-0.2,0.1-0.4,0.1-0.6c0-0.2,0-0.3,0-0.5c0-0.1,0-0.2,0-0.3
					c0-0.7-0.1-1.3-0.2-1.8c-0.1-0.5-0.3-0.9-0.5-1.2c-0.2-0.3-0.5-0.6-0.8-0.7c-0.3-0.2-0.6-0.2-1-0.2c-0.5,0-1,0.1-1.5,0.4
					c-0.5,0.3-1,0.6-1.5,1.1c-0.5,0.5-1,1.1-1.4,1.7c-0.5,0.7-0.9,1.4-1.3,2.3c-0.4,0.8-0.8,1.7-1.1,2.7c-0.3,1-0.6,2-0.9,3
					c0.1-0.6,0.2-1.2,0.4-1.8c0.1-0.7,0.2-1.3,0.3-1.9c0.1-0.6,0.2-1.3,0.3-1.9c0.1-0.6,0.1-1.1,0.1-1.5c0-0.6,0-1.1-0.1-1.6
					c-0.1-0.5-0.2-0.9-0.4-1.2c-0.2-0.3-0.4-0.6-0.8-0.8c-0.3-0.2-0.7-0.3-1.2-0.3c-0.4,0-0.8,0.1-1.2,0.2c-0.4,0.2-0.8,0.4-1.2,0.8
					c-0.4,0.4-0.8,0.9-1.1,1.5c-0.4,0.6-0.7,1.4-1,2.3c0,0,0,0.1,0,0.1c0,0.1,0,0.2,0,0.3c0,0.1,0.1,0.2,0.1,0.3
					c0,0.1,0.1,0.2,0.1,0.2c0,0.1,0.1,0.1,0.1,0.1c0.1,0,0.2,0,0.3-0.1c0.1-0.1,0.2-0.1,0.2-0.3c0.3-0.3,0.5-0.7,0.8-0.9
					c0.3-0.3,0.6-0.6,0.9-0.8c0.3-0.2,0.6-0.4,0.9-0.5c0.3-0.1,0.5-0.2,0.7-0.2c0.1,0,0.2,0,0.3,0.1c0.1,0.1,0.1,0.2,0.1,0.3
					c0,0.1,0,0.2,0,0.3c0,0.1,0,0.2,0,0.3c-1,0.8-0.1,1.6-0.2,2.3c-0.1,0.7-0.1,1.4-0.2,2.1c-0.1,0.7-0.1,1.3-0.2,2
					c-0.1,0.7-0.2,1.3-0.3,2.1c-0.1,0.7-0.3,1.5-0.4,2.2c-0.2,0.8-0.4,1.6-0.6,2.6c-0.1,0.3-0.1,0.5-0.1,0.8c0,0.3,0,0.6,0,0.9
					c0,0.2,0,0.3,0.1,0.4c0.1,0.1,0.2,0.2,0.4,0.3c0.1,0.1,0.3,0.2,0.5,0.2c0.2,0,0.4,0.1,0.6,0.1c0.2,0,0.4,0,0.5-0.1
					c0.2,0,0.4-0.1,0.5-0.2c0.2-0.1,0.3-0.2,0.4-0.4c0.1-0.1,0.2-0.3,0.2-0.6c0.1-0.8,0.3-1.6,0.5-2.4c0.2-0.9,0.4-1.7,0.7-2.6
					c0.3-0.9,0.6-1.8,0.9-2.7c0.3-0.9,0.6-1.8,1-2.6c0.3-0.8,0.7-1.6,1-2.3c0.3-0.7,0.7-1.3,1-1.9c0.3-0.5,0.6-0.9,0.9-1.2
					c0.3-0.3,0.5-0.4,0.8-0.4c0.3,0,0.5,0.1,0.6,0.2c0.2,0.1,0.3,0.3,0.4,0.6c0.1,0.3,0.1,0.6,0.2,1c0,0.4,0,0.8,0,1.3
					c0,0.7,0,1.5-0.1,2.3c-0.1,0.8-0.2,1.7-0.4,2.5c-0.1,0.9-0.3,1.7-0.5,2.5c-0.2,0.8-0.3,1.6-0.5,2.3c-0.1,0.7-0.3,1.3-0.4,1.8
					c-0.1,0.5-0.1,0.8-0.1,1.1c0,0.3,0,0.6,0.1,0.8c0.1,0.2,0.2,0.4,0.3,0.5c0.1,0.1,0.3,0.2,0.4,0.3c0.2,0.1,0.3,0.1,0.5,0.1
					c0.2,0,0.4,0,0.6-0.1c0.2,0,0.4-0.1,0.5-0.2c0.2-0.1,0.3-0.2,0.4-0.4c0.1-0.2,0.2-0.3,0.3-0.6c0.1-0.8,0.3-1.6,0.5-2.5
					c0.2-0.9,0.3-1.8,0.5-2.7c0.2-0.9,0.4-1.8,0.6-2.7c0.2-0.9,0.5-1.7,0.7-2.6c0.3-0.8,0.5-1.6,0.8-2.3c0.3-0.7,0.6-1.3,0.9-1.8
					c0.3-0.5,0.7-0.9,1-1.2c0.4-0.3,0.8-0.4,1.2-0.4c0.2,0,0.4,0.1,0.5,0.2c0.1,0.1,0.2,0.3,0.3,0.5c0.1,0.2,0.1,0.4,0.1,0.7
					c0,0.3,0,0.6,0,1c0,0.6,0,1.2-0.1,1.8c-0.1,0.6-0.2,1.3-0.3,1.9c-0.1,0.6-0.2,1.3-0.4,1.9c-0.1,0.7-0.3,1.3-0.4,1.9
					c-0.1,0.6-0.2,1.2-0.3,1.8c-0.1,0.6-0.2,1.2-0.2,1.7c0,0.1,0,0.1,0,0.2c0,0.1,0,0.1,0,0.2c0,0.6,0.1,1.1,0.3,1.5
					c0.2,0.4,0.4,0.8,0.8,1.1c0.3,0.3,0.7,0.5,1.1,0.7c0.4,0.1,0.8,0.2,1.2,0.2c0.4,0,0.9-0.1,1.3-0.2c0.4-0.1,0.9-0.4,1.3-0.7
					c0.3-0.2,0.6-0.5,0.9-0.8c0.1,0.3,0.3,0.6,0.5,0.8c0.3,0.3,0.6,0.5,0.9,0.7c0.4,0.2,0.7,0.2,1.1,0.2c0.4,0,0.7-0.1,1.1-0.2
					c0.4-0.1,0.7-0.3,1-0.5c0.3-0.2,0.6-0.4,0.9-0.6C139.6,213.1,139.8,212.9,140,212.7z M160.1,208.4c0-0.2,0-0.5,0.1-0.8
					c0.1-0.3,0.1-0.5,0.2-0.8s0.2-0.5,0.4-0.7c0.2-0.2,0.4-0.4,0.6-0.5c0.2-0.1,0.5-0.2,0.9-0.2c0.2,0,0.3,0.1,0.5,0.3
					c0.1,0.2,0.2,0.5,0.2,0.9c0,0.3-0.1,0.5-0.3,0.8c-0.2,0.3-0.4,0.5-0.7,0.7c-0.3,0.2-0.6,0.4-0.9,0.6c-0.3,0.1-0.6,0.2-0.9,0.2
					C160,208.8,160.1,208.6,160.1,208.4z M153,205.6c0-0.1,0-0.3,0-0.5c0-0.2,0-0.5,0-0.8c0-0.3,0-0.6,0-1c0-0.4,0-0.7,0.1-1.1
					c0-0.2,0-0.5,0.1-1c0-0.4,0.1-0.9,0.2-1.5c0.1-0.6,0.2-1.1,0.3-1.7c0.1-0.6,0.3-1.1,0.4-1.6c0.2-0.5,0.3-0.9,0.5-1.2
					c0.2-0.3,0.4-0.5,0.7-0.5c0.1,0,0.2,0.1,0.3,0.2c0.1,0.2,0.1,0.5,0.1,0.9c0,0.3,0,0.8-0.1,1.3c0,0.4-0.1,0.9-0.2,1.3
					s-0.2,0.9-0.3,1.4c-0.1,0.5-0.3,1-0.4,1.4c-0.2,0.5-0.3,0.9-0.5,1.4c-0.4,1-1.2,2-1.2,3V205.6z M147.2,209.4
					c0.1-0.5,0.3-1,0.6-1.4c0.3-0.5,0.6-0.9,1-1.3c0.4-0.4,0.9-0.7,1.4-1c0,0,0,0.1,0,0.2c0,0.2,0,0.4,0,0.6c0,0.3,0,0.5,0,0.9
					c0,0.3,0,0.6,0,0.9c0,0.3,0,0.6,0,0.8c0,0.2,0,0.4,0.1,0.5c-0.2,0.5-0.4,0.9-0.6,1.2c-0.1,0.2-0.2,0.3-0.3,0.5
					c-0.1,0.1-0.2,0.3-0.4,0.4c-0.1,0.1-0.3,0.2-0.4,0.3c-0.1,0.1-0.3,0.1-0.4,0.1c-0.3,0-0.5,0-0.7-0.1c-0.2-0.1-0.3-0.2-0.4-0.3
					c-0.1-0.1-0.2-0.3-0.2-0.4c0-0.2-0.1-0.3-0.1-0.5C147,210.4,147.1,209.9,147.2,209.4z M138.7,211c-0.2,0.4-0.4,0.7-0.6,0.9
					c-0.2,0.3-0.5,0.4-0.8,0.4c-0.2,0-0.3,0-0.4-0.1c-0.1-0.1-0.2-0.2-0.3-0.4c-0.1-0.1-0.1-0.3-0.1-0.5c0-0.2,0-0.4,0-0.6
					c0-0.3,0-0.7,0.1-1.1c0.1-0.4,0.2-0.8,0.4-1.2c0.2-0.4,0.4-0.8,0.6-1.1c0.2-0.4,0.5-0.7,0.7-0.9c0.3-0.3,0.6-0.5,0.9-0.7
					c0.3-0.2,0.6-0.2,0.9-0.2l-0.7,3.5c0,0.3-0.1,0.6-0.2,0.9C139,210.3,138.9,210.7,138.7,211z"/>
				<path fill="#FFFFFF" d="M175.1,214.5c0.5,0,0.9-0.1,1.4-0.2c0.5-0.2,1-0.4,1.5-0.6c0.5-0.2,0.9-0.5,1.4-0.8
					c0.1-0.1,0.2-0.1,0.3-0.2c0,0.1,0,0.2,0,0.3c0,0.3,0.1,0.6,0.2,0.8c0.1,0.2,0.3,0.4,0.5,0.6c0.2,0.1,0.5,0.2,0.8,0.2
					c0.3,0,0.5-0.1,0.7-0.2c0.2-0.1,0.4-0.1,0.5-0.5l3.1-5.9h0.2c-0.1,0-0.2,1-0.2,1.6c-0.1,0.5-0.1,1-0.1,1.4
					c0,1.2,0.1,2.1,0.4,2.7c0.3,0.6,0.7,0.9,1.1,0.9s0.8-0.1,1.2-0.2c0.4-0.1,0.8-0.3,1.1-0.5c0.4-0.2,0.7-0.4,1-0.7
					c0.3-0.2,0.7-0.5,1-0.7l0.6-0.4l-0.2-2.6c-0.5,0.5-0.9,0.9-1.3,1.2c-0.2,0.2-0.4,0.3-0.5,0.5c-0.2,0.1-0.4,0.3-0.5,0.4
					c-0.2,0.1-0.3,0.2-0.5,0.3c-0.2,0.1-0.3,0.1-0.4,0.1c-0.3,0-0.4-0.2-0.6-0.5c-0.1-0.3-0.2-0.7-0.2-1.2c0-0.3,0-0.6,0.1-1
					c0-0.3,0.1-0.7,0.1-1c0.1-0.4,0.1-0.7,0.2-1c0.1-0.3,0.1-0.6,0.2-0.9c0.1-0.3,0.1-0.5,0.1-0.7c0-0.2,0.1-0.3,0.1-0.4
					c0-0.6-0.1-1-0.3-1.4c-0.2-0.3-0.5-0.5-0.9-0.5s-0.7,0.1-1.1,0.2c-0.3,0.2-0.6,0.4-0.9,0.9c-0.1,0.1-0.1,0.2-0.2,0.4
					c-0.1,0.2-0.2,0.4-0.4,0.7c-0.1,0.3-0.3,0.5-0.4,0.8c-0.2,0.3-0.3,0.5-0.4,0.8c-0.1,0.3-0.3,0.4-0.4,0.6
					c-0.1,0.2-0.2,0.3-0.2,0.3h-0.2c0,0,0-0.1,0-0.2c0-0.2,0.1-0.3,0.1-0.5c0-0.2,0.1-0.4,0.1-0.7c0-0.3,0.1-0.5,0.1-0.7
					c0-0.2,0.1-0.5,0.1-0.7c0-0.2,0-0.4,0-0.5c0-0.4-0.1-0.8-0.2-1c-0.2-0.3-0.5-0.4-0.9-0.4s-0.8,0.1-1,0.4
					c-0.2,0.2-0.4,0.5-0.5,0.9c-0.1,0.5-0.2,1-0.3,1.7c-0.1,0.7-0.2,1.3-0.3,2c-0.1,0.7-0.2,1.4-0.2,2.1c-0.1,0-0.1,0.1-0.2,0.1
					c-0.3,0.3-0.7,0.6-1,0.9c-0.4,0.3-0.7,0.5-1,0.7c-0.3,0.2-0.7,0.3-0.9,0.3c-0.2,0-0.4-0.1-0.5-0.3c-0.1-0.2-0.1-0.5-0.1-0.8
					c0-0.4,0-0.8,0.1-1.2c0.1-0.5,0.2-0.9,0.3-1.4c0.1-0.5,0.2-0.9,0.4-1.4c0.1-0.5,0.3-0.9,0.4-1.3c0.1-0.4,0.2-0.8,0.3-1.1
					c0.1-0.3,0.1-0.6,0.1-0.7c0-0.2-0.1-0.4-0.2-0.5c-0.1-0.1-0.3-0.2-0.7-0.2c-0.2,0-0.4,0-0.6,0.1c-0.2,0-0.4,0.1-0.6,0.2
					c-0.2,0.1-0.4,0.2-0.6,0.4c-0.2,0.1-0.3,0.3-0.3,0.5c-0.1,0.6-0.3,1.2-0.5,1.9s-0.4,1.4-0.5,2.1c-0.2,0.7-0.3,1.4-0.4,2
					c-0.1,0.7-0.2,1.2-0.2,1.7c0,0.4,0,0.7,0.1,1c0.1,0.3,0.2,0.5,0.4,0.7c0.2,0.2,0.4,0.4,0.7,0.5S174.7,214.5,175.1,214.5z"/>
			</g>
		</g>
		<path fill="#FFFFFF" d="M160.5,40.4c-35.6-6.3-69.6,17.6-75.9,53.2s17.6,69.6,53.2,75.9s69.6-17.6,75.9-53.2
			S196.1,46.7,160.5,40.4z M184.7,154.3c0-5.4-0.3-22.9-0.3-22.9l-52.5-9.3c0,0-11.7,34.2-12.2,35.9c-22.1-12.3-35.1-37.6-30.5-63.9
			c1.8-10.1,5.9-19,11.8-26.6c1.2,3,5.5,8.7,11.2,11.2c5.9,2.5,11.3,4.1,17.4,1.6c6.4-2.6,11-9.4,10.9-16.5
			c-0.1-7-4.9-11.7-11.6-11.5c-3.3,0.1-6.4,2.8-6.6,5.8c0.7,0.1,3.8-0.1,4.5,2.8c0.3,1.3,0,2.5-1.2,3.4c-1.9,1.4-4.6,0.6-5.8-1.7
			c-1.9-3.4-0.6-7.9,1.8-10.8c2.6-3,8.6-6.6,16.4-3c17.2,7.9,7.5,34.1,5.5,41.9c14.4,2.5,28.8,5.1,43.3,7.6c1.2-8.9,1.1-32.5-3-43.2
			c19,13.1,29.8,36.2,25.5,60.5C206.3,131.9,197.2,145.3,184.7,154.3z M216.9,129.8c1.7-4.5,8.8-7.6,9.7-12.5
			c0.9-4.9-4.7-10.3-4.8-15.1c-0.1-5,5.2-10.5,4.2-15.3c-1.1-4.8-8.3-7.6-10.2-12.1c-2-4.5,0.8-11.7-2-15.7
			c-2.8-4-10.5-3.9-14.1-7.3c-3.5-3.4-3.7-11.1-7.8-13.7c-4.1-2.6-11.1,0.5-15.8-1.3c-4.5-1.7-7.6-8.8-12.5-9.7
			c-4.9-0.9-10.3,4.7-15.1,4.8c-5,0.1-10.5-5.2-15.3-4.2c-4.8,1.1-7.6,8.3-12.1,10.2c-4.5,2-11.7-0.8-15.7,2
			c-4,2.8-3.9,10.5-7.3,14.1c-3.4,3.5-11.1,3.7-13.7,7.8c-2.6,4.1,0.5,11.1-1.3,15.8c-1.7,4.5-8.8,7.6-9.7,12.5
			c-0.9,4.9,4.7,10.3,4.8,15.1c0.1,5-5.2,10.5-4.2,15.3c1.1,4.8,8.3,7.6,10.2,12.1c2,4.5-0.8,11.7,2,15.7c2.8,4,10.5,3.9,14.1,7.3
			c3.5,3.4,3.7,11.1,7.8,13.7c4.1,2.6,11.1-0.5,15.8,1.3c4.5,1.7,7.6,8.8,12.5,9.7c4.9,0.9,10.3-4.7,15.1-4.8
			c5-0.1,10.5,5.2,15.3,4.2c4.8-1.1,7.6-8.3,12.1-10.2c4.5-2,11.7,0.8,15.7-2c4-2.8,3.9-10.5,7.3-14.1c3.4-3.5,11.1-3.7,13.7-7.8
			C218.2,141.5,215.1,134.5,216.9,129.8z M137.8,169.5c-35.6-6.3-59.4-40.3-53.2-75.9s40.3-59.4,75.9-53.2s59.4,40.3,53.2,75.9
			S173.4,175.7,137.8,169.5z M183.7,55c4,10.7,4.1,34.3,3,43.2c-14.5-2.6-28.9-5.1-43.3-7.6c2.1-7.8,11.8-34-5.5-41.9
			c-7.7-3.5-13.8,0.1-16.4,3.1c-2.5,2.9-3.7,7.3-1.8,10.7c1.3,2.3,3.9,3.1,5.9,1.7c1.2-0.9,1.6-2.1,1.2-3.4
			c-0.7-2.9-3.7-2.7-4.5-2.8c0.3-2.9,3.3-5.6,6.6-5.8c6.7-0.2,11.5,4.6,11.6,11.5c0.1,7-4.4,13.8-10.9,16.5
			c-6.1,2.5-11.5,1-17.4-1.5c-5.7-2.5-10-8.2-11.2-11.2c-5.9,7.6-10,16.6-11.8,26.7c-4.6,26.3,8.4,51.4,30.5,63.7
			c0.6-1.7,12.2-35.9,12.2-35.9l52.5,9.3c0,0,0.2,17.5,0.3,22.9c12.5-9,21.7-22.4,24.5-38.8C213.5,91.2,202.7,68.2,183.7,55z
			 M137.8,169.5c-35.6-6.3-59.4-40.3-53.2-75.9s40.3-59.4,75.9-53.2s59.4,40.3,53.2,75.9S173.4,175.7,137.8,169.5z M183.7,55
			c4,10.7,4.1,34.3,3,43.2c-14.5-2.6-28.9-5.1-43.3-7.6c2.1-7.8,11.8-34-5.5-41.9c-7.7-3.5-13.8,0.1-16.4,3.1
			c-2.5,2.9-3.7,7.3-1.8,10.7c1.3,2.3,3.9,3.1,5.9,1.7c1.2-0.9,1.6-2.1,1.2-3.4c-0.7-2.9-3.7-2.7-4.5-2.8c0.3-2.9,3.3-5.6,6.6-5.8
			c6.7-0.2,11.5,4.6,11.6,11.5c0.1,7-4.4,13.8-10.9,16.5c-6.1,2.5-11.5,1-17.4-1.5c-5.7-2.5-10-8.2-11.2-11.2
			c-5.9,7.6-10,16.6-11.8,26.7c-4.6,26.3,8.4,51.4,30.5,63.7c0.6-1.7,12.2-35.9,12.2-35.9l52.5,9.3c0,0,0.2,17.5,0.3,22.9
			c12.5-9,21.7-22.4,24.5-38.8C213.5,91.2,202.7,68.2,183.7,55z M139.1,90.9l50.1,8.8c2.2,0.4,3.5,3,3.1,5.1s-2.5,4.1-4.7,3.7
			l-50.1-8.8c-2.2-0.4-3.5-3-3.1-5.1C134.8,92.5,136.9,90.5,139.1,90.9z M185.2,130.5l-53.2-9.4c-2.2-0.4-3.6-2.5-3.2-4.6
			c0.4-2.2,2.4-3.6,4.6-3.2l53.2,9.4c2.2,0.4,3.6,2.5,3.2,4.6C189.4,129.4,187.4,130.9,185.2,130.5z M199.6,117.8
			c-0.6,3.2-3.7,5.4-6.9,4.9l-64.9-11.4c-3.2-0.6-5.4-3.7-4.8-6.9c0.6-3.2,3.7-5.4,6.9-4.9l64.9,11.4
			C198,111.4,200.1,114.6,199.6,117.8z"/>
	</g>
</g>
</svg>
