<?xml version="1.0" encoding="utf-8"?>
<!-- Generator: Adobe Illustrator 17.1.0, SVG Export Plug-In . SVG Version: 6.00 Build 0)  -->
<!DOCTYPE svg PUBLIC "-//W3C//DTD SVG 1.1//EN" "http://www.w3.org/Graphics/SVG/1.1/DTD/svg11.dtd">
<svg version="1.1" xmlns="http://www.w3.org/2000/svg" xmlns:xlink="http://www.w3.org/1999/xlink" x="0px" y="0px"
	 viewBox="0 0 1600 550" enable-background="new 0 0 1600 550" xml:space="preserve">
<g id="bg">
</g>
<g id="bg-sky">
</g>
<g id="city">
</g>
<g id="river">
</g>
<g id="on-river">
</g>
<g id="river-fg">
	<g>
		<rect y="334.5" fill="#00A7D0" width="1600" height="178"/>
	</g>
	<linearGradient id="SVGID_1_" gradientUnits="userSpaceOnUse" x1="800" y1="333.5" x2="800" y2="0.5">
		<stop  offset="0" style="stop-color:#F7C2A0"/>
		<stop  offset="1" style="stop-color:#E6E6E6"/>
	</linearGradient>
	<rect y="0.5" fill="url(#SVGID_1_)" width="1600" height="333"/>
	<polygon fill="#4D4D4D" points="1586.5,303.5 1580.2,292.4 1573.2,295.5 1541,295.5 1541,264.5 1531,264.5 1531,295.5 
		1520.8,294.2 1502.8,287.2 1487.5,296.2 1468.1,290.5 1432,290.5 1430.8,279.5 1410,279.5 1410,290.5 1385.8,287.2 1355.8,278 
		1298.2,284.2 1249.2,273.5 1240,273.5 1240,279.5 1229,279.5 1229,273.5 1212,271.2 1200.5,274.2 1193,266.1 1186.2,260.5 
		1172.8,260.5 1162.8,230.6 1139.3,227.5 1137.9,227.5 1137.9,226.7 1126.3,219.9 1112.7,236.2 1108.5,223.5 1019,223.5 1019,203.6 
		1013.7,185.1 868,186.7 868,183.5 865.9,183.5 866.3,232.8 858,241.3 858,260.2 845,242.3 845,222.5 848.8,223.1 848.5,204.3 
		845,202.4 845,173.5 847.3,175.3 844.5,170.3 838,166.2 838,158.4 845.7,160.3 843,151.8 844.9,136.8 840.5,135.5 838.1,124.4 
		830.6,75.1 823.9,123.5 821,133.6 821,139.5 817.7,137 815,143.9 815,162.1 785,163.4 785,135.8 782.4,128.5 777.3,134.2 
		772.9,83.6 764.9,135.1 761,144.5 761,162.1 750.9,152.7 739.3,165.6 701,169.1 701,162.1 694.7,161.5 684,203.3 684,218.7 
		681.3,211.2 661.9,202.4 651.9,213 580.1,215.9 574.2,197 568.9,218.1 562.9,218 541.6,230.5 530.3,230.5 478.3,249.6 474.3,228.8 
		469.9,254.5 447.3,254.5 447.1,267.5 430,267.5 430,248.9 401.3,246.6 397,230.5 379.5,230.5 368.6,250.5 359.4,250.5 353.5,274.5 
		351,274.5 351,258.8 335.7,258.5 329.7,244.8 303,245.5 299,260.5 260.3,257.5 246.7,268.2 233.3,268.8 225.3,280.2 196,282.5 
		196,269.5 161,269.5 161,282.5 141,282.5 141,273.5 105.7,273.5 85,289.3 55,291.5 55,280.5 46,280.5 46,291.2 26.5,292.5 0,300.5 
		0,334.5 1600,334.5 1600,308 	"/>
	<path fill="#0099CC" d="M448.5,379.2c78.2,0.4,156.4,14.9,234.6,15.3s156.6-13.1,234.8-12.7s156.4,14.9,234.6,15.3
		c78.2,0.4,156.6-13.1,234.8-12.7c70.9,0.4,141.8,12.3,212.7,14.8v-24.8c-70.9-1.8-141.8-12.9-212.7-12.5
		c-78.2,0.4-156.4,14.9-234.6,15.3s-156.6-13.1-234.8-12.7c-78.2,0.4-156.4,14.9-234.6,15.3s-156.6-13.1-234.8-12.7
		S292,382.1,213.7,382.6C142.5,383,71.2,371.8,0,370.1v6.9c71.2,2.5,142.4,14.5,213.7,14.9C291.9,392.3,370.2,378.7,448.5,379.2z"/>
	<path fill="#0099CC" d="M212.3,452c78.4-0.7,156.7-15.4,235.2-16.1s157,12.6,235.4,11.9s156.7-15.4,235.2-16.1s157,12.6,235.4,11.9
		c78.4-0.7,156.7-15.4,235.2-16.1c70.4-0.6,140.9,10,211.3,11.7V426c-70.4-2.9-140.8-14.8-211.2-15.5c-78.4-0.7-157,12.6-235.4,11.9
		c-78.4-0.7-156.7-15.4-235.2-16.1c-78.4-0.7-157,12.6-235.4,11.9s-156.7-15.4-235.2-16.1c-78.4-0.7-157,12.6-235.4,11.9
		C141.5,413.5,70.7,401.5,0,398.6v41.6C70.8,441.8,141.5,452.6,212.3,452z"/>
	<path fill="#404041" d="M769,427.9l129.1-4l27.4-2.3l-0.7-5l0.1-1.4v-9.3l6.8,0.9l-3.7-6.7l-14.1-3.8c0,0-2.6-5.2-8.3-6.7
		c-5.7-1.6-72.9,1-72.9,1l-4.3,5.7l13.9,1l4.4,5.7l-1.4,4.5l-17.2-0.7l-0.3,2.8l-94.7,0.9l4.7,5.8l23.1,11.5L769,427.9L769,427.9z"
		/>
	<g>
		<g>
			<g enable-background="new    ">
				<g>
					<defs>
						<polygon id="SVGID_5_" points="247.7,500.3 251.1,74.4 809.6,147.7 727.3,422.8 						"/>
					</defs>
					<clipPath id="SVGID_3_">
						<use xlink:href="#SVGID_5_"  overflow="visible"/>
					</clipPath>
					<g clip-path="url(#SVGID_3_)">
						<g>
							<g>
								<g>
									<path fill="#3FB4FF" d="M709.4,402.4c-0.1,2-0.1,4-0.2,6c0,2-0.1,3.9-0.1,5.9c0,1.9,0,3.9,0,5.8c0,1.9,0,3.8,0.1,5.7
										c1.9-1.5,3.8-2.9,5.7-4.4c1.9-1.5,3.8-2.9,5.6-4.3c1.9-1.4,3.7-2.9,5.6-4.3c1.9-1.4,3.7-2.8,5.6-4.2
										c-1.8-0.4-3.7-0.9-5.5-1.4c-1.8-0.5-3.7-1-5.5-1.5c-1.9-0.5-3.7-1-5.6-1.6C713.1,403.5,711.2,403,709.4,402.4"/>
									<path fill="#009245" d="M686,395c-0.1,2.2-0.2,4.3-0.3,6.5c-0.1,2.1-0.2,4.2-0.2,6.4c-0.1,2.1-0.1,4.2-0.1,6.3
										c0,2.1,0,4.1,0,6.2c2-1.5,4-3,6-4.6c2-1.5,4-3,5.9-4.5c2-1.5,3.9-3,5.9-4.4c2-1.5,3.9-2.9,5.9-4.4
										c-1.9-0.6-3.8-1.1-5.7-1.7c-1.9-0.6-3.8-1.2-5.7-1.8c-1.9-0.6-3.9-1.2-5.8-1.9C689.9,396.3,688,395.6,686,395"/>
									<path fill="#D41440" d="M661.8,386c-0.2,2.3-0.3,4.7-0.4,7c-0.1,2.3-0.2,4.6-0.3,6.9c-0.1,2.3-0.2,4.5-0.3,6.8
										c-0.1,2.2-0.1,4.5-0.2,6.7c2.1-1.6,4.2-3.2,6.3-4.7c2.1-1.6,4.2-3.1,6.3-4.7c2.1-1.5,4.2-3.1,6.3-4.6
										c2.1-1.5,4.2-3,6.2-4.5c-2-0.7-3.9-1.4-5.9-2.1c-2-0.7-4-1.4-6-2.2c-2-0.7-4-1.5-6-2.3C665.9,387.6,663.9,386.8,661.8,386"
										/>
									<path fill="#F1861E" d="M636.7,375.4c-0.2,2.5-0.4,5.1-0.6,7.6c-0.2,2.5-0.3,5-0.5,7.5c-0.1,2.5-0.3,4.9-0.4,7.4
										c-0.1,2.4-0.2,4.8-0.3,7.2c2.2-1.6,4.5-3.3,6.7-4.9c2.2-1.6,4.5-3.2,6.7-4.8c2.2-1.6,4.4-3.2,6.6-4.7
										c2.2-1.6,4.4-3.1,6.6-4.7c-2-0.8-4.1-1.6-6.1-2.5c-2.1-0.8-4.1-1.7-6.2-2.6c-2.1-0.9-4.2-1.8-6.3-2.7
										C640.9,377.2,638.8,376.3,636.7,375.4"/>
									<path fill="#3FB4FF" d="M610.6,363c-0.3,2.7-0.5,5.5-0.8,8.2c-0.2,2.7-0.5,5.4-0.7,8.1c-0.2,2.7-0.4,5.3-0.5,8
										c-0.2,2.6-0.3,5.2-0.4,7.8c2.4-1.7,4.8-3.4,7.1-5.1c2.4-1.7,4.7-3.3,7.1-5c2.4-1.6,4.7-3.3,7.1-4.9c2.3-1.6,4.7-3.2,7-4.8
										c-2.1-1-4.2-1.9-6.4-2.9c-2.1-1-4.3-2-6.4-3c-2.2-1-4.3-2.1-6.5-3.1C615,365.2,612.8,364.1,610.6,363"/>
									<path fill="#009245" d="M583.3,348.6c-0.3,3-0.7,5.9-1,8.9c-0.3,2.9-0.6,5.8-0.8,8.7c-0.3,2.9-0.5,5.8-0.7,8.6
										c-0.2,2.8-0.4,5.7-0.6,8.5c2.5-1.8,5.1-3.5,7.6-5.2c2.5-1.7,5-3.4,7.6-5.2c2.5-1.7,5-3.4,7.5-5.1c2.5-1.7,5-3.3,7.5-5
										c-2.2-1.1-4.4-2.2-6.7-3.4c-2.2-1.1-4.5-2.3-6.7-3.5c-2.3-1.2-4.5-2.4-6.8-3.6C587.9,351.1,585.6,349.9,583.3,348.6"/>
									<path fill="#D41440" d="M554.8,331.9c-0.4,3.2-0.8,6.4-1.2,9.6c-0.4,3.2-0.7,6.3-1,9.5c-0.3,3.1-0.6,6.2-0.9,9.3
										c-0.3,3.1-0.5,6.2-0.8,9.2c2.7-1.8,5.4-3.6,8.1-5.4c2.7-1.8,5.4-3.6,8.1-5.3c2.7-1.8,5.3-3.5,8-5.2
										c2.7-1.7,5.3-3.4,7.9-5.1c-2.3-1.3-4.6-2.6-6.9-3.9c-2.3-1.3-4.7-2.7-7-4.1c-2.4-1.4-4.7-2.8-7.1-4.2
										C559.6,334.8,557.2,333.4,554.8,331.9"/>
									<path fill="#F1861E" d="M524.9,312.7c-0.5,3.5-1,7-1.4,10.4c-0.5,3.4-0.9,6.9-1.3,10.3c-0.4,3.4-0.8,6.8-1.1,10.1
										c-0.4,3.3-0.7,6.7-1,10c2.9-1.9,5.8-3.7,8.7-5.6c2.9-1.8,5.8-3.7,8.6-5.5c2.9-1.8,5.7-3.6,8.6-5.4c2.8-1.8,5.7-3.6,8.5-5.3
										c-2.4-1.5-4.8-3-7.3-4.5c-2.4-1.5-4.9-3.1-7.3-4.7c-2.5-1.6-4.9-3.2-7.4-4.8C529.9,316,527.4,314.4,524.9,312.7"/>
									<path fill="#3FB4FF" d="M493.8,290.8c-0.6,3.8-1.2,7.5-1.7,11.3c-0.5,3.7-1.1,7.4-1.6,11.1c-0.5,3.7-1,7.3-1.4,11
										c-0.4,3.6-0.8,7.2-1.2,10.8c3.1-1.9,6.2-3.9,9.3-5.8c3.1-1.9,6.2-3.8,9.3-5.7c3.1-1.9,6.1-3.7,9.2-5.6
										c3-1.8,6.1-3.7,9.1-5.5c-2.5-1.7-5.1-3.4-7.6-5.2c-2.6-1.8-5.1-3.5-7.7-5.3c-2.6-1.8-5.2-3.7-7.8-5.5
										C499,294.7,496.4,292.8,493.8,290.8"/>
									<path fill="#009245" d="M460.9,265.7c-0.7,4.1-1.4,8.2-2.1,12.2c-0.7,4-1.3,8.1-1.9,12.1c-0.6,4-1.2,8-1.7,11.9
										c-0.5,3.9-1,7.8-1.5,11.7c3.4-2,6.7-4,10-6c3.3-2,6.6-3.9,9.9-5.8c3.3-1.9,6.6-3.8,9.9-5.7c3.3-1.9,6.5-3.8,9.8-5.6
										c-2.7-1.9-5.3-3.9-8-5.9c-2.7-2-5.4-4.1-8.1-6.1c-2.7-2.1-5.4-4.2-8.2-6.3C466.4,270.1,463.7,267.9,460.9,265.7"/>
									<path fill="#D41440" d="M426.3,237c-0.8,4.4-1.6,8.9-2.4,13.3c-0.8,4.4-1.5,8.8-2.2,13.1c-0.7,4.3-1.4,8.6-2,12.9
										c-0.6,4.3-1.2,8.5-1.8,12.8c3.6-2.1,7.2-4.1,10.8-6.1c3.6-2,7.2-4,10.7-6c3.6-2,7.1-3.9,10.6-5.9c3.5-1.9,7-3.8,10.5-5.7
										c-2.8-2.2-5.6-4.5-8.4-6.8c-2.8-2.3-5.7-4.6-8.5-7c-2.9-2.4-5.7-4.8-8.6-7.2C432.1,242,429.2,239.5,426.3,237"/>
									<path fill="#F1861E" d="M389.7,204.3c-1,4.8-1.9,9.6-2.8,14.4c-0.9,4.8-1.8,9.5-2.6,14.2c-0.8,4.7-1.6,9.4-2.4,14.1
										c-0.8,4.6-1.5,9.3-2.2,13.9c3.9-2.1,7.8-4.2,11.7-6.3c3.9-2.1,7.7-4.1,11.6-6.1c3.8-2,7.7-4,11.5-6c3.8-2,7.6-3.9,11.4-5.9
										c-2.9-2.5-5.9-5.1-8.9-7.7c-3-2.6-6-5.3-9-8c-3-2.7-6-5.4-9.1-8.2C395.9,210,392.8,207.2,389.7,204.3"/>
									<path fill="#3FB4FF" d="M351.4,167.3c-1.2,5.2-2.3,10.5-3.3,15.7c-1.1,5.2-2.1,10.3-3.1,15.5c-1,5.1-1.9,10.2-2.8,15.3
										c-0.9,5.1-1.8,10.1-2.6,15.1c4.2-2.2,8.5-4.3,12.7-6.4c4.2-2.1,8.4-4.2,12.6-6.2c4.2-2.1,8.3-4.1,12.4-6.1
										c4.1-2,8.2-4,12.3-6c-3.1-2.9-6.2-5.8-9.3-8.8c-3.1-3-6.3-6-9.5-9.1c-3.2-3.1-6.4-6.2-9.6-9.4
										C357.9,173.7,354.6,170.5,351.4,167.3"/>
									<path fill="#009245" d="M310.4,124.9c-1.3,5.7-2.7,11.4-3.9,17c-1.3,5.6-2.5,11.3-3.6,16.8c-1.2,5.6-2.3,11.1-3.3,16.6
										c-1.1,5.5-2.1,11-3.1,16.5c4.6-2.2,9.2-4.3,13.8-6.5c4.6-2.1,9.1-4.2,13.7-6.3c4.5-2.1,9-4.1,13.5-6.2c4.5-2,8.9-4,13.4-6
										c-3.3-3.3-6.6-6.6-9.9-10c-3.3-3.4-6.7-6.8-10-10.3c-3.4-3.5-6.8-7.1-10.2-10.7C317.3,132.2,313.9,128.6,310.4,124.9"/>
									<path fill="#D41440" d="M266.9,76.5c-1.6,6.2-3.1,12.4-4.6,18.5c-1.5,6.1-2.9,12.3-4.3,18.4c-1.4,6.1-2.7,12.1-3.9,18.2
										c-1.3,6-2.5,12-3.6,18c5.1-2.2,10.1-4.4,15.1-6.6c5-2.1,10-4.3,14.9-6.4c4.9-2.1,9.9-4.2,14.8-6.2c4.9-2,9.7-4,14.6-6
										c-3.5-3.8-7-7.6-10.5-11.4c-3.5-3.9-7.1-7.8-10.7-11.8c-3.6-4-7.2-8.1-10.8-12.2C274.3,84.9,270.6,80.7,266.9,76.5"/>
								</g>
							</g>
						</g>
					</g>
				</g>
			</g>
		</g>
	</g>
	<g>
		<circle fill="#E6E6E6" cx="1508.5" cy="465.8" r="2.9"/>
		<circle fill="#E6E6E6" cx="1478.4" cy="468.4" r="4.4"/>
		<circle fill="#E6E6E6" cx="1492.1" cy="457.1" r="7.1"/>
		<circle fill="#E6E6E6" cx="1527.3" cy="474.4" r="3.8"/>
		<circle fill="#E6E6E6" cx="1496.9" cy="472.8" r="2.1"/>
		<circle fill="#E6E6E6" cx="1542.9" cy="468.8" r="2.1"/>
	</g>
	<g>
		<path fill="#404041" d="M1489.1,401.5l-2.2-2.1l-26.9,28.6v-3.6v-2v-1h-55v-22h8v-7h-13v-30h-58l-21,30h-14v7h6v22h-219v1v2v4.3
			v5.7v2.2c0,29.3,23.7,52.8,53,52.8h289.3c13,0,23.6-10.3,23.6-23.4v-31.6v-2.1L1489.1,401.5z M1105,428.5h-8v-4h8V428.5z
			 M1116,428.5h-8v-4h8V428.5z M1127,428.5h-8v-4h8V428.5z M1138,428.5h-8v-4h8V428.5z M1149,428.5h-8v-4h8V428.5z M1160,428.5h-8
			v-4h8V428.5z M1171,428.5h-8v-4h8V428.5z M1182,428.5h-8v-4h8V428.5z M1193,428.5h-8v-4h8V428.5z M1204,428.5h-8v-4h8V428.5z
			 M1215,428.5h-8v-4h8V428.5z M1226,428.5h-8v-4h8V428.5z M1237,428.5h-8v-4h8V428.5z M1248,428.5h-8v-4h8V428.5z M1259,428.5h-8
			v-4h8V428.5z M1270,428.5h-8v-4h8V428.5z M1281,428.5h-8v-4h8V428.5z M1292,428.5h-8v-4h8V428.5z M1303,428.5h-8v-4h8V428.5z
			 M1306,424.5h7v4h-7V424.5z M1413,428.5h-8v-4h8V428.5z M1424,428.5h-8v-4h8V428.5z M1435,428.5h-8v-4h8V428.5z M1446,428.5h-8v-4
			h8V428.5z M1449,428.5v-4h8v4H1449z"/>
		
			<rect x="1486.5" y="405" transform="matrix(0.6897 -0.724 0.724 0.6897 161.7948 1210.588)" fill="#404041" width="14" height="23"/>
	</g>
	<circle fill="#E6E6E6" cx="1128.5" cy="446.7" r="4.2"/>
	<circle fill="#E6E6E6" cx="1151" cy="446.7" r="4.2"/>
	<circle fill="#E6E6E6" cx="1173.5" cy="446.7" r="4.2"/>
	<circle fill="#E6E6E6" cx="1359.5" cy="409.7" r="5.5"/>
	<circle fill="#E6E6E6" cx="868" cy="401.7" r="4.2"/>
	<g>
		<path fill="#0099CC" d="M218.8,545.2c77.6-0.5,155-10.5,232.6-11.1s155.3,8.3,232.9,7.8s155-10.5,232.6-11.1
			c77.6-0.5,155.3,8.3,232.9,7.8c77.6-0.5,155-10.5,232.6-11.1c72.4-0.5,145.3,7.2,217.8,7.8v-60.2c-72.7-1.5-144.9-10.3-217.6-10.8
			c-77.6-0.5-155.3,8.3-232.9,7.8c-77.6-0.5-155-10.5-232.6-11.1c-77.6-0.5-155.3,8.3-232.9,7.8c-77.6-0.5-155-10.5-232.6-11.1
			c-77.6-0.5-155.3,8.3-232.9,7.8C145.9,465,72.8,456.2,0,454.7v82.7C73,537.8,145.7,545.7,218.8,545.2z"/>
	</g>
	<polygon fill="#E6E6E6" points="819.5,495.5 799.7,520.3 780,495.5 	"/>
	<circle fill="#E6E6E6" cx="345.9" cy="454.1" r="3.8"/>
	<circle fill="#E6E6E6" cx="356.1" cy="385.3" r="2.9"/>
	<circle fill="#E6E6E6" cx="346.6" cy="439.8" r="4.4"/>
	<circle fill="#E6E6E6" cx="340.7" cy="417.9" r="7.1"/>
	<g id="animal_1_">
		<g>
			<path fill="#404041" d="M392,455.5l-8.7,5c-1.7-1.5-4.3-2.6-7.2-3.2l0.9-3.3l-7.4,1l-0.8,2.1c-6.3,0.8-11.1,4-11.1,7.8
				c0,0,0,0,0,0c-0.5,0.3-0.7,0.9-0.7,1.5c0,1,0.9,1.9,1.9,1.9c0.1,0,0.1,0,0.2,0c2,2.4,6,4.2,10.8,4.5l1.8,2.2l3.1-2.4
				c3.5-0.5,6.5-1.7,8.5-3.3l8.7,5V455.5z"/>
			<path fill="#FFFFFF" d="M369.1,463.3c0,1.8-1.4,3.2-3.2,3.2c-1.8,0-3.2-1.4-3.2-3.2c0-1.8,1.4-3.2,3.2-3.2
				C367.7,460.1,369.1,461.6,369.1,463.3z"/>
			<path fill="#3C3C3B" d="M367.7,463.3c0,0.9-0.8,1.7-1.7,1.7c-0.9,0-1.7-0.8-1.7-1.7c0-0.9,0.8-1.7,1.7-1.7
				C366.9,461.6,367.7,462.4,367.7,463.3z"/>
		</g>
	</g>
</g>
<g id="on-river-fg">
</g>
<g id="logo">
</g>
</svg>
