<svg id="svg-source" height="0" version="1.1" 
  xmlns="http://www.w3.org/2000/svg" style="position:absolute; margin-left: -100%" 
  xmlns:xlink="http://www.w3.org/1999/xlink">
  <g id="link" data-iconmelon="Batch:60bde6e17d0f4bb1d4dc1b8158dae8ea">
    <path id="link"  d="M30.246,13.052l-2.953,2.949c-1.842,1.841-4.574,2.21-6.797,1.152l6.797-6.799
	c0.78-0.781,0.78-2.045,0-2.824l-2.821-2.827c-0.781-0.781-2.043-0.781-2.824,0l-6.798,6.801c-1.059-2.224-0.689-4.958,1.151-6.801
	l2.947-2.95c2.341-2.338,6.134-2.338,8.471,0l2.827,2.823C32.583,6.918,32.583,10.712,30.246,13.052z M10.354,21.646
	c-0.78-0.781-0.78-2.043,0-2.823l8.471-8.471c0.781-0.781,2.044-0.781,2.823,0c0.781,0.78,0.781,2.042,0,2.823l-8.47,8.471
	C12.398,22.428,11.133,22.428,10.354,21.646z M4.705,24.472l2.823,2.823c0.78,0.781,2.043,0.781,2.823,0l6.802-6.801
	c1.059,2.225,0.688,4.958-1.152,6.801l-2.7,2.95c-2.34,2.34-6.132,2.34-8.473,0l-3.074-3.073c-2.338-2.34-2.338-6.132,0-8.473
	L4.703,16c1.845-1.841,4.576-2.21,6.803-1.152l-6.801,6.799C3.926,22.428,3.926,23.693,4.705,24.472z"></path>
  </g>
</svg>