<?xml version="1.0" encoding="utf-8"?>
<!-- Generator: Adobe Illustrator 17.1.0, SVG Export Plug-In . SVG Version: 6.00 Build 0)  -->
<!DOCTYPE svg PUBLIC "-//W3C//DTD SVG 1.1//EN" "http://www.w3.org/Graphics/SVG/1.1/DTD/svg11.dtd">
<svg version="1.1" xmlns="http://www.w3.org/2000/svg" xmlns:xlink="http://www.w3.org/1999/xlink" x="0px" y="0px"
	 viewBox="0 0 300 300" enable-background="new 0 0 300 300" xml:space="preserve">
<g id="Layer_1">
</g>
<g id="nyt_x5F_exporter_x5F_info">
	<g>
		<g>
			<g>
				<polygon fill="#404041" points="224,272 224,227 210,227 210,283 233,283 233,272 				"/>
				<path fill="#404041" d="M161.1,247.8c-2.2-1.3-3.6-2.5-4.1-3.4c-0.5-0.9-0.8-2.3-0.8-4.2c0-1.4,0.2-2.5,0.7-3.2
					c0.4-0.7,1.1-1.1,2-1.1c0.8,0,1.3,0.3,1.7,0.8c0.3,0.5,0.5,1.8,0.5,3.7v3.6h13v-1.7c0-4.4-0.2-7.5-1-9.4
					c-0.9-1.8-2.5-3.4-5.1-4.6c-2.6-1.2-5.8-1.8-9.5-1.8c-3.4,0-6.3,0.6-8.8,1.7c-2.4,1.1-4.2,2.6-5.3,4.6c-1.1,2-1.6,5.1-1.6,9.3
					c0,3,0.4,5.4,1.2,7.3c0.8,1.9,1.7,3.4,2.9,4.5c1.2,1.1,3.5,2.8,7.1,5.2c3.6,2.4,5.8,4,6.8,5c0.9,1,1.3,3.1,1.3,6.4
					c0,1.5-0.2,2.6-0.7,3.4c-0.5,0.8-1.2,1.1-2.1,1.1s-1.4-0.3-1.8-0.9c-0.4-0.6-0.4-1.9-0.4-4V263h-14v4c0,4.2,0.5,7.4,1.3,9.6
					c0.8,2.3,2.7,4.1,5.4,5.6c2.7,1.5,6.1,2.2,9.9,2.2c3.5,0,6.6-0.6,9.3-1.9c2.7-1.3,4.4-2.8,5.4-4.7c0.9-1.9,1.4-4.8,1.4-8.8
					c0-5.4-0.8-9.4-2.5-11.8C171.5,254.7,167.5,251.6,161.1,247.8z"/>
				<polygon fill="#404041" points="195,260 203,260 203,249 195,249 195,238 204,238 204,227 180,227 180,283 206,283 206,272 
					195,272 				"/>
				<path fill="#404041" d="M94.4,253.2c3-0.7,5-1.7,6-2.9c1-1.3,1.5-3.5,1.5-6.8c0-4.8-0.7-8.3-2.2-10.4c-1.4-2.2-3.3-3.9-5.7-4.6
					c-2.3-0.7-5.8-1.4-10.3-1.4H69v56h17.1c5.8,0,9.7-0.2,11.5-0.9c1.9-0.7,3.2-1.8,4.1-3.7c0.9-1.8,1.3-4.5,1.3-8.3V265
					c0-3.6-0.6-6.3-1.8-8.1C100,255.2,97.8,254,94.4,253.2z M89,268.5c0,2.2-0.4,3.7-1,4.2c-0.6,0.6-2,0.9-4,1v-15.5
					c2,0.1,3.6,0.4,4.1,0.9c0.5,0.5,0.9,1.9,0.9,4.3V268.5z M88,248.4c-0.4,0.7-1.2,1-2.6,1c-0.3,0-0.4,0-1.4,0v-12.4
					c2,0,2.4,0.1,2.9,0.3c0.5,0.2,0.9,0.6,1.2,1.3c0.3,0.7,0.5,1.9,0.5,3.7C88.6,245.7,88.4,247.7,88,248.4z"/>
				<path fill="#404041" d="M112.3,227l-7.4,56h14.9l0.9-10h5.2l0.8,10h14.8l-8.3-56H112.3z M120.6,263c0.4-5,1.3-12.7,2.8-23.3
					c0.7,9.3,1.5,17.3,2.2,23.3H120.6z"/>
			</g>
			<g>
				<path fill="#404041" d="M179.6,205.8c0.4,0,0.8-0.1,1.1-0.2c0.3-0.1,0.6-0.3,0.8-0.5c0.2-0.2,0.4-0.5,0.4-0.7
					c0.1-0.3,0.1-0.6,0.1-0.8c0-0.3-0.1-0.6-0.2-0.8c-0.1-0.2-0.3-0.4-0.5-0.6c-0.2-0.1-0.4-0.2-0.7-0.3c-0.3-0.1-0.5-0.1-0.8-0.1
					c-0.5,0-0.9,0.1-1.2,0.2c-0.3,0.1-0.6,0.3-0.8,0.6c-0.2,0.2-0.3,0.5-0.4,0.7c-0.1,0.2-0.1,0.5-0.1,0.7c0,0.6,0.2,1.1,0.5,1.4
					C178.3,205.6,178.9,205.8,179.6,205.8z"/>
				<path fill="#404041" d="M139.1,217.6c0.3,0.7,0.6,1.2,1,1.6c0.4,0.4,0.8,0.5,1.4,0.5c0.5,0,0.9-0.1,1.4-0.3
					c0.5-0.2,0.9-0.5,1.3-0.8c0.1-0.1,0.1-0.1,0.2-0.2c0,0,0,0,0,0c0.3,0.4,0.6,0.7,1,1c0.4,0.2,0.9,0.4,1.4,0.4
					c0.4,0,0.8-0.1,1.2-0.2c0.4-0.1,0.8-0.3,1.2-0.5c0.4-0.2,0.7-0.4,1.1-0.7c0.4-0.3,0.7-0.6,1-0.9c0.2,0.5,0.4,0.9,0.7,1.2
					c0.3,0.3,0.6,0.5,0.8,0.7c0.3,0.2,0.5,0.3,0.8,0.3c0.2,0.1,0.4,0.1,0.5,0.1c0.2,0,0.4,0,0.7-0.1c0.3-0.1,0.5-0.2,0.8-0.3
					c0.3-0.1,0.5-0.2,0.8-0.4c0.3-0.1,0.5-0.3,0.8-0.5c0.5-0.3,0.9-0.6,1.4-1c0.1,0.2,0.2,0.4,0.4,0.6c0.4,0.5,0.9,0.9,1.5,1.2
					c0.6,0.3,1.3,0.4,2.1,0.4c0.5,0,1-0.1,1.5-0.2c0.5-0.1,1-0.3,1.4-0.5c0.5-0.2,0.9-0.4,1.3-0.7c0.4-0.2,0.8-0.5,1.2-0.8
					c0.8-0.6,1.6-1.3,2.4-2.1l-1.7-1.7c-0.3,0.3-0.7,0.7-1.2,1c-0.5,0.4-1,0.7-1.5,1c-0.5,0.3-1.1,0.6-1.7,0.8
					c-0.6,0.2-1.1,0.3-1.6,0.3c-0.2,0-0.3,0-0.5-0.1c-0.1,0-0.3-0.1-0.4-0.2c-0.1-0.1-0.3-0.2-0.4-0.4c-0.1-0.2-0.3-0.3-0.4-0.6
					c0.7-0.2,1.4-0.5,2.1-0.9c0.6-0.4,1.2-0.8,1.6-1.3c0.5-0.5,0.8-1,1.1-1.5c0.3-0.5,0.4-1.1,0.4-1.6c0-0.5-0.1-0.9-0.3-1.3
					c-0.2-0.4-0.4-0.7-0.7-1c-0.3-0.3-0.7-0.5-1.1-0.6c-0.4-0.2-0.9-0.2-1.3-0.2c-0.6,0-1.1,0.1-1.6,0.3c-0.5,0.2-0.9,0.5-1.3,0.8
					c-0.4,0.4-0.7,0.8-1,1.2c-0.3,0.5-0.5,1-0.7,1.5c-0.2,0.5-0.3,1-0.4,1.6c-0.1,0.5-0.1,1-0.1,1.5c0,0.2,0,0.3,0,0.5
					c-0.2,0.2-0.5,0.4-0.7,0.5c-0.2,0.1-0.4,0.3-0.6,0.4c-0.2,0.1-0.4,0.3-0.6,0.4c-0.2,0.1-0.4,0.2-0.6,0.3
					c-0.2,0.1-0.4,0.1-0.5,0.1c-0.2,0-0.3-0.1-0.4-0.2c-0.1-0.1-0.2-0.2-0.3-0.4c-0.1-0.2-0.1-0.4-0.1-0.6c0-0.2,0-0.5,0-0.7
					c0-0.2,0-0.4,0-0.6c0-0.2,0.1-0.4,0.1-0.6c0-0.2,0.1-0.4,0.1-0.6c0-0.2,0.1-0.3,0.1-0.4c0.4-1.1,0.9-2.1,1.4-3.1
					c0.5-1,0.9-2,1.3-3c0.4-1,0.8-2.1,1-3.1c0.3-1.1,0.5-2.2,0.6-3.4c0-0.3,0-0.6,0-0.9c0-0.5,0-1-0.1-1.4c-0.1-0.5-0.2-0.9-0.4-1.2
					c-0.2-0.3-0.4-0.6-0.7-0.8c-0.3-0.2-0.6-0.3-1-0.3c-0.5,0-1.1,0.2-1.6,0.5c-0.5,0.3-1,0.8-1.4,1.4c-0.5,0.6-0.9,1.3-1.2,2.1
					c-0.4,0.8-0.7,1.7-1,2.7c-0.3,1-0.5,2-0.7,3c-0.2,1.1-0.3,2.1-0.3,3.2c-0.6,0.1-1.3,0.2-1.8,0.4c-0.6,0.2-1.1,0.5-1.6,0.9
					c-0.5,0.4-0.9,0.8-1.3,1.2c-0.4,0.5-0.7,1-1,1.5c-0.3,0.5-0.5,1.1-0.6,1.6c-0.1,0.6-0.2,1.1-0.2,1.7c0,0.1,0,0.2,0,0.4
					c0,0,0,0,0,0c-0.2,0.2-0.4,0.3-0.6,0.5c-0.2,0.1-0.4,0.3-0.6,0.4c-0.2,0.1-0.4,0.1-0.6,0.1c-0.2,0-0.4-0.1-0.5-0.3
					c-0.1-0.2-0.1-0.5-0.1-0.9c0-0.5,0-1,0.1-1.5c0.1-0.5,0.2-1.1,0.3-1.6c0.1-0.5,0.2-1,0.3-1.5c0.1-0.5,0.1-1,0.1-1.4
					c0-0.3,0-0.5-0.1-0.6c0-0.2-0.1-0.3-0.2-0.4c-0.1-0.1-0.2-0.1-0.3-0.2c-0.1,0-0.2,0-0.4,0c-0.1,0-0.2,0-0.3,0
					c-0.1,0-0.2,0-0.3,0c-0.1,0-0.2,0-0.3,0c-0.1,0-0.2,0-0.3-0.1c-0.1,0-0.2-0.1-0.3-0.2c-0.1-0.1-0.1-0.2-0.2-0.3
					c-0.1-0.1-0.2-0.2-0.3-0.3c-0.1-0.1-0.3-0.1-0.5-0.1c-0.6,0-1.2,0.1-1.7,0.4c-0.6,0.3-1.1,0.6-1.6,1c-0.5,0.4-1,0.9-1.4,1.5
					c-0.4,0.6-0.8,1.2-1.1,1.8c-0.3,0.6-0.6,1.3-0.7,2c0,0.1,0,0.2-0.1,0.3c-0.1,0.2-0.3,0.4-0.4,0.5c-0.2,0.2-0.4,0.5-0.6,0.7
					c-0.2,0.2-0.4,0.4-0.6,0.6c-0.2,0.2-0.4,0.3-0.7,0.4c-0.2,0.1-0.4,0.2-0.6,0.2c-0.4,0-0.6-0.1-0.8-0.3c-0.2-0.2-0.3-0.6-0.3-1.1
					c0-0.4,0-0.9,0.1-1.4c0.1-0.6,0.2-1.1,0.4-1.8c0.1-0.6,0.3-1.3,0.5-2.1c0.2-0.7,0.3-1.5,0.5-2.2c0.1-0.8,0.3-1.5,0.4-2.3
					c0.1-0.8,0.1-1.5,0.1-2.3c0-0.8-0.1-1.5-0.2-2.2c-0.1-0.7-0.4-1.3-0.6-1.8c-0.3-0.5-0.6-0.9-1-1.2c-0.4-0.3-0.9-0.5-1.4-0.5
					c-0.8,0-1.5,0.2-2.2,0.6c-0.7,0.4-1.4,0.9-2,1.6c-0.6,0.7-1.2,1.6-1.6,2.6c-0.5,1-0.9,2.1-1.2,3.4l-0.3,0
					c0.1-0.6,0.1-1.2,0.2-1.7c0-0.2,0.1-0.4,0.1-0.6c0-0.2,0.1-0.4,0.1-0.6c0-0.2,0-0.4,0.1-0.5c0-0.1,0-0.3,0-0.3
					c0-0.8-0.1-1.4-0.2-1.9c-0.1-0.5-0.3-1-0.6-1.4c-0.2-0.4-0.5-0.6-0.9-0.8c-0.3-0.2-0.7-0.3-1.1-0.3c-0.5,0-1.1,0.1-1.6,0.4
					c-0.5,0.3-1.1,0.7-1.6,1.2c-0.5,0.5-1,1.2-1.5,1.9c-0.5,0.7-1,1.6-1.4,2.5c-0.4,0.9-0.8,1.9-1.2,2.9c-0.4,1-0.7,2.1-1,3.3
					c0.1-0.6,0.3-1.3,0.4-2c0.1-0.7,0.3-1.4,0.4-2.1c0.1-0.7,0.2-1.4,0.3-2c0.1-0.6,0.1-1.2,0.1-1.7c0-0.6,0-1.2-0.1-1.7
					c-0.1-0.5-0.2-0.9-0.4-1.3c-0.2-0.4-0.5-0.6-0.8-0.8c-0.4-0.2-0.8-0.3-1.3-0.3c-0.4,0-0.8,0.1-1.3,0.3c-0.4,0.2-0.9,0.5-1.3,0.9
					c-0.4,0.4-0.8,0.9-1.2,1.6c-0.4,0.7-0.7,1.5-1,2.5c0,0-0.1,0.1-0.1,0.1c0,0.1,0,0.2,0,0.3c0,0.1,0.1,0.2,0.1,0.3
					c0,0.1,0.1,0.2,0.1,0.3c0,0.1,0.1,0.1,0.1,0.1c0.1,0,0.3,0,0.4-0.1c0.1-0.1,0.2-0.1,0.2-0.3c0.3-0.4,0.6-0.7,0.9-1
					c0.3-0.3,0.6-0.6,1-0.8c0.3-0.2,0.6-0.4,0.9-0.6c0.3-0.1,0.5-0.2,0.7-0.2c0.1,0,0.2,0,0.3,0.1c0.1,0.1,0.4,0.2,0.4,0.3
					c0,0.1,0.3,0.2,0.3,0.3c0,0.1,0,0.2,0,0.3c-2,0.9-0.4,1.7-0.4,2.5c-0.1,0.8-0.2,1.5-0.3,2.3c-0.1,0.7-0.2,1.5-0.3,2.2
					c-0.1,0.7-0.2,1.5-0.4,2.2c-0.1,0.8-0.3,1.6-0.5,2.4c-0.2,0.9-0.4,1.8-0.6,2.8c-0.1,0.3-0.1,0.6-0.2,0.9c0,0.3-0.1,0.6-0.1,1
					c0,0.2,0,0.3,0.1,0.5c0.1,0.1,0.2,0.3,0.4,0.4c0.2,0.1,0.3,0.2,0.6,0.2c0.2,0,0.4,0.1,0.6,0.1c0.2,0,0.4,0,0.6-0.1
					c0.2,0,0.4-0.1,0.6-0.2c0.2-0.1,0.3-0.2,0.5-0.4c0.1-0.2,0.2-0.4,0.2-0.6c0.1-0.8,0.3-1.7,0.5-2.6c0.2-0.9,0.5-1.9,0.8-2.9
					c0.3-1,0.6-2,1-2.9c0.3-1,0.7-1.9,1.1-2.8c0.4-0.9,0.7-1.7,1.1-2.5c0.4-0.8,0.7-1.4,1.1-2c0.4-0.6,0.7-1,1-1.3
					c0.3-0.3,0.6-0.5,0.8-0.5c0.3,0,0.5,0.1,0.7,0.2c0.2,0.2,0.3,0.4,0.4,0.7c0.1,0.3,0.2,0.6,0.2,1.1c0,0.4,0,0.9,0,1.4
					c0,0.8-0.1,1.6-0.2,2.5c-0.1,0.9-0.2,1.8-0.4,2.8c-0.2,0.9-0.3,1.9-0.5,2.8c-0.2,0.9-0.4,1.7-0.5,2.5c-0.2,0.8-0.3,1.4-0.4,1.9
					c-0.1,0.5-0.2,0.9-0.2,1.1c0,0.3,0,0.6,0.1,0.8c0.1,0.2,0.2,0.4,0.3,0.6c0.1,0.1,0.3,0.3,0.5,0.3c0.2,0.1,0.4,0.1,0.5,0.1
					c0.2,0,0.4,0,0.6-0.1c0.2,0,0.4-0.1,0.6-0.2c0.2-0.1,0.3-0.2,0.5-0.4c0.1-0.2,0.2-0.4,0.3-0.6c0.2-0.9,0.3-1.8,0.5-2.7
					c0.2-1,0.4-1.9,0.6-2.9c0.2-1,0.4-2,0.7-2.9c0.2-1,0.5-1.9,0.8-2.8c0.3-0.9,0.6-1.7,0.9-2.5c0.3-0.8,0.6-1.4,1-2
					c0.4-0.6,0.7-1,1.1-1.3c0.4-0.3,0.8-0.5,1.3-0.5c0.2,0,0.4,0.1,0.6,0.2c0.1,0.1,0.3,0.3,0.3,0.5c0.1,0.2,0.1,0.5,0.2,0.8
					c0,0.3,0,0.7,0,1c0,0.6,0,1.3-0.1,2c-0.1,0.7-0.2,1.4-0.3,2.1c-0.1,0.7-0.3,1.4-0.4,2.1c-0.2,0.7-0.3,1.4-0.4,2.1
					c-0.1,0.7-0.3,1.3-0.4,2c-0.1,0.6-0.2,1.3-0.2,1.8c0,0.1,0,0.2,0,0.2c0,0.1,0,0.1,0,0.2c0,0.6,0.1,1.2,0.3,1.6
					c0.2,0.5,0.5,0.9,0.8,1.2c0.3,0.3,0.7,0.6,1.2,0.7c0.4,0.2,0.9,0.2,1.4,0.2c0.5,0,1-0.1,1.4-0.2c0.5-0.1,1-0.4,1.4-0.7
					c0.3-0.2,0.7-0.5,1-0.9c0.2,0.3,0.3,0.6,0.6,0.8c0.3,0.3,0.6,0.6,1,0.7c0.4,0.2,0.8,0.3,1.2,0.3c0.4,0,0.8-0.1,1.2-0.2
					c0.4-0.1,0.8-0.3,1.1-0.5c0.4-0.2,0.7-0.4,1-0.7C138.6,218.1,138.9,217.9,139.1,217.6z M161,213c0-0.3,0.1-0.5,0.1-0.8
					c0.1-0.3,0.1-0.6,0.2-0.8c0.1-0.3,0.2-0.5,0.4-0.7c0.2-0.2,0.4-0.4,0.7-0.5c0.3-0.1,0.6-0.2,0.9-0.2c0.2,0,0.4,0.1,0.5,0.4
					c0.1,0.2,0.2,0.6,0.2,0.9c0,0.3-0.1,0.6-0.3,0.8c-0.2,0.3-0.5,0.6-0.8,0.8c-0.3,0.2-0.6,0.5-1,0.6c-0.4,0.2-0.7,0.2-1,0.2
					C160.9,213.5,161,213.3,161,213z M153,209.9c0-0.1,0-0.3,0-0.6c0-0.2,0.2-0.5,0.2-0.8c0-0.3,0.1-0.7,0.1-1.1
					c0-0.4,0.1-0.8,0.1-1.2c0-0.2,0.1-0.6,0.1-1c0.1-0.5,0.1-1,0.2-1.6c0.1-0.6,0.2-1.2,0.3-1.9c0.1-0.6,0.3-1.2,0.5-1.8
					c0.2-0.5,0.4-1,0.6-1.3c0.2-0.3,0.5-0.5,0.7-0.5c0.2,0,0.3,0.1,0.4,0.3c0.1,0.2,0.1,0.5,0.1,1c0,0.4,0,0.8-0.1,1.4
					c0,0.5-0.1,0.9-0.2,1.4s-0.2,1-0.4,1.5c-0.1,0.5-0.3,1-0.5,1.6c-0.2,0.5-0.5,1-0.7,1.5c-0.4,1.1-1.5,2.2-1.5,3.3V209.9z
					 M146.9,214.1c0.2-0.5,0.4-1.1,0.7-1.6c0.3-0.5,0.7-1,1.1-1.5c0.4-0.4,0.9-0.8,1.5-1.1c0,0,0,0.1,0,0.3c0,0.2,0,0.4,0,0.7
					c0,0.3,0,0.6,0,0.9c0,0.3,0,0.7,0,1c0,0.3,0,0.6,0,0.9c0,0.3,0,0.5,0.1,0.6c-0.2,0.5-0.4,0.9-0.7,1.3c-0.1,0.2-0.2,0.3-0.3,0.5
					c-0.1,0.2-0.3,0.3-0.4,0.4c-0.1,0.1-0.3,0.2-0.4,0.3c-0.1,0.1-0.3,0.1-0.5,0.1c-0.3,0-0.5,0-0.7-0.1c-0.2-0.1-0.3-0.2-0.4-0.3
					c-0.1-0.1-0.2-0.3-0.2-0.5c0-0.2-0.1-0.3-0.1-0.5C146.7,215.1,146.8,214.7,146.9,214.1z M137.7,215.9c-0.2,0.4-0.4,0.7-0.7,1
					c-0.3,0.3-0.5,0.4-0.9,0.4c-0.2,0-0.4,0-0.5-0.1c-0.1-0.1-0.2-0.2-0.3-0.4c-0.1-0.2-0.1-0.3-0.2-0.5c0-0.2,0-0.4,0-0.6
					c0-0.4,0-0.8,0.1-1.2c0.1-0.4,0.2-0.9,0.4-1.3c0.2-0.4,0.4-0.8,0.6-1.2c0.2-0.4,0.5-0.7,0.8-1c0.3-0.3,0.6-0.5,0.9-0.7
					c0.3-0.2,0.7-0.3,1-0.3l-0.8,3.8c0,0.3-0.1,0.6-0.2,1C138,215.1,137.9,215.5,137.7,215.9z"/>
				<path fill="#404041" d="M177.4,219.7c0.5,0,1-0.1,1.6-0.3c0.6-0.2,1.1-0.4,1.6-0.7c0.5-0.3,1-0.6,1.5-0.9
					c0.1-0.1,0.2-0.1,0.3-0.2c0,0.1,0,0.2,0,0.3c0,0.3,0.1,0.6,0.2,0.9c0.1,0.3,0.3,0.5,0.5,0.6c0.2,0.1,0.5,0.2,0.8,0.2
					c0.3,0,0.5-0.1,0.7-0.2c0.2-0.1,0.4-0.4,0.6-0.8l3.4-6.7h0.2c-0.1,0-0.2,1.4-0.3,2c-0.1,0.6-0.1,1.2-0.1,1.7
					c0,1.3,0.2,2.3,0.5,3c0.3,0.7,0.7,1,1.2,1s0.9-0.1,1.3-0.2c0.4-0.1,0.8-0.3,1.2-0.5c0.4-0.2,0.8-0.4,1.1-0.7
					c0.4-0.3,0.7-0.5,1.1-0.8l0.6-0.5l-0.2-2.9c-0.5,0.5-1,1-1.4,1.4c-0.2,0.2-0.4,0.3-0.6,0.5c-0.2,0.2-0.4,0.3-0.6,0.4
					c-0.2,0.1-0.4,0.2-0.5,0.3c-0.2,0.1-0.3,0.1-0.4,0.1c-0.3,0-0.5-0.2-0.6-0.5c-0.1-0.3-0.2-0.8-0.2-1.3c0-0.3,0-0.7,0.1-1
					c0-0.4,0.1-0.8,0.1-1.1c0.1-0.4,0.1-0.8,0.2-1.1c0.1-0.4,0.1-0.7,0.2-1c0.1-0.3,0.1-0.6,0.1-0.8c0-0.2,0.1-0.4,0.1-0.5
					c0-0.6-0.1-1.1-0.4-1.5c-0.3-0.4-0.6-0.5-1-0.5c-0.4,0-0.8,0.1-1.2,0.3c-0.4,0.2-0.7,0.5-0.9,0.9c-0.1,0.1-0.1,0.3-0.3,0.5
					c-0.1,0.2-0.3,0.5-0.4,0.7c-0.1,0.3-0.3,0.6-0.5,0.9c-0.2,0.3-0.3,0.6-0.5,0.9c-0.1,0.3-0.3,0.1-0.4,0.4
					c-0.1,0.2-0.2,0.1-0.2,0.1h-0.3c0,0,0,0.2,0,0c0-0.2,0.1-0.2,0.1-0.4c0-0.2,0.1-0.4,0.1-0.7c0-0.3,0.1-0.5,0.1-0.8
					c0-0.3,0.1-0.5,0.1-0.7c0-0.2,0-0.4,0-0.5c0-0.5-0.1-0.8-0.3-1.1c-0.2-0.3-0.5-0.4-1-0.4s-0.8,0.1-1.1,0.4
					c-0.3,0.3-0.4,0.6-0.5,1c-0.1,0.5-0.2,1.1-0.4,1.8c-0.1,0.7-0.2,1.4-0.3,2.2c-0.1,0.8-0.2,1.5-0.3,2.2c-0.1,0-0.1,0.1-0.2,0.1
					c-0.4,0.3-0.7,0.6-1.1,0.9c-0.4,0.3-0.8,0.6-1.1,0.8c-0.4,0.2-0.7,0.3-1,0.3c-0.3,0-0.4-0.1-0.5-0.3c-0.1-0.2-0.1-0.5-0.1-0.9
					c0-0.4,0-0.8,0.1-1.3c0.1-0.5,0.2-1,0.3-1.5c0.1-0.5,0.3-1,0.4-1.5c0.1-0.5,0.3-1,0.4-1.4c0.1-0.4,0.2-0.8,0.3-1.2
					c0.1-0.4,0.1-0.6,0.1-0.8c0-0.2-0.1-0.4-0.2-0.5c-0.1-0.1-0.4-0.2-0.7-0.2c-0.2,0-0.4,0-0.7,0.1c-0.2,0-0.5,0.1-0.7,0.2
					c-0.2,0.1-0.4,0.2-0.6,0.4c-0.2,0.2-0.3,0.3-0.4,0.6c-0.2,0.6-0.3,1.3-0.5,2.1s-0.4,1.5-0.6,2.3c-0.2,0.8-0.3,1.5-0.5,2.2
					c-0.1,0.7-0.2,1.3-0.2,1.9c0,0.4,0,0.7,0.1,1.1c0.1,0.3,0.2,0.6,0.4,0.8c0.2,0.2,0.4,0.4,0.7,0.5S176.9,219.7,177.4,219.7z"/>
			</g>
		</g>
		<path fill="#404041" d="M161.5,30c-38.8-6.8-75.9,19.1-82.7,57.9s19.1,75.9,57.9,82.7s75.9-19.1,82.7-57.9S200.2,36.8,161.5,30z
			 M187.7,154.1c0-5.9-0.3-24.9-0.3-24.9L130.2,119c0,0-12.7,37.3-13.3,39.1c-24.1-13.4-38.2-40.9-33.2-69.6
			c1.9-11,6.5-20.7,12.8-29c1.3,3.3,6,9.5,12.2,12.2c6.4,2.8,12.3,4.4,19,1.7c7-2.9,12-10.3,11.8-17.9c-0.1-7.6-5.4-12.8-12.7-12.5
			c-3.6,0.1-6.9,3.1-7.2,6.3c0.8,0.1,4.1-0.1,4.9,3c0.4,1.5,0,2.8-1.3,3.7c-2.1,1.5-5,0.6-6.4-1.9c-2-3.7-0.7-8.6,2-11.7
			c2.8-3.3,9.4-7.2,17.8-3.3c18.8,8.6,8.2,37.2,5.9,45.6c15.7,2.8,31.4,5.5,47.2,8.3c1.3-9.7,1.2-35.4-3.2-47.1
			c20.7,14.3,32.5,39.4,27.8,65.9C211.3,129.7,201.4,144.3,187.7,154.1z M222.9,127.4c1.9-4.9,9.6-8.3,10.5-13.6
			c0.9-5.4-5.1-11.2-5.2-16.4c-0.1-5.4,5.7-11.5,4.5-16.6c-1.2-5.2-9-8.3-11.1-13.2c-2.2-4.9,0.9-12.7-2.2-17.1
			c-3.1-4.4-11.5-4.2-15.3-7.9c-3.8-3.7-4-12.1-8.5-15c-4.4-2.8-12.1,0.5-17.2-1.4c-4.9-1.9-8.3-9.6-13.6-10.5
			c-5.4-0.9-11.2,5.1-16.4,5.2c-5.4,0.1-11.5-5.7-16.6-4.5c-5.2,1.2-8.3,9-13.1,11.1c-4.9,2.2-12.7-0.9-17.1,2.2
			c-4.4,3.1-4.2,11.4-7.9,15.3c-3.7,3.8-12.1,4-15,8.5c-2.8,4.4,0.5,12.1-1.4,17.2c-1.9,4.9-9.6,8.3-10.5,13.6
			c-0.9,5.4,5.1,11.2,5.2,16.4c0.1,5.4-5.7,11.5-4.5,16.6c1.2,5.2,9,8.3,11.1,13.2c2.2,4.9-0.9,12.7,2.2,17.1
			c3.1,4.4,11.4,4.2,15.3,7.9c3.8,3.7,4,12.1,8.5,15c4.4,2.8,12.1-0.5,17.2,1.4c4.9,1.9,8.3,9.6,13.6,10.5
			c5.4,0.9,11.2-5.1,16.4-5.2c5.4-0.1,11.5,5.7,16.6,4.5c5.2-1.2,8.3-9,13.2-11.1c4.9-2.2,12.7,0.9,17.1-2.2
			c4.4-3.1,4.2-11.4,7.9-15.3c3.7-3.8,12.1-4,15-8.5C224.3,140.2,220.9,132.5,222.9,127.4z M136.7,170.6
			c-38.8-6.8-64.7-43.9-57.9-82.7s43.9-64.7,82.7-57.9s64.7,43.9,57.9,82.7S175.4,177.4,136.7,170.6z M186.7,46
			c4.4,11.6,4.5,37.4,3.2,47.1c-15.8-2.8-31.5-5.6-47.2-8.3c2.2-8.5,12.8-37.1-5.9-45.6c-8.4-3.9-15,0.1-17.8,3.4
			c-2.7,3.2-4,8-2,11.7c1.4,2.5,4.3,3.3,6.4,1.9c1.3-0.9,1.7-2.3,1.3-3.7c-0.8-3.1-4.1-2.9-4.9-3c0.3-3.2,3.6-6.2,7.2-6.3
			c7.3-0.2,12.5,5,12.7,12.6c0.1,7.7-4.8,15.1-11.8,17.9c-6.7,2.7-12.6,1.1-19-1.7c-6.2-2.7-10.9-8.9-12.2-12.1
			c-6.4,8.2-10.9,18.1-12.9,29.1c-5.1,28.7,9.1,56,33.2,69.4c0.6-1.8,13.3-39.1,13.3-39.1l57.2,10.1c0,0,0.3,19.1,0.3,24.9
			c13.6-9.8,23.6-24.4,26.7-42.2C219.1,85.4,207.4,60.3,186.7,46z M136.7,170.6c-38.8-6.8-64.7-43.9-57.9-82.7s43.9-64.7,82.7-57.9
			s64.7,43.9,57.9,82.7S175.4,177.4,136.7,170.6z M186.7,46c4.4,11.6,4.5,37.4,3.2,47.1c-15.8-2.8-31.5-5.6-47.2-8.3
			c2.2-8.5,12.8-37.1-5.9-45.6c-8.4-3.9-15,0.1-17.8,3.4c-2.7,3.2-4,8-2,11.7c1.4,2.5,4.3,3.3,6.4,1.9c1.3-0.9,1.7-2.3,1.3-3.7
			c-0.8-3.1-4.1-2.9-4.9-3c0.3-3.2,3.6-6.2,7.2-6.3c7.3-0.2,12.5,5,12.7,12.6c0.1,7.7-4.8,15.1-11.8,17.9c-6.7,2.7-12.6,1.1-19-1.7
			c-6.2-2.7-10.9-8.9-12.2-12.1c-6.4,8.2-10.9,18.1-12.9,29.1c-5.1,28.7,9.1,56,33.2,69.4c0.6-1.8,13.3-39.1,13.3-39.1l57.2,10.1
			c0,0,0.3,19.1,0.3,24.9c13.6-9.8,23.6-24.4,26.7-42.2C219.1,85.4,207.4,60.3,186.7,46z M138.1,85.1l54.5,9.6
			c2.4,0.4,3.8,3.2,3.4,5.6c-0.4,2.4-2.8,4.5-5.1,4.1l-54.5-9.6c-2.4-0.4-3.8-3.2-3.4-5.6C133.4,86.8,135.8,84.6,138.1,85.1z
			 M188.4,128.2L130.4,118c-2.4-0.4-3.9-2.7-3.5-5c0.4-2.4,2.7-4,5-3.5l57.9,10.2c2.4,0.4,3.9,2.7,3.5,5
			C193,127,190.7,128.6,188.4,128.2z M204,114.4c-0.6,3.5-4,5.9-7.5,5.3l-70.7-12.5c-3.5-0.6-5.9-4-5.3-7.6s4-5.9,7.5-5.3l70.7,12.5
			C202.3,107.4,204.6,110.8,204,114.4z"/>
	</g>
</g>
</svg>
